<?xml version="1.0" encoding="utf-8"?>
<!-- Generator: Adobe Illustrator 18.1.1, SVG Export Plug-In . SVG Version: 6.00 Build 0)  -->
<svg version="1.1" id="Ebene_1" xmlns="http://www.w3.org/2000/svg" xmlns:xlink="http://www.w3.org/1999/xlink" x="0px" y="0px"
	 viewBox="0 0 604 97.6" enable-background="new 0 0 604 97.6" xml:space="preserve">
<text transform="matrix(1 0 0 1 142.8931 50.8588)" fill="#FFFFFF" font-family="'EurostileLTStd-BoldEx2'" font-size="33.7816">G</text>
<g>
	<text transform="matrix(1 0 0 1 178.769 50.8588)" fill="#FFFFFF" font-family="'EurostileLTStd-BoldEx2'" font-size="47.6916">ame</text>
</g>
<text transform="matrix(1 0 0 1 313.7207 50.8598)" fill="#FFFFFF" font-family="'EurostileLTStd-Ex2'" font-size="47.6916">camp</text>
<g>
	<text transform="matrix(1 0 0 1 175.6377 94.5493)" fill="#FFFFFF" font-family="'EurostileLTStd-BoldEx2'" font-size="12">06. / 07. Juni - Munich - #gcmuc</text>
</g>
<g id="Dots">
	<path fill="#FFFFFF" d="M123.9,50.7c2.2,0,3.9,1.8,3.9,3.9c0,2.2-1.8,3.9-3.9,3.9c-2.2,0-3.9-1.8-3.9-3.9
		C120,52.4,121.8,50.7,123.9,50.7"/>
	<path fill="#FFFFFF" d="M123.9,65.7c2.2,0,3.9,1.8,3.9,3.9c0,2.2-1.8,3.9-3.9,3.9c-2.2,0-3.9-1.8-3.9-3.9
		C120,67.4,121.8,65.7,123.9,65.7"/>
	<path fill="#FFFFFF" d="M349.3,65.7c2.2,0,3.9,1.8,3.9,3.9c0,2.2-1.8,3.9-3.9,3.9c-2.2,0-3.9-1.8-3.9-3.9
		C345.3,67.4,347.1,65.7,349.3,65.7"/>
	<path fill="#FFFFFF" d="M364.3,65.7c2.2,0,3.9,1.8,3.9,3.9c0,2.2-1.8,3.9-3.9,3.9c-2.2,0-3.9-1.8-3.9-3.9
		C360.4,67.4,362.1,65.7,364.3,65.7"/>
	<path fill="#FFFFFF" d="M379.3,65.7c2.2,0,3.9,1.8,3.9,3.9c0,2.2-1.8,3.9-3.9,3.9c-2.2,0-3.9-1.8-3.9-3.9
		C375.4,67.4,377.1,65.7,379.3,65.7"/>
	<path fill="#FFFFFF" d="M394.3,65.7c2.2,0,3.9,1.8,3.9,3.9c0,2.2-1.8,3.9-3.9,3.9c-2.2,0-3.9-1.8-3.9-3.9
		C390.4,67.4,392.2,65.7,394.3,65.7"/>
	<path fill="#FFFFFF" d="M409.3,65.7c2.2,0,3.9,1.8,3.9,3.9c0,2.2-1.8,3.9-3.9,3.9c-2.2,0-3.9-1.8-3.9-3.9
		C405.4,67.4,407.2,65.7,409.3,65.7"/>
	<path fill="#FFFFFF" d="M424.4,65.7c2.2,0,3.9,1.8,3.9,3.9c0,2.2-1.8,3.9-3.9,3.9c-2.2,0-3.9-1.8-3.9-3.9
		C420.4,67.4,422.2,65.7,424.4,65.7"/>
	<path fill="#FFFFFF" d="M439.4,65.7c2.2,0,3.9,1.8,3.9,3.9c0,2.2-1.8,3.9-3.9,3.9c-2.2,0-3.9-1.8-3.9-3.9
		C435.5,67.4,437.2,65.7,439.4,65.7"/>
	<path fill="#FFFFFF" d="M454.4,65.7c2.2,0,3.9,1.8,3.9,3.9c0,2.2-1.8,3.9-3.9,3.9c-2.2,0-3.9-1.8-3.9-3.9
		C450.5,67.4,452.2,65.7,454.4,65.7"/>
	<path fill="#FFFFFF" d="M499.5,65.7c2.2,0,3.9,1.8,3.9,3.9c0,2.2-1.8,3.9-3.9,3.9c-2.2,0-3.9-1.8-3.9-3.9
		C495.6,67.4,497.3,65.7,499.5,65.7"/>
	<path fill="#FFFFFF" d="M503.4,40.4c0,2.2-1.8,3.9-3.9,3.9c-2.2,0-3.9-1.8-3.9-3.9c0-2.2,1.8-3.9,3.9-3.9
		C501.6,36.5,503.4,38.2,503.4,40.4"/>
	<path fill="#FFFFFF" d="M503.4,55.4c0,2.2-1.8,3.9-3.9,3.9c-2.2,0-3.9-1.8-3.9-3.9c0-2.2,1.8-3.9,3.9-3.9
		C501.6,51.5,503.4,53.3,503.4,55.4"/>
	<path fill="#FFFFFF" d="M108.9,35.6c2.2,0,3.9,1.8,3.9,3.9c0,2.2-1.8,3.9-3.9,3.9c-2.2,0-3.9-1.8-3.9-3.9
		C105,37.4,106.8,35.6,108.9,35.6"/>
	<path fill="#FFFFFF" d="M469.4,65.7c2.2,0,3.9,1.8,3.9,3.9c0,2.2-1.8,3.9-3.9,3.9c-2.2,0-3.9-1.8-3.9-3.9
		C465.5,67.4,467.3,65.7,469.4,65.7"/>
	<path fill="#FFFFFF" d="M484.5,65.7c2.2,0,3.9,1.8,3.9,3.9c0,2.2-1.8,3.9-3.9,3.9c-2.2,0-3.9-1.8-3.9-3.9
		C480.5,67.4,482.3,65.7,484.5,65.7"/>
	<path fill="#FFFFFF" d="M517.6,40.4c0,2.2-1.8,3.9-3.9,3.9c-2.2,0-3.9-1.8-3.9-3.9c0-2.2,1.8-3.9,3.9-3.9
		C515.8,36.5,517.6,38.2,517.6,40.4"/>
	<path fill="#FFFFFF" d="M531.7,40.4c0,2.2-1.8,3.9-3.9,3.9c-2.2,0-3.9-1.8-3.9-3.9c0-2.2,1.8-3.9,3.9-3.9
		C530,36.5,531.7,38.2,531.7,40.4"/>
	<path fill="#FFFFFF" d="M93.8,35.6c2.2,0,3.9,1.8,3.9,3.9c0,2.2-1.8,3.9-3.9,3.9c-2.2,0-3.9-1.8-3.9-3.9
		C89.8,37.4,91.6,35.6,93.8,35.6"/>
	<path fill="#FFFFFF" d="M123.9,35.6c2.2,0,3.9,1.8,3.9,3.9c0,2.2-1.8,3.9-3.9,3.9c-2.2,0-3.9-1.8-3.9-3.9
		C120,37.4,121.8,35.6,123.9,35.6"/>
	<path fill="#FFFFFF" d="M139,65.7c2.2,0,3.9,1.8,3.9,3.9c0,2.2-1.8,3.9-3.9,3.9c-2.2,0-3.9-1.8-3.9-3.9
		C135,67.4,136.8,65.7,139,65.7"/>
	<path fill="#FFFFFF" d="M154,65.7c2.2,0,3.9,1.8,3.9,3.9c0,2.2-1.8,3.9-3.9,3.9c-2.2,0-3.9-1.8-3.9-3.9
		C150.1,67.4,151.8,65.7,154,65.7"/>
	<path fill="#FFFFFF" d="M169,65.7c2.2,0,3.9,1.8,3.9,3.9c0,2.2-1.8,3.9-3.9,3.9c-2.2,0-3.9-1.8-3.9-3.9
		C165.1,67.4,166.8,65.7,169,65.7"/>
	<path fill="#FFFFFF" d="M184,65.7c2.2,0,3.9,1.8,3.9,3.9c0,2.2-1.8,3.9-3.9,3.9c-2.2,0-3.9-1.8-3.9-3.9
		C180.1,67.4,181.9,65.7,184,65.7"/>
	<path fill="#FFFFFF" d="M199,65.7c2.2,0,3.9,1.8,3.9,3.9c0,2.2-1.8,3.9-3.9,3.9c-2.2,0-3.9-1.8-3.9-3.9
		C195.1,67.4,196.9,65.7,199,65.7"/>
	<path fill="#FFFFFF" d="M214.1,65.7c2.2,0,3.9,1.8,3.9,3.9c0,2.2-1.8,3.9-3.9,3.9c-2.2,0-3.9-1.8-3.9-3.9
		C210.1,67.4,211.9,65.7,214.1,65.7"/>
	<path fill="#FFFFFF" d="M229.1,65.7c2.2,0,3.9,1.8,3.9,3.9c0,2.2-1.8,3.9-3.9,3.9c-2.2,0-3.9-1.8-3.9-3.9
		C225.2,67.4,226.9,65.7,229.1,65.7"/>
	<path fill="#FFFFFF" d="M244.1,65.7c2.2,0,3.9,1.8,3.9,3.9c0,2.2-1.8,3.9-3.9,3.9c-2.2,0-3.9-1.8-3.9-3.9
		C240.2,67.4,241.9,65.7,244.1,65.7"/>
	<path fill="#FFFFFF" d="M259.1,65.7c2.2,0,3.9,1.8,3.9,3.9c0,2.2-1.8,3.9-3.9,3.9c-2.2,0-3.9-1.8-3.9-3.9
		C255.2,67.4,257,65.7,259.1,65.7"/>
	<path fill="#FFFFFF" d="M274.2,65.7c2.2,0,3.9,1.8,3.9,3.9c0,2.2-1.8,3.9-3.9,3.9c-2.2,0-3.9-1.8-3.9-3.9
		C270.2,67.4,272,65.7,274.2,65.7"/>
	<path fill="#FFFFFF" d="M289.2,65.7c2.2,0,3.9,1.8,3.9,3.9c0,2.2-1.8,3.9-3.9,3.9c-2.2,0-3.9-1.8-3.9-3.9
		C285.3,67.4,287,65.7,289.2,65.7"/>
	<path fill="#FFFFFF" d="M304.2,65.7c2.2,0,3.9,1.8,3.9,3.9c0,2.2-1.8,3.9-3.9,3.9c-2.2,0-3.9-1.8-3.9-3.9
		C300.3,67.4,302,65.7,304.2,65.7"/>
	<path fill="#FFFFFF" d="M319.2,65.7c2.2,0,3.9,1.8,3.9,3.9c0,2.2-1.8,3.9-3.9,3.9c-2.2,0-3.9-1.8-3.9-3.9
		C315.3,67.4,317,65.7,319.2,65.7"/>
	<path fill="#FFFFFF" d="M334.2,65.7c2.2,0,3.9,1.8,3.9,3.9c0,2.2-1.8,3.9-3.9,3.9c-2.2,0-3.9-1.8-3.9-3.9
		C330.3,67.4,332.1,65.7,334.2,65.7"/>
</g>
<g id="Figures">
	<path fill="#FFFFFF" d="M60.8,40.7c12.2-5.5,23.8-11.6,36-17.1c-5.6-12.3-18.7-23-35-23.5c-1.5-0.1-4.7-0.6-6.5,0.9
		c4.2,1.5,8.1,3.2,9.7,7.4c-6.6,10.4-18.1-5.2-27.7-2.8c-4.1,1-5.9,6-7.8,10.1c5.9-0.4,8.6-1.8,12.4,0c7.1,3.4,6.2,19.2-2.8,19.4
		c-6.4,0.1-11.9-8.1-18.4-9.2c-10.3-1.8-5.9,8.2-7.8,14.3c-1.8,5.5-6.5,5.5-12.9,4.6c0.9,1.8,4.4,5.7,8.8,5.5
		c6-0.2,8.3-7.9,12.4-8.8c4.1-0.9,8.4,2,9.7,3.2c6,5.7,3.8,16.6-6,16.6c1.3,2.2,3.5,3.6,5.5,4.1c7.9,2,18.9-3.8,24.4-2.8
		c6.9,1.3,3.8,8.6,0.5,11.1c-3.3,2.5-8.3,2.9-12.4,3.7c9,3.8,20.1,7,30,3.2c2.1-0.8,4.9-2.8,7.4-4.2c7.5-4.3,13.8-10.9,17.1-18
		C85.2,52.6,72.4,47.3,60.8,40.7 M81.6,17.7c0.3,0.8,0.1,1.9-0.2,2.4c-0.3,0.5-0.6,1.3-2,1.7c-1.3,0.4-3.1,0.2-3.9-0.1
		c-0.7-0.3-1.3-1-1.3-1.8c-0.4-4.2,3.9-5.7,6.2-3.8C80.4,16,81.3,16.5,81.6,17.7z"/>
	<path fill="#FFFFFF" d="M572.7,7.2c-17.3,0-31.3,14-31.3,31.3v41.5c0,0,6.7-13.4,11.5-13.4s9.5,13.4,10.3,13.4s5.5-13.4,10.5-13.4
		s10,13.4,11,13.4c1.1,0,2.7-13.4,8.4-13.4c5.7,0,10.9,13.4,10.9,13.4V38.5C604,21.2,590,7.2,572.7,7.2 M559.2,44.5
		c-4.6,0-8.4-4.8-8.4-10.6c0-5.9,3.8-10.6,8.4-10.6c4.6,0,8.4,4.8,8.4,10.6C567.6,39.7,563.9,44.5,559.2,44.5 M584.7,44.5
		c-4.6,0-8.4-4.8-8.4-10.6c0-5.9,3.8-10.6,8.4-10.6c4.6,0,8.4,4.8,8.4,10.6C593.1,39.7,589.3,44.5,584.7,44.5"/>
</g>
</svg>
