<?xml version="1.0" encoding="iso-8859-1"?>
<!-- Generator: Adobe Illustrator 15.0.0, SVG Export Plug-In . SVG Version: 6.00 Build 0)  -->
<!DOCTYPE svg PUBLIC "-//W3C//DTD SVG 1.1//EN" "http://www.w3.org/Graphics/SVG/1.1/DTD/svg11.dtd">
<svg version="1.1" id="Ebene_1" xmlns="http://www.w3.org/2000/svg" xmlns:xlink="http://www.w3.org/1999/xlink" x="0px" y="0px"
	 width="394px" height="63.664px" viewBox="0 0 394 63.664" style="enable-background:new 0 0 394 63.664;" xml:space="preserve">
<g>
	<g>
		<path style="fill:#FFFFFF;" d="M94.513,22.821c0-4.671,2.622-5.772,7.029-5.772h7.359c5.553,0,6.324,2.005,6.324,5.111v0.507
			h-4.803c0-1.586-0.903-1.785-2.468-1.785h-5.311c-2.468,0-3.106,0.595-3.106,3.327v1.983c0,2.732,0.639,3.327,3.106,3.327h5.222
			c1.278,0,2.556-0.198,2.556-1.741v-0.462h-6.082v-3.305h10.973v4.539c0,4.583-2.379,4.803-7.888,4.803h-5.883
			c-4.407,0-7.029-1.102-7.029-5.773V22.821z"/>
	</g>
	<g>
		<defs>
			<rect id="SVGID_1_" width="394" height="63.664"/>
		</defs>
		<clipPath id="SVGID_2_">
			<use xlink:href="#SVGID_1_"  style="overflow:visible;"/>
		</clipPath>
		<g style="clip-path:url(#SVGID_2_);">
			<path style="fill:#FFFFFF;" d="M117.674,27.607c0-4.325,2.987-4.573,8.774-4.573c3.267,0,5.071,0.093,6.223,1.275v-1.4
				c0-1.556-0.467-2.116-2.8-2.116h-3.516c-1.742,0-2.24,0.156-2.302,1.275h-5.787c0-4.293,2.116-5.009,7.156-5.009h6.938
				c4.107,0,6.285,1.96,6.285,5.693v10.423h-5.663v-1.805c-1.649,1.711-2.271,2.054-5.258,2.054h-4.076
				c-3.64,0.031-5.974-0.778-5.974-4.511V27.607z M128.315,29.692c4.107,0,4.48-0.622,4.48-1.68c0-1.183-0.342-1.618-3.64-1.618
				h-2.645c-2.521,0-3.049,0.56-3.049,1.867c0,1.027,0.809,1.431,3.143,1.431H128.315z"/>
			<path style="fill:#FFFFFF;" d="M142.19,17.309h5.694v3.111h0.062c0.311-2.271,2.365-3.36,5.289-3.36h2.271
				c2.831,0,4.76,1.213,5.88,3.702c0.996-2.862,2.271-3.702,5.663-3.702h1.836c5.444,0,7.405,2.645,7.405,7.187v8.929h-5.974v-8.525
				c0-2.178-0.56-2.925-4.045-2.925c-2.862,0-4.044,0.623-4.044,2.707v8.743h-5.974v-8.992c0-1.96-0.716-2.458-4.325-2.458
				c-2.551,0-3.765,0.623-3.765,3.081v8.369h-5.974V17.309z"/>
			<path style="fill:#FFFFFF;" d="M179.367,24.372c0-6.005,2.987-7.312,7.343-7.312h4.169c6.347,0,8.96,1.338,8.96,6.845v2.676
				H185.34v0.964c0,1.68,1.182,2.146,3.671,2.146h1.835c3.236,0,3.392-0.871,3.392-1.804h5.6v0.685c0,3.982-3.547,4.854-7.872,4.854
				h-4.48c-3.951,0-8.121-0.747-8.121-7.529V24.372z M194.052,23.034c0-1.898-0.871-2.24-4.355-2.24
				c-3.889,0-4.356,0.342-4.356,2.24H194.052z"/>
		</g>
	</g>
	<g>
		<path style="fill:#FFFFFF;" d="M206.455,23.47c0-5.756,4.044-6.409,7.965-6.409h4.48c4.978,0,6.938,2.022,6.938,5.382v0.436
			h-2.489v-0.374c0-2.645-1.742-3.267-4.418-3.267h-4.916c-2.52,0-4.885,0.374-4.885,4.325v3.329c0,3.547,2.178,4.355,5.414,4.355
			h4.511c2.489,0,4.573-0.747,4.573-3.329V27.39h2.489v0.467c0,4.014-1.991,5.569-6.969,5.569h-6.036
			c-2.396,0-6.658-0.653-6.658-6.409V23.47z"/>
		<path style="fill:#FFFFFF;" d="M246.619,31.59h-0.062c-0.716,1.431-1.556,1.836-5.663,1.836h-6.409
			c-4.045,0-5.103-1.773-5.103-4.76v-1.058c0-3.609,2.551-4.044,7.218-4.044h4.293c3.484,0,4.729,0.374,5.663,1.898h0.062v-2.987
			c0-2.862-1.805-3.236-5.912-3.236h-3.92c-3.36,0-4.014,0.809-4.014,2.116v0.56h-2.676v-0.778c0-2.894,1.836-4.076,6.627-4.076
			h4.231c4.978,0,8.338,0.747,8.338,5.476v10.641h-2.676V31.59z M246.619,28.199c0-2.178-1.929-2.458-6.036-2.458h-4.107
			c-3.454,0-4.418,0.498-4.418,2.489v0.498c0,1.773,0.622,2.52,4.293,2.52h3.547c4.854,0,6.72-0.342,6.72-2.333V28.199z"/>
		<path style="fill:#FFFFFF;" d="M254.022,17.31h2.489v1.867h0.062c1.12-1.649,2.645-2.116,5.32-2.116h4.325
			c2.427,0,4.293,0.964,5.134,2.924c0.996-2.146,3.142-2.924,5.88-2.924h3.236c4.293,0,6.938,1.867,6.938,5.476v10.641h-2.675
			v-10.33c0-1.835-0.809-3.609-5.072-3.609h-1.897c-4.823,0-5.476,1.991-5.476,4.542v9.396h-2.676v-9.614
			c0-3.08-0.964-4.325-5.227-4.325h-2.676c-3.422,0-5.009,1.431-5.009,3.982v9.956h-2.676V17.31z"/>
		<path style="fill:#FFFFFF;" d="M292.444,17.31h2.489v2.521h0.062c0.778-1.929,2.956-2.769,5.32-2.769h5.071
			c3.796,0,7.343,1.213,7.343,6.689v2.8c0,5.134-2.271,6.876-7.778,6.876h-5.103c-2.831,0-4.107-0.716-4.667-2.365h-0.062v7.654
			h-2.676V17.31z M310.054,23.781c0-3.08-0.995-4.542-4.76-4.542h-5.321c-3.516,0-4.854,1.835-4.854,4.574v3.018
			c0,3.796,2.365,4.418,5.196,4.418h4.761c3.11,0,4.978-0.684,4.978-4.355V23.781z"/>
	</g>
	<g>
		<defs>
			<rect id="SVGID_3_" width="394" height="63.664"/>
		</defs>
		<clipPath id="SVGID_4_">
			<use xlink:href="#SVGID_3_"  style="overflow:visible;"/>
		</clipPath>
		<g style="clip-path:url(#SVGID_4_);">
			<path style="fill:#FFFFFF;" d="M118.785,57.372l-2.09,1.339l-0.791-1.135l2.403-1.565h2.074v5.667h-1.597V57.372z"/>
			<path style="fill:#FFFFFF;" d="M122.926,56.01h6.497v1.268l-3.608,4.399h-2.02l3.515-4.259h-4.384V56.01z"/>
			<path style="fill:#FFFFFF;" d="M131.153,60.081h1.644v1.597h-1.644V60.081z"/>
			<path style="fill:#FFFFFF;" d="M139.928,55.948h1.189l-2.599,5.792h-1.19L139.928,55.948z"/>
			<path style="fill:#FFFFFF;" d="M148.75,57.372l-2.09,1.339l-0.791-1.135l2.403-1.565h2.074v5.667h-1.597V57.372z"/>
			<path style="fill:#FFFFFF;" d="M152.797,59.876c0-0.61,0.25-0.938,1.01-1.049v-0.016c-0.501-0.086-0.979-0.383-0.979-1.189
				v-0.321c0-1.268,0.548-1.354,2.779-1.354h1.722c1.448,0,2.106,0.273,2.106,1.346v0.368c0,0.61-0.149,1.018-0.947,1.119v0.016
				c0.587,0.165,0.994,0.431,0.994,1.206v0.454c0,0.946-0.603,1.283-1.66,1.283h-3.272c-1.221,0-1.753-0.462-1.753-1.37V59.876z
				 M157.165,60.519c0.587,0,0.673-0.173,0.673-0.571c0-0.438-0.078-0.564-0.767-0.564h-1.863c-0.689,0-0.767,0.126-0.767,0.564
				c0,0.398,0.086,0.571,0.673,0.571H157.165z M157.125,58.209c0.509,0,0.666-0.203,0.666-0.524c0-0.392-0.235-0.517-0.532-0.517
				h-2.254c-0.297,0-0.532,0.125-0.532,0.517c0,0.321,0.156,0.524,0.665,0.524H157.125z"/>
			<path style="fill:#FFFFFF;" d="M161.118,60.081h1.644v1.597h-1.644V60.081z"/>
			<path style="fill:#FFFFFF;" d="M168.327,56.01h2.669l1.965,3.647l1.965-3.647h2.669v5.667h-1.69v-4.07h-0.016l-2.278,4.07h-1.299
				l-2.278-4.07h-0.016v4.07h-1.691V56.01z"/>
			<path style="fill:#FFFFFF;" d="M178.449,60.276c0-1.088,0.751-1.15,2.208-1.15c0.822,0,1.276,0.023,1.565,0.321v-0.353
				c0-0.392-0.117-0.532-0.705-0.532h-0.884c-0.438,0-0.563,0.039-0.58,0.32h-1.456c0-1.08,0.532-1.26,1.8-1.26h1.746
				c1.033,0,1.581,0.493,1.581,1.433v2.622H182.3v-0.454c-0.415,0.431-0.571,0.517-1.323,0.517h-1.025
				c-0.916,0.008-1.503-0.195-1.503-1.135V60.276z M181.126,60.8c1.033,0,1.127-0.156,1.127-0.423c0-0.297-0.086-0.406-0.916-0.406
				h-0.666c-0.634,0-0.767,0.141-0.767,0.47c0,0.258,0.204,0.359,0.791,0.359H181.126z"/>
			<path style="fill:#FFFFFF;" d="M185.455,62.084h0.125c0.595,0,0.979-0.117,0.979-0.579h-0.533l-1.832-3.82h1.628l1.15,2.779
				l1.151-2.779h1.628l-2.239,4.728c-0.235,0.485-0.688,0.658-1.448,0.658c-0.282,0-0.462-0.023-0.611-0.031V62.084z"/>
			<path style="fill:#FFFFFF;" d="M194.285,58.993h2.191v1.408h-2.191V58.993z"/>
			<path style="fill:#FFFFFF;" d="M201.572,56.01h2.669l1.965,3.647l1.965-3.647h2.669v5.667h-1.69v-4.07h-0.016l-2.278,4.07h-1.299
				l-2.278-4.07h-0.016v4.07h-1.691V56.01z"/>
			<path style="fill:#FFFFFF;" d="M217.291,61.677h-1.503v-0.642h-0.016c-0.266,0.556-0.791,0.704-1.597,0.704
				c-0.932,0-2.231-0.039-2.231-1.761v-2.294h1.503v2.294c0,0.391,0.313,0.587,0.971,0.587h0.344c0.642,0,1.025-0.298,1.025-0.869
				v-2.012h1.503V61.677z"/>
			<path style="fill:#FFFFFF;" d="M218.324,57.685h1.503v0.642h0.016c0.266-0.556,0.791-0.704,1.597-0.704
				c0.932,0,2.231,0.039,2.231,1.761v2.294h-1.503v-2.294c0-0.391-0.313-0.587-0.97-0.587h-0.345c-0.642,0-1.025,0.298-1.025,0.869
				v2.012h-1.503V57.685z"/>
			<path style="fill:#FFFFFF;" d="M226.293,57.184h-1.503V56.01h1.503V57.184z M226.293,61.677h-1.503v-3.992h1.503V61.677z"/>
			<path style="fill:#FFFFFF;" d="M227.224,59.462c0-1.511,0.751-1.84,1.848-1.84h1.69c1.112,0,1.793,0.407,1.793,1.323v0.359
				h-1.456c0-0.407-0.211-0.556-0.869-0.556h-0.579c-0.626,0-0.924,0.173-0.924,0.61v0.532c0,0.517,0.329,0.674,0.798,0.674h0.768
				c0.422,0,0.806-0.094,0.806-0.462V60.01h1.456v0.352c0,1.073-0.893,1.378-1.753,1.378h-1.535c-0.994,0-2.043-0.188-2.043-1.895
				V59.462z"/>
			<path style="fill:#FFFFFF;" d="M233.401,56.01h1.503v2.316h0.016c0.266-0.556,0.791-0.704,1.597-0.704
				c0.931,0,2.23,0.039,2.23,1.761v2.294h-1.503v-2.294c0-0.391-0.313-0.587-0.97-0.587h-0.345c-0.642,0-1.025,0.298-1.025,0.869
				v2.012h-1.503V56.01z"/>
			<path style="fill:#FFFFFF;" d="M243.773,58.993h2.191v1.408h-2.191V58.993z"/>
			<path style="fill:#FFFFFF;" d="M252.32,59.219h0.736l0.102-0.751h-0.611v-0.939h0.736l0.204-1.519h0.971l-0.204,1.519h0.524
				l0.204-1.519h0.971l-0.204,1.519h0.61v0.939h-0.735l-0.102,0.751h0.611v0.939h-0.736l-0.204,1.519h-0.971l0.204-1.519h-0.524
				l-0.204,1.519h-0.971l0.204-1.519h-0.611V59.219z M254.027,59.219h0.524l0.102-0.751h-0.524L254.027,59.219z"/>
			<path style="fill:#FFFFFF;" d="M258.622,59.188c0-1.236,0.634-1.565,1.832-1.565h0.876c0.76,0,0.939,0.094,1.315,0.61h0.016
				v-0.548h1.409v3.741c0,0.83-0.266,1.645-2.152,1.645h-1.66c-1.01,0-1.581-0.243-1.581-1.245h1.55
				c0,0.188,0.125,0.306,0.368,0.306h1.088c0.657,0,0.979-0.212,0.979-0.885v-0.266c-0.297,0.297-0.548,0.414-1.347,0.414h-0.791
				c-1.456,0-1.902-0.579-1.902-1.659V59.188z M261.729,60.315c0.744,0,0.916-0.195,0.916-0.798c0-0.611-0.172-0.814-0.916-0.814
				h-0.736c-0.744,0-0.916,0.203-0.916,0.814c0,0.603,0.172,0.798,0.916,0.798H261.729z"/>
			<path style="fill:#FFFFFF;" d="M264.916,59.462c0-1.511,0.751-1.84,1.848-1.84h1.69c1.112,0,1.793,0.407,1.793,1.323v0.359
				h-1.456c0-0.407-0.211-0.556-0.869-0.556h-0.579c-0.626,0-0.924,0.173-0.924,0.61v0.532c0,0.517,0.329,0.674,0.798,0.674h0.768
				c0.422,0,0.806-0.094,0.806-0.462V60.01h1.456v0.352c0,1.073-0.893,1.378-1.753,1.378h-1.535c-0.994,0-2.043-0.188-2.043-1.895
				V59.462z"/>
			<path style="fill:#FFFFFF;" d="M271.021,57.685h1.433v0.783h0.016c0.078-0.572,0.595-0.846,1.331-0.846h0.571
				c0.712,0,1.198,0.306,1.479,0.932c0.25-0.721,0.571-0.932,1.425-0.932h0.462c1.37,0,1.863,0.665,1.863,1.809v2.246h-1.503v-2.145
				c0-0.548-0.141-0.736-1.018-0.736c-0.72,0-1.018,0.157-1.018,0.682v2.199h-1.503v-2.263c0-0.492-0.18-0.618-1.088-0.618
				c-0.642,0-0.947,0.157-0.947,0.775v2.105h-1.503V57.685z"/>
			<path style="fill:#FFFFFF;" d="M285.91,61.677h-1.503v-0.642h-0.016c-0.266,0.556-0.791,0.704-1.597,0.704
				c-0.932,0-2.231-0.039-2.231-1.761v-2.294h1.503v2.294c0,0.391,0.313,0.587,0.971,0.587h0.344c0.642,0,1.025-0.298,1.025-0.869
				v-2.012h1.503V61.677z"/>
			<path style="fill:#FFFFFF;" d="M286.755,59.462c0-1.511,0.751-1.84,1.848-1.84h1.69c1.112,0,1.793,0.407,1.793,1.323v0.359
				h-1.456c0-0.407-0.211-0.556-0.869-0.556h-0.579c-0.626,0-0.924,0.173-0.924,0.61v0.532c0,0.517,0.329,0.674,0.798,0.674h0.768
				c0.422,0,0.806-0.094,0.806-0.462V60.01h1.456v0.352c0,1.073-0.893,1.378-1.753,1.378h-1.535c-0.994,0-2.043-0.188-2.043-1.895
				V59.462z"/>
		</g>
	</g>
	<g>
		<defs>
			<rect id="SVGID_5_" width="394" height="63.664"/>
		</defs>
		<clipPath id="SVGID_6_">
			<use xlink:href="#SVGID_5_"  style="overflow:visible;"/>
		</clipPath>
		<path style="clip-path:url(#SVGID_6_);fill:#FFFFFF;" d="M80.849,33.045c1.412,0,2.556,1.145,2.556,2.556
			c0,1.411-1.144,2.556-2.556,2.556c-1.412,0-2.556-1.145-2.556-2.556C78.293,34.19,79.437,33.045,80.849,33.045"/>
		<path style="clip-path:url(#SVGID_6_);fill:#FFFFFF;" d="M80.849,42.844c1.412,0,2.556,1.145,2.556,2.557
			c0,1.411-1.144,2.555-2.556,2.555c-1.412,0-2.556-1.144-2.556-2.555C78.293,43.989,79.437,42.844,80.849,42.844"/>
		<path style="clip-path:url(#SVGID_6_);fill:#FFFFFF;" d="M227.834,42.843c1.411,0,2.556,1.144,2.556,2.557
			c0,1.411-1.145,2.555-2.556,2.555c-1.413,0-2.558-1.144-2.558-2.555C225.276,43.987,226.421,42.843,227.834,42.843"/>
		<path style="clip-path:url(#SVGID_6_);fill:#FFFFFF;" d="M237.632,42.843c1.412,0,2.556,1.144,2.556,2.557
			c0,1.411-1.144,2.555-2.556,2.555c-1.411,0-2.555-1.144-2.555-2.555C235.077,43.987,236.221,42.843,237.632,42.843"/>
		<path style="clip-path:url(#SVGID_6_);fill:#FFFFFF;" d="M247.43,42.843c1.411,0,2.555,1.144,2.555,2.557
			c0,1.411-1.144,2.555-2.555,2.555s-2.555-1.144-2.555-2.555C244.875,43.987,246.019,42.843,247.43,42.843"/>
		<path style="clip-path:url(#SVGID_6_);fill:#FFFFFF;" d="M257.229,42.843c1.411,0,2.555,1.144,2.555,2.557
			c0,1.411-1.144,2.555-2.555,2.555c-1.413,0-2.557-1.144-2.557-2.555C254.673,43.987,255.817,42.843,257.229,42.843"/>
		<path style="clip-path:url(#SVGID_6_);fill:#FFFFFF;" d="M267.027,42.843c1.411,0,2.556,1.144,2.556,2.557
			c0,1.411-1.145,2.555-2.556,2.555c-1.412,0-2.556-1.144-2.556-2.555C264.471,43.987,265.616,42.843,267.027,42.843"/>
		<path style="clip-path:url(#SVGID_6_);fill:#FFFFFF;" d="M276.826,42.843c1.411,0,2.555,1.144,2.555,2.557
			c0,1.411-1.145,2.555-2.555,2.555c-1.412,0-2.556-1.144-2.556-2.555C274.27,43.987,275.415,42.843,276.826,42.843"/>
		<path style="clip-path:url(#SVGID_6_);fill:#FFFFFF;" d="M286.626,42.843c1.411,0,2.555,1.144,2.555,2.557
			c0,1.411-1.145,2.555-2.555,2.555c-1.413,0-2.558-1.144-2.558-2.555C284.069,43.987,285.214,42.843,286.626,42.843"/>
		<path style="clip-path:url(#SVGID_6_);fill:#FFFFFF;" d="M296.425,42.843c1.411,0,2.555,1.144,2.555,2.557
			c0,1.411-1.144,2.555-2.555,2.555c-1.412,0-2.556-1.144-2.556-2.555C293.869,43.987,295.013,42.843,296.425,42.843"/>
		<path style="clip-path:url(#SVGID_6_);fill:#FFFFFF;" d="M325.821,42.842c1.413,0,2.557,1.145,2.557,2.558
			c0,1.411-1.144,2.555-2.557,2.555c-1.411,0-2.556-1.145-2.556-2.555C323.266,43.987,324.41,42.842,325.821,42.842"/>
		<path style="clip-path:url(#SVGID_6_);fill:#FFFFFF;" d="M328.378,26.355c0,1.411-1.144,2.555-2.557,2.555
			c-1.411,0-2.556-1.144-2.556-2.555c0-1.412,1.145-2.557,2.556-2.557C327.234,23.799,328.378,24.943,328.378,26.355"/>
		<path style="clip-path:url(#SVGID_6_);fill:#FFFFFF;" d="M328.378,36.154c0,1.411-1.144,2.556-2.557,2.556
			c-1.411,0-2.556-1.145-2.556-2.556c0-1.41,1.145-2.555,2.556-2.555C327.234,33.599,328.378,34.744,328.378,36.154"/>
		<path style="clip-path:url(#SVGID_6_);fill:#FFFFFF;" d="M71.051,23.245c1.411,0,2.555,1.145,2.555,2.557
			c0,1.412-1.144,2.556-2.555,2.556c-1.412,0-2.556-1.144-2.556-2.556C68.496,24.39,69.639,23.245,71.051,23.245"/>
		<path style="clip-path:url(#SVGID_6_);fill:#FFFFFF;" d="M306.226,42.843c1.411,0,2.556,1.144,2.556,2.557
			c0,1.411-1.145,2.555-2.556,2.555c-1.413,0-2.557-1.144-2.557-2.555C303.669,43.987,304.812,42.843,306.226,42.843"/>
		<path style="clip-path:url(#SVGID_6_);fill:#FFFFFF;" d="M316.024,42.843c1.411,0,2.555,1.144,2.555,2.557
			c0,1.411-1.144,2.555-2.555,2.555c-1.414,0-2.558-1.144-2.558-2.555C313.467,43.987,314.61,42.843,316.024,42.843"/>
		<path style="clip-path:url(#SVGID_6_);fill:#FFFFFF;" d="M337.624,26.355c0,1.41-1.145,2.554-2.558,2.554
			c-1.411,0-2.556-1.144-2.556-2.554c0-1.412,1.145-2.557,2.556-2.557C336.479,23.798,337.624,24.944,337.624,26.355"/>
		<path style="clip-path:url(#SVGID_6_);fill:#FFFFFF;" d="M346.869,26.355c0,1.41-1.145,2.554-2.557,2.554
			c-1.411,0-2.557-1.144-2.557-2.554c0-1.412,1.146-2.557,2.557-2.557C345.725,23.798,346.869,24.944,346.869,26.355"/>
		<path style="clip-path:url(#SVGID_6_);fill:#FFFFFF;" d="M61.157,23.246c1.412,0,2.556,1.144,2.556,2.556
			c0,1.413-1.144,2.557-2.556,2.557c-1.412,0-2.556-1.144-2.556-2.557C58.601,24.39,59.745,23.246,61.157,23.246"/>
		<path style="clip-path:url(#SVGID_6_);fill:#FFFFFF;" d="M80.85,23.246c1.411,0,2.555,1.144,2.555,2.556
			c0,1.413-1.144,2.557-2.555,2.557c-1.412,0-2.556-1.144-2.556-2.557C78.293,24.39,79.438,23.246,80.85,23.246"/>
		<path style="clip-path:url(#SVGID_6_);fill:#FFFFFF;" d="M90.648,42.844c1.412,0,2.556,1.145,2.556,2.557
			s-1.144,2.557-2.556,2.557c-1.412,0-2.557-1.145-2.557-2.557S89.236,42.844,90.648,42.844"/>
		<path style="clip-path:url(#SVGID_6_);fill:#FFFFFF;" d="M100.447,42.844c1.411,0,2.555,1.145,2.555,2.557
			s-1.144,2.557-2.555,2.557c-1.412,0-2.556-1.145-2.556-2.557S99.035,42.844,100.447,42.844"/>
		<path style="clip-path:url(#SVGID_6_);fill:#FFFFFF;" d="M110.245,42.844c1.412,0,2.556,1.145,2.556,2.557
			s-1.144,2.557-2.556,2.557c-1.411,0-2.556-1.145-2.556-2.557S108.833,42.844,110.245,42.844"/>
		<path style="clip-path:url(#SVGID_6_);fill:#FFFFFF;" d="M120.044,42.844c1.411,0,2.555,1.145,2.555,2.557
			s-1.144,2.557-2.555,2.557c-1.413,0-2.557-1.145-2.557-2.557S118.631,42.844,120.044,42.844"/>
		<path style="clip-path:url(#SVGID_6_);fill:#FFFFFF;" d="M129.842,42.844c1.412,0,2.556,1.145,2.556,2.557
			s-1.144,2.557-2.556,2.557s-2.556-1.145-2.556-2.557S128.431,42.844,129.842,42.844"/>
		<path style="clip-path:url(#SVGID_6_);fill:#FFFFFF;" d="M139.64,42.844c1.412,0,2.556,1.145,2.556,2.557
			s-1.144,2.557-2.556,2.557c-1.411,0-2.555-1.145-2.555-2.557S138.229,42.844,139.64,42.844"/>
		<path style="clip-path:url(#SVGID_6_);fill:#FFFFFF;" d="M149.441,42.844c1.411,0,2.555,1.145,2.555,2.557
			s-1.144,2.557-2.555,2.557c-1.412,0-2.556-1.145-2.556-2.557S148.029,42.844,149.441,42.844"/>
		<path style="clip-path:url(#SVGID_6_);fill:#FFFFFF;" d="M159.24,42.844c1.412,0,2.556,1.145,2.556,2.557
			s-1.144,2.557-2.556,2.557s-2.556-1.145-2.556-2.557S157.828,42.844,159.24,42.844"/>
		<path style="clip-path:url(#SVGID_6_);fill:#FFFFFF;" d="M169.038,42.844c1.413,0,2.557,1.145,2.557,2.557
			s-1.144,2.557-2.557,2.557c-1.412,0-2.556-1.145-2.556-2.557S167.626,42.844,169.038,42.844"/>
		<path style="clip-path:url(#SVGID_6_);fill:#FFFFFF;" d="M178.837,42.844c1.411,0,2.556,1.145,2.556,2.557
			s-1.145,2.557-2.556,2.557c-1.413,0-2.557-1.145-2.557-2.557S177.425,42.844,178.837,42.844"/>
		<path style="clip-path:url(#SVGID_6_);fill:#FFFFFF;" d="M188.637,42.844c1.411,0,2.555,1.145,2.555,2.557
			s-1.144,2.557-2.555,2.557s-2.555-1.145-2.555-2.557S187.226,42.844,188.637,42.844"/>
		<path style="clip-path:url(#SVGID_6_);fill:#FFFFFF;" d="M198.437,42.844c1.411,0,2.555,1.145,2.555,2.557
			s-1.144,2.557-2.555,2.557c-1.413,0-2.557-1.145-2.557-2.557S197.023,42.844,198.437,42.844"/>
		<path style="clip-path:url(#SVGID_6_);fill:#FFFFFF;" d="M208.235,42.844c1.411,0,2.555,1.145,2.555,2.557
			s-1.144,2.557-2.555,2.557c-1.414,0-2.558-1.145-2.558-2.557S206.821,42.844,208.235,42.844"/>
		<path style="clip-path:url(#SVGID_6_);fill:#FFFFFF;" d="M218.033,42.844c1.411,0,2.555,1.145,2.555,2.557
			s-1.145,2.557-2.555,2.557c-1.411,0-2.555-1.145-2.555-2.557S216.622,42.844,218.033,42.844"/>
	</g>
	<g>
		<defs>
			<rect id="SVGID_7_" width="394" height="63.664"/>
		</defs>
		<clipPath id="SVGID_8_">
			<use xlink:href="#SVGID_7_"  style="overflow:visible;"/>
		</clipPath>
		<path style="clip-path:url(#SVGID_8_);fill:#FFFFFF;" d="M39.693,26.554c7.96-3.567,15.517-7.537,23.455-11.126
			C59.521,7.372,50.959,0.438,40.294,0.092c-1.008-0.034-3.057-0.397-4.21,0.601c2.733,0.976,5.299,2.119,6.315,4.812
			c-4.337,6.77-11.824-3.396-18.042-1.805c-2.66,0.681-3.829,3.888-5.112,6.616c3.877-0.288,5.603-1.196,8.12,0
			c4.611,2.192,4.053,12.523-1.804,12.63c-4.164,0.075-7.788-5.285-12.028-6.014c-6.69-1.151-3.848,5.363-5.112,9.321
			C7.278,29.828,4.169,29.83,0,29.26c0.574,1.157,2.874,3.688,5.714,3.607c3.915-0.111,5.444-5.159,8.119-5.712
			c2.684-0.555,5.503,1.332,6.314,2.105c3.909,3.73,2.505,10.827-3.909,10.825c0.863,1.43,2.27,2.369,3.608,2.706
			c5.127,1.292,12.331-2.49,15.938-1.804c4.472,0.851,2.484,5.581,0.3,7.217c-2.167,1.626-5.445,1.886-8.118,2.406
			c5.891,2.492,13.112,4.541,19.545,2.105c1.397-0.53,3.228-1.796,4.812-2.707c4.873-2.8,8.979-7.114,11.126-11.728
			C55.572,34.33,47.225,30.849,39.693,26.554 M54.127,10.616v2.105c-0.85,1.126-3.06,1.126-3.909,0
			C49.339,9.569,52.859,9.045,54.127,10.616"/>
		<path style="clip-path:url(#SVGID_8_);fill:#FFFFFF;" d="M373.614,4.712c-11.26,0-20.386,9.127-20.386,20.386v27.047
			c0,0,4.346-8.759,7.485-8.759s6.222,8.759,6.711,8.759s3.557-8.759,6.818-8.759s6.507,8.759,7.207,8.759
			c0.699,0,1.742-8.718,5.449-8.718c3.708,0,7.101,8.718,7.101,8.718V25.099C394,13.839,384.872,4.712,373.614,4.712
			 M364.809,29.014c-3.02,0-5.47-3.108-5.47-6.941c0-3.834,2.45-6.942,5.47-6.942c3.022,0,5.47,3.107,5.47,6.942
			C370.278,25.906,367.831,29.014,364.809,29.014 M381.43,29.014c-3.021,0-5.47-3.108-5.47-6.941c0-3.834,2.448-6.942,5.47-6.942
			s5.47,3.107,5.47,6.942C386.899,25.906,384.451,29.014,381.43,29.014"/>
	</g>
</g>
</svg>
