<?xml version="1.0" encoding="utf-8"?>
<!-- Generator: Adobe Illustrator 16.0.0, SVG Export Plug-In . SVG Version: 6.00 Build 0)  -->
<!DOCTYPE svg PUBLIC "-//W3C//DTD SVG 1.1//EN" "http://www.w3.org/Graphics/SVG/1.1/DTD/svg11.dtd">
<svg version="1.1" id="Ebene_1" xmlns="http://www.w3.org/2000/svg" xmlns:xlink="http://www.w3.org/1999/xlink" x="0px" y="0px"
	 width="293.667px" height="43.691px" viewBox="0 0 293.667 43.691" enable-background="new 0 0 293.667 43.691"
	 xml:space="preserve">
<path id="Heinrich_1_" fill="#1463A0" d="M160.709,23.993l7.937-20.977h125.021v20.977 M189.207,21.047v-1.496l-1.123-0.221
	c-0.264-0.065-0.308-0.242-0.308-0.396V8.505c0-0.153,0.044-0.33,0.308-0.396l1.123-0.221V6.393h-5.172v1.496l1.145,0.221
	c0.264,0.065,0.309,0.242,0.309,0.396v4.159h-8.34V8.505c0-0.153,0.045-0.33,0.309-0.396l1.122-0.221V6.393h-5.171v1.496
	l1.145,0.221c0.264,0.065,0.308,0.242,0.308,0.396v10.43c0,0.153-0.044,0.33-0.308,0.396l-1.145,0.221v1.496h5.171v-1.496
	l-1.122-0.221c-0.264-0.065-0.309-0.242-0.309-0.396v-4.467h8.34v4.467c0,0.153-0.045,0.33-0.309,0.396l-1.145,0.221v1.496H189.207z
	 M203.836,21.047v-1.959h-8.075V14.49h7.812v-1.914h-7.812V8.352h8.075V6.393H192.02v1.496l1.145,0.221
	c0.264,0.065,0.309,0.242,0.309,0.396v10.43c0,0.153-0.045,0.33-0.309,0.396l-1.145,0.221v1.496H203.836z M211.49,21.047v-1.496
	l-1.122-0.221c-0.264-0.065-0.308-0.242-0.308-0.396V8.505c0-0.153,0.044-0.33,0.308-0.396l1.122-0.221V6.393h-5.17v1.496
	l1.144,0.221c0.265,0.065,0.308,0.242,0.308,0.396v10.43c0,0.153-0.043,0.33-0.308,0.396l-1.144,0.221v1.496H211.49z M230.721,7.889
	V6.393h-5.018v1.496l1.145,0.221c0.264,0.065,0.308,0.242,0.308,0.396v10.056c0,0.352-0.044,0.616-0.462,0.616
	c-0.264,0-0.374-0.132-0.506-0.418l-5.854-12.366h-6.028v1.496l1.144,0.221c0.265,0.065,0.309,0.242,0.309,0.396v10.43
	c0,0.153-0.044,0.33-0.309,0.396l-1.144,0.221v1.496h4.995v-1.496l-1.123-0.221c-0.264-0.065-0.308-0.242-0.308-0.396V8.682
	c0-0.375,0.044-0.595,0.462-0.595c0.286,0,0.374,0.11,0.506,0.418l5.897,12.542h4.532V8.505c0-0.153,0.045-0.33,0.309-0.396
	L230.721,7.889z M237.274,14.645h4.378v2.266l2.751,4.137h3.234v-1.496l-0.858-0.198c-0.484-0.11-0.748-0.176-1.012-0.571
	l-2.377-3.499c-0.109-0.154-0.197-0.265-0.197-0.44c0-0.352,0.264-0.396,0.572-0.439c0.836-0.088,1.693-0.375,2.266-1.013
	c0.616-0.683,0.924-1.628,0.924-2.882c0-3.037-1.144-4.115-4.532-4.115h-8.89v1.496l1.145,0.221
	c0.264,0.065,0.309,0.242,0.309,0.396v10.43c0,0.153-0.045,0.33-0.309,0.396l-1.145,0.221v1.496h5.172v-1.496l-1.123-0.221
	c-0.264-0.065-0.308-0.242-0.308-0.396V14.645z M244.579,10.529c0,0.704-0.022,1.276-0.418,1.672
	c-0.353,0.309-1.034,0.528-2.509,0.528h-4.378v-4.4h4.378c1.475,0,2.156,0.198,2.509,0.528
	C244.557,9.253,244.579,9.848,244.579,10.529z M255.314,21.047v-1.496l-1.122-0.221c-0.265-0.065-0.308-0.242-0.308-0.396V8.505
	c0-0.153,0.043-0.33,0.308-0.396l1.122-0.221V6.393h-5.171v1.496l1.144,0.221c0.265,0.065,0.309,0.242,0.309,0.396v10.43
	c0,0.153-0.044,0.33-0.309,0.396l-1.144,0.221v1.496H255.314z M270.363,20.562l-0.309-1.87c0,0-2.597,0.507-4.885,0.507
	c-4.334,0-4.775-1.232-4.775-5.479c0-4.423,0.441-5.435,4.842-5.435c2.288,0,4.818,0.527,4.818,0.527l0.309-1.957
	c0,0-2.575-0.639-5.392-0.639c-5.148,0-6.931,1.32-6.931,7.503s1.782,7.481,6.931,7.481
	C267.788,21.201,270.363,20.562,270.363,20.562z M288.668,21.047v-1.496l-1.123-0.221c-0.264-0.065-0.308-0.242-0.308-0.396V8.505
	c0-0.153,0.044-0.33,0.308-0.396l1.123-0.221V6.393h-5.172v1.496l1.145,0.221c0.264,0.065,0.309,0.242,0.309,0.396v4.159h-8.34
	V8.505c0-0.153,0.045-0.33,0.309-0.396l1.122-0.221V6.393h-5.171v1.496l1.145,0.221c0.264,0.065,0.308,0.242,0.308,0.396v10.43
	c0,0.153-0.044,0.33-0.308,0.396l-1.145,0.221v1.496h5.171v-1.496l-1.122-0.221c-0.264-0.065-0.309-0.242-0.309-0.396v-4.467h8.34
	v4.467c0,0.153-0.045,0.33-0.309,0.396l-1.145,0.221v1.496H288.668z"/>
<path id="Luehrsen_1_" fill="#1463A0" d="M141.434,3.017l-7.937,20.977H0V3.017 M14.454,21.047v-1.98H7.149V8.505
	c0-0.153,0.044-0.33,0.308-0.396l1.122-0.221V6.393H3.408v1.496l1.144,0.221C4.816,8.175,4.86,8.352,4.86,8.505v10.43
	c0,0.153-0.044,0.33-0.308,0.396l-1.144,0.221v1.496H14.454z M31.791,7.889V6.393H26.62v1.496l1.145,0.221
	c0.264,0.065,0.308,0.242,0.308,0.396v10.254c0,0-1.937,0.506-4.445,0.506c-3.037,0-3.542-0.572-3.542-3.63v-7.13
	c0-0.153,0.044-0.33,0.308-0.396l1.122-0.221V6.393h-5.171v1.496l1.144,0.221c0.264,0.065,0.308,0.242,0.308,0.396v7.415
	c0,4.049,1.056,5.281,5.633,5.281c0.616,0,1.827-0.11,1.827-0.11l1.826-1.188c0.198-0.132,0.352-0.264,0.594-0.264
	c0.418,0,0.462,0.309,0.506,0.484l0.154,0.924h3.455v-1.496l-1.122-0.221c-0.264-0.065-0.308-0.242-0.308-0.396V8.505
	c0-0.153,0.044-0.33,0.308-0.396L31.791,7.889z M46.398,21.047v-1.959h-8.075V14.49h7.811v-1.914h-7.811V8.352h8.075V6.393H34.582
	v1.496l1.144,0.221c0.264,0.065,0.308,0.242,0.308,0.396v10.43c0,0.153-0.044,0.33-0.308,0.396l-1.144,0.221v1.496H46.398z
	 M64.68,21.047v-1.496l-1.122-0.221c-0.264-0.065-0.308-0.242-0.308-0.396V8.505c0-0.153,0.044-0.33,0.308-0.396l1.122-0.221V6.393
	h-5.171v1.496l1.144,0.221c0.264,0.065,0.308,0.242,0.308,0.396v4.159h-8.339V8.505c0-0.153,0.044-0.33,0.308-0.396l1.122-0.221
	V6.393h-5.171v1.496l1.144,0.221c0.264,0.065,0.308,0.242,0.308,0.396v10.43c0,0.153-0.044,0.33-0.308,0.396l-1.144,0.221v1.496
	h5.171v-1.496l-1.122-0.221c-0.264-0.065-0.308-0.242-0.308-0.396v-4.467h8.339v4.467c0,0.153-0.044,0.33-0.308,0.396l-1.144,0.221
	v1.496H64.68z M71.234,14.645h4.378v2.266l2.75,4.137h3.234v-1.496l-0.858-0.198c-0.484-0.11-0.749-0.176-1.012-0.571l-2.376-3.499
	c-0.11-0.154-0.198-0.265-0.198-0.44c0-0.352,0.264-0.396,0.572-0.439c0.836-0.088,1.694-0.375,2.266-1.013
	c0.616-0.683,0.924-1.628,0.924-2.882c0-3.037-1.144-4.115-4.533-4.115h-8.889v1.496l1.144,0.221
	c0.264,0.065,0.308,0.242,0.308,0.396v10.43c0,0.153-0.044,0.33-0.308,0.396l-1.144,0.221v1.496h5.171v-1.496l-1.123-0.221
	c-0.264-0.065-0.308-0.242-0.308-0.396V14.645z M78.539,10.529c0,0.704-0.022,1.276-0.418,1.672
	c-0.352,0.309-1.034,0.528-2.508,0.528h-4.378v-4.4h4.378c1.474,0,2.156,0.198,2.508,0.528C78.517,9.253,78.539,9.848,78.539,10.529
	z M89.979,21.201c3.477,0,5.721-0.594,5.721-4.577c0-4.114-2.685-4.005-5.897-4.158c-2.024-0.089-3.521,0.022-3.521-2.156
	c0-2.2,2.112-2.112,3.829-2.112c1.914,0,4.489,0.506,4.489,0.506l0.308-1.914c0,0-2.442-0.551-5.171-0.551
	c-3.895,0-5.721,0.925-5.721,4.357c0,3.982,2.64,3.916,5.941,4.137c2.398,0.153,3.432-0.045,3.432,2.244
	c0,2.244-1.98,2.244-3.674,2.244c-2.289,0-5.127-0.551-5.127-0.551l-0.264,1.938C84.324,20.607,86.92,21.201,89.979,21.201z
	 M110.219,21.047v-1.959h-8.075V14.49h7.811v-1.914h-7.811V8.352h8.075V6.393H98.403v1.496l1.144,0.221
	c0.264,0.065,0.308,0.242,0.308,0.396v10.43c0,0.153-0.044,0.33-0.308,0.396l-1.144,0.221v1.496H110.219z M129.118,7.889V6.393
	h-5.017v1.496l1.145,0.221c0.264,0.065,0.308,0.242,0.308,0.396v10.056c0,0.352-0.044,0.616-0.462,0.616
	c-0.264,0-0.374-0.132-0.506-0.418l-5.853-12.366h-6.029v1.496l1.144,0.221c0.264,0.065,0.308,0.242,0.308,0.396v10.43
	c0,0.153-0.044,0.33-0.308,0.396l-1.144,0.221v1.496h4.995v-1.496l-1.122-0.221c-0.264-0.065-0.308-0.242-0.308-0.396V8.682
	c0-0.375,0.044-0.595,0.462-0.595c0.286,0,0.374,0.11,0.506,0.418l5.897,12.542h4.532V8.505c0-0.153,0.044-0.33,0.308-0.396
	L129.118,7.889z"/>
<g id="Doubleslash">
	<path d="M147.805,0h4.033l-10.619,27.676h-4.033L147.805,0z"/>
	<path d="M160.829,0h4.033l-10.619,27.676h-4.033L160.829,0z"/>
</g>
<g id="Agentur_für_Medienkommunikation">
	<path fill="#666666" d="M10.555,42.794l0.475-0.105c0.119-0.026,0.211-0.04,0.211-0.159c0-0.065-0.013-0.105-0.053-0.211
		l-0.449-1.161H6.16l-0.476,1.188c-0.04,0.092-0.053,0.131-0.053,0.184c0,0.119,0.093,0.146,0.225,0.172l0.462,0.093v0.897H3.375
		v-0.897l0.607-0.132c0.198-0.04,0.264-0.133,0.33-0.304l2.626-6.124c0.066-0.158,0.026-0.277-0.145-0.304l-0.7-0.119V34.9h3.538
		l2.97,7.458c0.105,0.237,0.185,0.264,0.422,0.317l0.554,0.118v0.897h-3.022V42.794z M8.787,36.194
		c-0.079-0.198-0.119-0.304-0.317-0.304c-0.198,0-0.237,0.105-0.317,0.304l-1.557,3.88h3.722L8.787,36.194z"/>
	<path fill="#666666" d="M21.062,43.691l-0.093-0.555c-0.026-0.105-0.053-0.29-0.303-0.29c-0.146,0-0.238,0.079-0.356,0.158
		l-1.096,0.713c0,0-0.607,0.065-0.977,0.065c-2.996,0-3.867-0.738-3.867-4.474c0-3.774,1.082-4.487,4.158-4.487
		c1.689,0,3.366,0.436,3.366,0.436l-0.172,1.174c0,0-1.861-0.355-3.3-0.355c-2.006,0-2.64,0.277-2.64,3.233
		c0,2.996,0.475,3.286,2.547,3.286c1.214,0,2.099-0.172,2.429-0.25v-3.432h1.386v4.777H21.062z"/>
	<path fill="#666666" d="M23.86,43.691v-0.897l0.687-0.132c0.158-0.04,0.185-0.146,0.185-0.238v-6.256
		c0-0.092-0.026-0.197-0.185-0.237l-0.687-0.132V34.9h7.088v1.176h-4.844v2.533h4.686v1.148h-4.686v2.759h4.844v1.175H23.86z"/>
	<path fill="#666666" d="M41.599,35.931c-0.159,0.04-0.185,0.146-0.185,0.237v7.523h-2.719l-3.538-7.523
		c-0.079-0.185-0.132-0.25-0.303-0.25c-0.251,0-0.277,0.131-0.277,0.355v6.15c0,0.093,0.026,0.198,0.185,0.238l0.673,0.132v0.897
		h-2.996v-0.897l0.687-0.132c0.158-0.04,0.185-0.146,0.185-0.238v-6.256c0-0.092-0.026-0.197-0.185-0.237l-0.687-0.132V34.9h3.617
		l3.511,7.418c0.079,0.172,0.145,0.251,0.304,0.251c0.25,0,0.277-0.158,0.277-0.37v-6.031c0-0.092-0.026-0.197-0.185-0.237
		l-0.687-0.132V34.9h3.009v0.898L41.599,35.931z"/>
	<path fill="#666666" d="M47.855,36.089v6.335c0,0.093,0.026,0.198,0.185,0.238l0.686,0.132v0.897h-3.115v-0.897l0.687-0.132
		c0.158-0.04,0.185-0.146,0.185-0.238v-6.335h-3.287V34.9h7.946v1.188H47.855z"/>
	<path fill="#666666" d="M60.698,35.931c-0.158,0.04-0.185,0.146-0.185,0.237v6.256c0,0.093,0.026,0.198,0.185,0.238l0.673,0.132
		v0.897h-2.072l-0.092-0.555c-0.026-0.105-0.053-0.29-0.304-0.29c-0.145,0-0.237,0.079-0.356,0.158l-1.095,0.713
		c0,0-0.726,0.065-1.096,0.065c-2.745,0-3.379-0.738-3.379-3.167v-4.448c0-0.092-0.026-0.197-0.185-0.237l-0.687-0.132V34.9h3.102
		v0.898l-0.673,0.132c-0.158,0.04-0.185,0.146-0.185,0.237v4.276c0,1.835,0.304,2.178,2.125,2.178c1.505,0,2.667-0.304,2.667-0.304
		v-6.15c0-0.092-0.026-0.197-0.185-0.237l-0.686-0.132V34.9h3.102v0.898L60.698,35.931z"/>
	<path fill="#666666" d="M65.291,42.424c0,0.093,0.026,0.198,0.185,0.238l0.673,0.132v0.897h-3.102v-0.897l0.687-0.132
		c0.158-0.04,0.185-0.146,0.185-0.238v-6.256c0-0.092-0.026-0.197-0.185-0.237l-0.687-0.132V34.9h5.333
		c2.032,0,2.719,0.647,2.719,2.469c0,0.752-0.185,1.32-0.554,1.729c-0.343,0.383-0.858,0.555-1.359,0.607
		c-0.185,0.027-0.343,0.053-0.343,0.264c0,0.105,0.053,0.172,0.119,0.265l1.425,2.099c0.159,0.237,0.317,0.277,0.607,0.344
		l0.515,0.118v0.897h-1.94l-1.649-2.481v-1.359h-2.627V42.424z M69.422,36.379c-0.211-0.197-0.62-0.316-1.504-0.316h-2.627v2.64
		h2.627c0.884,0,1.293-0.132,1.504-0.317c0.238-0.236,0.251-0.58,0.251-1.002C69.673,36.973,69.66,36.617,69.422,36.379z"/>
	<path fill="#666666" d="M78.199,36.076v2.6h4.409v1.175h-4.409v2.573c0,0.093,0.026,0.198,0.185,0.238l0.673,0.132v0.897h-3.102
		v-0.897l0.687-0.132c0.158-0.04,0.185-0.146,0.185-0.238v-6.256c0-0.092-0.026-0.197-0.185-0.237l-0.687-0.132V34.9h6.811v1.176
		H78.199z"/>
	<path fill="#666666" d="M92.56,35.931c-0.158,0.04-0.185,0.146-0.185,0.237v6.256c0,0.093,0.026,0.198,0.185,0.238l0.673,0.132
		v0.897h-2.072l-0.092-0.555c-0.026-0.105-0.053-0.29-0.304-0.29c-0.145,0-0.237,0.079-0.356,0.158l-1.095,0.713
		c0,0-0.726,0.065-1.096,0.065c-2.745,0-3.379-0.738-3.379-3.167v-4.448c0-0.092-0.026-0.197-0.185-0.237l-0.687-0.132V34.9h3.102
		v0.898l-0.673,0.132c-0.159,0.04-0.185,0.146-0.185,0.237v4.276c0,1.835,0.304,2.178,2.125,2.178c1.505,0,2.667-0.304,2.667-0.304
		v-6.15c0-0.092-0.026-0.197-0.185-0.237l-0.686-0.132V34.9h3.102v0.898L92.56,35.931z M86.897,33.898V32.75h1.333v1.148H86.897z
		 M89.141,33.898V32.75h1.333v1.148H89.141z"/>
	<path fill="#666666" d="M97.153,42.424c0,0.093,0.026,0.198,0.185,0.238l0.673,0.132v0.897h-3.102v-0.897l0.687-0.132
		c0.158-0.04,0.185-0.146,0.185-0.238v-6.256c0-0.092-0.026-0.197-0.185-0.237l-0.687-0.132V34.9h5.333
		c2.032,0,2.719,0.647,2.719,2.469c0,0.752-0.185,1.32-0.554,1.729c-0.343,0.383-0.858,0.555-1.359,0.607
		c-0.185,0.027-0.343,0.053-0.343,0.264c0,0.105,0.053,0.172,0.119,0.265l1.425,2.099c0.159,0.237,0.317,0.277,0.607,0.344
		l0.515,0.118v0.897h-1.94L99.78,41.21v-1.359h-2.627V42.424z M101.284,36.379c-0.211-0.197-0.62-0.316-1.504-0.316h-2.627v2.64
		h2.627c0.884,0,1.293-0.132,1.504-0.317c0.238-0.236,0.251-0.58,0.251-1.002C101.535,36.973,101.522,36.617,101.284,36.379z"/>
	<path fill="#666666" d="M119.05,35.799l-0.687,0.132c-0.158,0.04-0.185,0.146-0.185,0.237v6.256c0,0.093,0.026,0.198,0.185,0.238
		l0.687,0.132v0.897h-3.115v-0.897l0.687-0.132c0.158-0.04,0.185-0.146,0.185-0.238v-6.15c0-0.211-0.04-0.355-0.277-0.355
		c-0.211,0-0.264,0.145-0.343,0.303l-1.94,4.514h-1.729l-1.993-4.566c-0.066-0.132-0.132-0.25-0.303-0.25
		c-0.251,0-0.277,0.145-0.277,0.355v6.15c0,0.093,0.026,0.198,0.185,0.238l0.673,0.132v0.897h-2.983v-0.897l0.687-0.132
		c0.158-0.04,0.185-0.146,0.185-0.238v-6.256c0-0.092-0.026-0.197-0.185-0.237l-0.687-0.132V34.9h3.59l1.861,4.527
		c0.026,0.04,0.053,0.093,0.132,0.093c0.066,0,0.105-0.053,0.119-0.093l1.834-4.527h3.696V35.799z"/>
	<path fill="#666666" d="M120.739,43.691v-0.897l0.687-0.132c0.158-0.04,0.185-0.146,0.185-0.238v-6.256
		c0-0.092-0.026-0.197-0.185-0.237l-0.687-0.132V34.9h7.088v1.176h-4.844v2.533h4.686v1.148h-4.686v2.759h4.844v1.175H120.739z"/>
	<path fill="#666666" d="M134.308,43.691h-4.989v-0.897l0.687-0.132c0.158-0.04,0.185-0.146,0.185-0.238v-6.256
		c0-0.092-0.026-0.197-0.185-0.237l-0.687-0.132V34.9h4.989c3.537,0,3.788,1.822,3.788,4.383S137.845,43.691,134.308,43.691z
		 M134.281,36.062h-2.719v6.467h2.719c2.375,0,2.402-1.267,2.402-3.232C136.683,37.316,136.657,36.062,134.281,36.062z"/>
	<path fill="#666666" d="M139.732,43.691v-0.897l0.687-0.132c0.158-0.04,0.185-0.146,0.185-0.238v-6.256
		c0-0.092-0.026-0.197-0.185-0.237l-0.687-0.132V34.9h3.102v0.898l-0.673,0.132c-0.159,0.04-0.185,0.146-0.185,0.237v6.256
		c0,0.093,0.026,0.198,0.185,0.238l0.673,0.132v0.897H139.732z"/>
	<path fill="#666666" d="M144.523,43.691v-0.897l0.687-0.132c0.158-0.04,0.185-0.146,0.185-0.238v-6.256
		c0-0.092-0.026-0.197-0.185-0.237l-0.687-0.132V34.9h7.088v1.176h-4.844v2.533h4.686v1.148h-4.686v2.759h4.844v1.175H144.523z"/>
	<path fill="#666666" d="M162.263,35.931c-0.159,0.04-0.185,0.146-0.185,0.237v7.523h-2.719l-3.538-7.523
		c-0.079-0.185-0.132-0.25-0.303-0.25c-0.251,0-0.277,0.131-0.277,0.355v6.15c0,0.093,0.026,0.198,0.185,0.238l0.673,0.132v0.897
		h-2.996v-0.897l0.687-0.132c0.158-0.04,0.185-0.146,0.185-0.238v-6.256c0-0.092-0.026-0.197-0.185-0.237l-0.687-0.132V34.9h3.617
		l3.511,7.418c0.079,0.172,0.145,0.251,0.304,0.251c0.25,0,0.277-0.158,0.277-0.37v-6.031c0-0.092-0.026-0.197-0.185-0.237
		l-0.687-0.132V34.9h3.009v0.898L162.263,35.931z"/>
	<path fill="#666666" d="M172.875,35.799l-0.674,0.185c-0.211,0.053-0.329,0.105-0.475,0.251l-3.062,2.996l3.313,3.102
		c0.277,0.264,0.304,0.29,0.633,0.356l0.476,0.093v0.91h-3.26v-0.897l0.383-0.065c0.132-0.027,0.25-0.053,0.25-0.212
		c0-0.079-0.053-0.146-0.105-0.185l-2.468-2.311c-0.172-0.145-0.343-0.316-0.581-0.316c-0.33,0-0.422,0.186-0.422,0.488v2.23
		c0,0.093,0.026,0.198,0.185,0.238l0.673,0.132v0.897h-3.102v-0.897l0.687-0.132c0.158-0.04,0.185-0.146,0.185-0.238v-6.256
		c0-0.092-0.026-0.197-0.185-0.237l-0.687-0.132V34.9h3.102v0.898l-0.673,0.132c-0.159,0.04-0.185,0.146-0.185,0.237v2.217
		c0,0.305,0.093,0.489,0.422,0.489c0.238,0,0.422-0.159,0.581-0.317l2.376-2.35c0.053-0.053,0.079-0.092,0.079-0.171
		c0-0.132-0.093-0.172-0.212-0.185l-0.369-0.053V34.9h3.115V35.799z"/>
	<path fill="#666666" d="M178.049,43.783c-3.512,0-3.907-0.963-3.907-4.474c0-3.774,0.541-4.501,3.894-4.501
		c3.524,0,3.881,0.95,3.881,4.501C181.916,42.859,181.546,43.783,178.049,43.783z M178.035,35.957c-2.23,0-2.481,0.33-2.481,3.353
		c0,2.864,0.185,3.312,2.495,3.312c2.362,0,2.454-0.476,2.454-3.312C180.503,36.551,180.477,35.957,178.035,35.957z"/>
	<path fill="#666666" d="M194.785,35.799l-0.687,0.132c-0.158,0.04-0.185,0.146-0.185,0.237v6.256c0,0.093,0.026,0.198,0.185,0.238
		l0.687,0.132v0.897h-3.115v-0.897l0.687-0.132c0.158-0.04,0.185-0.146,0.185-0.238v-6.15c0-0.211-0.039-0.355-0.277-0.355
		c-0.211,0-0.264,0.145-0.343,0.303l-1.94,4.514h-1.729l-1.993-4.566c-0.066-0.132-0.132-0.25-0.304-0.25
		c-0.251,0-0.277,0.145-0.277,0.355v6.15c0,0.093,0.026,0.198,0.185,0.238l0.674,0.132v0.897h-2.983v-0.897l0.687-0.132
		c0.158-0.04,0.185-0.146,0.185-0.238v-6.256c0-0.092-0.026-0.197-0.185-0.237l-0.687-0.132V34.9h3.59l1.861,4.527
		c0.026,0.04,0.053,0.093,0.132,0.093c0.066,0,0.105-0.053,0.119-0.093l1.834-4.527h3.696V35.799z"/>
	<path fill="#666666" d="M207.707,35.799l-0.687,0.132c-0.158,0.04-0.185,0.146-0.185,0.237v6.256c0,0.093,0.026,0.198,0.185,0.238
		l0.687,0.132v0.897h-3.115v-0.897l0.687-0.132c0.158-0.04,0.185-0.146,0.185-0.238v-6.15c0-0.211-0.039-0.355-0.277-0.355
		c-0.211,0-0.264,0.145-0.343,0.303l-1.94,4.514h-1.729l-1.993-4.566c-0.066-0.132-0.132-0.25-0.304-0.25
		c-0.251,0-0.277,0.145-0.277,0.355v6.15c0,0.093,0.026,0.198,0.185,0.238l0.674,0.132v0.897h-2.983v-0.897l0.687-0.132
		c0.158-0.04,0.185-0.146,0.185-0.238v-6.256c0-0.092-0.026-0.197-0.185-0.237l-0.687-0.132V34.9h3.59l1.861,4.527
		c0.026,0.04,0.053,0.093,0.132,0.093c0.066,0,0.105-0.053,0.119-0.093l1.834-4.527h3.696V35.799z"/>
	<path fill="#666666" d="M218.042,35.931c-0.158,0.04-0.185,0.146-0.185,0.237v6.256c0,0.093,0.026,0.198,0.185,0.238l0.673,0.132
		v0.897h-2.072l-0.093-0.555c-0.026-0.105-0.053-0.29-0.303-0.29c-0.146,0-0.238,0.079-0.356,0.158l-1.096,0.713
		c0,0-0.726,0.065-1.096,0.065c-2.745,0-3.379-0.738-3.379-3.167v-4.448c0-0.092-0.026-0.197-0.185-0.237l-0.687-0.132V34.9h3.102
		v0.898l-0.673,0.132c-0.158,0.04-0.185,0.146-0.185,0.237v4.276c0,1.835,0.304,2.178,2.125,2.178c1.505,0,2.666-0.304,2.666-0.304
		v-6.15c0-0.092-0.026-0.197-0.185-0.237l-0.687-0.132V34.9h3.102v0.898L218.042,35.931z"/>
	<path fill="#666666" d="M229.551,35.931c-0.158,0.04-0.185,0.146-0.185,0.237v7.523h-2.72l-3.537-7.523
		c-0.079-0.185-0.132-0.25-0.304-0.25c-0.25,0-0.276,0.131-0.276,0.355v6.15c0,0.093,0.026,0.198,0.185,0.238l0.673,0.132v0.897
		h-2.996v-0.897l0.687-0.132c0.158-0.04,0.185-0.146,0.185-0.238v-6.256c0-0.092-0.026-0.197-0.185-0.237l-0.687-0.132V34.9h3.616
		l3.511,7.418c0.08,0.172,0.146,0.251,0.304,0.251c0.251,0,0.277-0.158,0.277-0.37v-6.031c0-0.092-0.026-0.197-0.185-0.237
		l-0.687-0.132V34.9h3.01v0.898L229.551,35.931z"/>
	<path fill="#666666" d="M231.927,43.691v-0.897l0.687-0.132c0.158-0.04,0.185-0.146,0.185-0.238v-6.256
		c0-0.092-0.026-0.197-0.185-0.237l-0.687-0.132V34.9h3.102v0.898l-0.673,0.132c-0.158,0.04-0.185,0.146-0.185,0.237v6.256
		c0,0.093,0.026,0.198,0.185,0.238l0.673,0.132v0.897H231.927z"/>
	<path fill="#666666" d="M244.954,35.799l-0.674,0.185c-0.211,0.053-0.329,0.105-0.475,0.251l-3.062,2.996l3.313,3.102
		c0.277,0.264,0.304,0.29,0.633,0.356l0.476,0.093v0.91h-3.26v-0.897l0.383-0.065c0.132-0.027,0.25-0.053,0.25-0.212
		c0-0.079-0.053-0.146-0.105-0.185l-2.468-2.311c-0.172-0.145-0.344-0.316-0.581-0.316c-0.33,0-0.422,0.186-0.422,0.488v2.23
		c0,0.093,0.026,0.198,0.185,0.238l0.673,0.132v0.897h-3.102v-0.897l0.687-0.132c0.158-0.04,0.185-0.146,0.185-0.238v-6.256
		c0-0.092-0.026-0.197-0.185-0.237l-0.687-0.132V34.9h3.102v0.898l-0.673,0.132c-0.158,0.04-0.185,0.146-0.185,0.237v2.217
		c0,0.305,0.092,0.489,0.422,0.489c0.237,0,0.423-0.159,0.581-0.317l2.376-2.35c0.053-0.053,0.079-0.092,0.079-0.171
		c0-0.132-0.093-0.172-0.211-0.185l-0.37-0.053V34.9h3.115V35.799z"/>
	<path fill="#666666" d="M252.609,42.794l0.475-0.105c0.119-0.026,0.211-0.04,0.211-0.159c0-0.065-0.013-0.105-0.053-0.211
		l-0.448-1.161h-4.58l-0.476,1.188c-0.039,0.092-0.053,0.131-0.053,0.184c0,0.119,0.093,0.146,0.225,0.172l0.462,0.093v0.897h-2.943
		v-0.897l0.607-0.132c0.197-0.04,0.264-0.133,0.33-0.304l2.626-6.124c0.066-0.158,0.026-0.277-0.145-0.304l-0.7-0.119V34.9h3.537
		l2.97,7.458c0.106,0.237,0.186,0.264,0.423,0.317l0.555,0.118v0.897h-3.022V42.794z M250.84,36.194
		c-0.079-0.198-0.118-0.304-0.316-0.304s-0.237,0.105-0.316,0.304l-1.558,3.88h3.722L250.84,36.194z"/>
	<path fill="#666666" d="M260.357,36.089v6.335c0,0.093,0.026,0.198,0.185,0.238l0.687,0.132v0.897h-3.115v-0.897l0.687-0.132
		c0.158-0.04,0.185-0.146,0.185-0.238v-6.335h-3.286V34.9h7.945v1.188H260.357z"/>
	<path fill="#666666" d="M264.555,43.691v-0.897l0.687-0.132c0.158-0.04,0.185-0.146,0.185-0.238v-6.256
		c0-0.092-0.026-0.197-0.185-0.237l-0.687-0.132V34.9h3.102v0.898l-0.673,0.132c-0.158,0.04-0.185,0.146-0.185,0.237v6.256
		c0,0.093,0.026,0.198,0.185,0.238l0.673,0.132v0.897H264.555z"/>
	<path fill="#666666" d="M273.2,43.783c-3.512,0-3.907-0.963-3.907-4.474c0-3.774,0.541-4.501,3.894-4.501
		c3.524,0,3.881,0.95,3.881,4.501C277.067,42.859,276.697,43.783,273.2,43.783z M273.187,35.957c-2.23,0-2.481,0.33-2.481,3.353
		c0,2.864,0.185,3.312,2.495,3.312c2.362,0,2.454-0.476,2.454-3.312C275.654,36.551,275.628,35.957,273.187,35.957z"/>
	<path fill="#666666" d="M287.863,35.931c-0.158,0.04-0.185,0.146-0.185,0.237v7.523h-2.72l-3.537-7.523
		c-0.079-0.185-0.132-0.25-0.304-0.25c-0.25,0-0.276,0.131-0.276,0.355v6.15c0,0.093,0.026,0.198,0.185,0.238l0.673,0.132v0.897
		h-2.996v-0.897l0.687-0.132c0.158-0.04,0.185-0.146,0.185-0.238v-6.256c0-0.092-0.026-0.197-0.185-0.237l-0.687-0.132V34.9h3.616
		l3.511,7.418c0.08,0.172,0.146,0.251,0.304,0.251c0.251,0,0.277-0.158,0.277-0.37v-6.031c0-0.092-0.026-0.197-0.185-0.237
		l-0.687-0.132V34.9h3.01v0.898L287.863,35.931z"/>
</g>
</svg>
