<?xml version="1.0" encoding="utf-8"?>
<!-- Generator: Adobe Illustrator 16.0.0, SVG Export Plug-In . SVG Version: 6.00 Build 0)  -->
<!DOCTYPE svg PUBLIC "-//W3C//DTD SVG 1.1//EN" "http://www.w3.org/Graphics/SVG/1.1/DTD/svg11.dtd">
<svg version="1.1" id="Ebene_1" xmlns="http://www.w3.org/2000/svg" xmlns:xlink="http://www.w3.org/1999/xlink" x="0px" y="0px"
	 width="612.959px" height="158.444px" viewBox="114.79 207.382 612.959 158.444"
	 enable-background="new 114.79 207.382 612.959 158.444" xml:space="preserve">
<g>
	<path fill="#FFFFFF" d="M245.598,353.953c0-3.625,1.394-4.74,5.296-4.74h4.321c3.903,0,5.296,1.115,5.296,4.74v3.344
		c0,3.207-1.394,4.182-4.321,4.182h-6.272c-2.927,0-4.321-1.114-4.321-4.182L245.598,353.953L245.598,353.953z M249.222,356.601
		c0,1.255,0.418,1.812,2.091,1.812h3.484c1.673,0,2.091-0.557,2.091-1.812v-2.647c0-1.256-0.418-1.813-2.091-1.813h-3.484
		c-1.673,0-2.091,0.558-2.091,1.813V356.601z M262.603,353.953c0-3.625,1.394-4.74,5.297-4.74h3.903c3.484,0,4.46,1.256,4.46,2.789
		v0.975h-3.206c0-0.836-0.558-1.114-1.812-1.114h-3.206c-1.254,0-1.812,0.559-1.812,1.395v1.394
		c0.558-0.558,1.254-0.976,2.788-0.976h3.485c3.624,0,4.182,1.254,4.182,3.347v1.114c0,2.927-1.394,3.345-4.321,3.345h-5.296
		c-2.927,0-4.321-1.115-4.321-4.183v-3.344L262.603,353.953L262.603,353.953z M271.384,358.97c1.394,0,1.812-0.278,1.812-1.395
		c0-0.976-0.418-1.254-1.951-1.254h-3.206c-1.533,0-1.951,0.278-1.951,1.254c0,0.977,0.418,1.395,1.812,1.395H271.384
		L271.384,358.97z M280.305,357.994h3.484v3.346h-3.484V357.994z M298.982,349.212h2.509l-5.575,12.406h-2.509L298.982,349.212z
		 M309.576,353.953c0-3.625,1.394-4.74,5.296-4.74h4.321c3.903,0,5.296,1.115,5.296,4.74v3.344c0,3.207-1.394,4.182-4.321,4.182
		h-6.272c-2.927,0-4.321-1.114-4.321-4.182L309.576,353.953L309.576,353.953z M313.2,356.601c0,1.255,0.418,1.812,2.091,1.812h3.484
		c1.673,0,2.091-0.557,2.091-1.812v-2.647c0-1.256-0.418-1.813-2.091-1.813h-3.484c-1.673,0-2.091,0.558-2.091,1.813V356.601z
		 M326.72,349.353h13.938v2.648l-7.667,9.338h-4.321l7.527-9.061h-9.339v-2.927L326.72,349.353L326.72,349.353z M344.283,357.994
		h3.485v3.346h-3.485V357.994z M358.779,356.183h3.624v1.113c0,0.838,0.418,1.256,1.673,1.256h1.533
		c1.254,0,1.951-0.141,1.951-1.256v-7.942h3.764v8.223c0,3.346-1.813,4.043-5.158,4.043h-2.369c-3.485,0-4.739-1.115-4.739-3.902
		v-1.533L358.779,356.183L358.779,356.183z M384.983,361.339h-3.206v-1.395c-0.558,1.256-1.672,1.532-3.345,1.532
		c-1.951,0-4.739-0.139-4.739-3.762v-4.879h3.206v4.879c0,0.836,0.697,1.254,2.091,1.254h0.697c1.394,0,2.23-0.696,2.23-1.813v-4.32
		h3.206v8.502L384.983,361.339L384.983,361.339z M387.213,352.837h3.206v1.394c0.558-1.255,1.672-1.533,3.345-1.533
		c1.951,0,4.739,0.141,4.739,3.764v4.879h-3.206v-4.879c0-0.836-0.697-1.254-2.091-1.254h-0.697c-1.394,0-2.23,0.697-2.23,1.813
		v4.32h-3.206v-8.502L387.213,352.837L387.213,352.837z M404.219,351.861h-3.206v-2.509h3.206V351.861z M404.219,361.339h-3.206
		v-8.502h3.206V361.339z M415.091,355.625h4.739v3.066h-4.739V355.625z M430.703,349.353h5.715l4.182,7.806l4.182-7.806h5.715
		v12.125h-3.623v-8.641l-4.879,8.641h-2.787l-4.879-8.641v8.641h-3.623v-12.125H430.703z M464.294,361.339h-3.207v-1.395
		c-0.557,1.256-1.672,1.532-3.346,1.532c-1.951,0-4.738-0.139-4.738-3.762v-4.879h3.205v4.879c0,0.836,0.697,1.254,2.092,1.254
		h0.697c1.393,0,2.229-0.696,2.229-1.813v-4.32h3.205v8.502L464.294,361.339L464.294,361.339z M466.525,352.837h3.205v1.394
		c0.557-1.255,1.672-1.533,3.346-1.533c1.951,0,4.738,0.141,4.738,3.764v4.879h-3.205v-4.879c0-0.836-0.697-1.254-2.092-1.254
		h-0.697c-1.393,0-2.229,0.697-2.229,1.813v4.32h-3.207v-8.502L466.525,352.837L466.525,352.837z M483.529,351.861h-3.205v-2.509
		h3.205V351.861z M483.529,361.339h-3.205v-8.502h3.205V361.339z M485.48,356.74c0-3.205,1.674-3.902,3.902-3.902h3.625
		c2.369,0,3.764,0.836,3.764,2.787v0.836h-3.066c0-0.836-0.418-1.254-1.813-1.254h-1.254c-1.395,0-1.951,0.418-1.951,1.254v1.115
		c0,1.115,0.695,1.395,1.672,1.395h1.672c0.838,0,1.674-0.141,1.674-0.977v-0.14h3.066v0.697c0,2.23-1.951,2.926-3.764,2.926h-3.346
		c-2.09,0-4.32-0.418-4.32-4.041v-0.696H485.48L485.48,356.74z M498.722,349.353h3.205v5.019c0.559-1.256,1.674-1.533,3.346-1.533
		c1.951,0,4.74,0.139,4.74,3.764v4.878h-3.207v-5.019c0-0.836-0.697-1.254-2.09-1.254h-0.697c-1.395,0-2.23,0.697-2.23,1.813v4.32
		h-3.205v-11.985h0.139V349.353z M520.884,355.625h4.738v3.066h-4.738V355.625z M539.144,356.183h1.533l0.279-1.674h-1.256v-1.951
		h1.533l0.418-3.204h2.092l-0.418,3.204h1.115l0.418-3.204h2.09l-0.418,3.204h1.256v1.951h-1.533l-0.279,1.674h1.254v1.951h-1.533
		l-0.418,3.205h-2.092l0.42-3.205h-1.115l-0.418,3.205h-2.092l0.418-3.205h-1.254V356.183z M542.767,356.183h1.115l0.279-1.674
		h-1.115L542.767,356.183z M552.664,356.042c0-2.648,1.395-3.346,3.904-3.346h1.811c1.674,0,1.951,0.141,2.789,1.256v-1.115h3.066
		v7.945c0,1.811-0.559,3.483-4.6,3.483h-3.486c-2.09,0-3.344-0.559-3.344-2.647h3.344c0,0.418,0.279,0.697,0.838,0.697h2.369
		c1.395,0,2.09-0.421,2.09-1.953v-0.558c-0.695,0.697-1.115,0.836-2.926,0.836h-1.674c-3.066,0-4.041-1.254-4.041-3.483v-1.115
		H552.664z M559.216,358.552c1.533,0,1.951-0.418,1.951-1.674c0-1.254-0.418-1.672-1.951-1.672h-1.533
		c-1.535,0-1.953,0.418-1.953,1.672c0,1.256,0.418,1.674,1.953,1.674H559.216z M566.044,356.74c0-3.205,1.674-3.902,3.904-3.902
		h3.623c2.369,0,3.764,0.836,3.764,2.787v0.836h-3.066c0-0.836-0.418-1.254-1.813-1.254h-1.254c-1.396,0-1.951,0.418-1.951,1.254
		v1.115c0,1.115,0.697,1.395,1.672,1.395h1.674c0.836,0,1.672-0.141,1.672-0.977v-0.14h3.066v0.697c0,2.23-1.951,2.926-3.764,2.926
		h-3.348c-2.09,0-4.318-0.418-4.318-4.041v-0.696H566.044L566.044,356.74z M579.148,352.837h3.066v1.672
		c0.139-1.254,1.254-1.813,2.787-1.813h1.254c1.533,0,2.51,0.696,3.207,1.951c0.557-1.533,1.254-1.951,3.066-1.951h0.975
		c2.928,0,4.043,1.395,4.043,3.903v4.738h-3.205v-4.6c0-1.115-0.279-1.533-2.23-1.533c-1.533,0-2.23,0.279-2.23,1.395v4.738h-3.205
		v-4.879c0-1.115-0.42-1.254-2.371-1.254c-1.393,0-2.09,0.279-2.09,1.672v4.461h-3.207v-8.502L579.148,352.837L579.148,352.837z
		 M610.927,361.339h-3.205v-1.395c-0.559,1.256-1.674,1.532-3.346,1.532c-1.951,0-4.738-0.139-4.738-3.762v-4.879h3.205v4.879
		c0,0.836,0.697,1.254,2.09,1.254h0.697c1.395,0,2.23-0.696,2.23-1.813v-4.32h3.205v8.502L610.927,361.339L610.927,361.339z
		 M612.74,356.74c0-3.205,1.672-3.902,3.902-3.902h3.625c2.369,0,3.762,0.836,3.762,2.787v0.836h-3.066
		c0-0.836-0.418-1.254-1.811-1.254h-1.256c-1.393,0-1.951,0.418-1.951,1.254v1.115c0,1.115,0.697,1.395,1.674,1.395h1.672
		c0.836,0,1.672-0.141,1.672-0.977v-0.14h3.068v0.697c0,2.23-1.953,2.926-3.764,2.926h-3.346c-2.092,0-4.32-0.418-4.32-4.041v-0.696
		H612.74L612.74,356.74z"/>
</g>
<g>
	<g>
		<g>
			<path fill="#FFFFFF" d="M288.22,243.152h-9.394v-7.961c0-2.806-1.087-4.238-3.263-4.238c-0.975,0-1.776,0.344-2.464,1.088
				c-0.687,0.688-1.031,1.604-1.031,2.691v43.415c0,1.032,0.285,1.834,0.917,2.521c0.628,0.687,1.374,0.972,2.349,0.972
				c1.031,0,1.833-0.344,2.461-0.972c0.631-0.687,0.975-1.547,0.975-2.578v-15.522h-3.265v-8.131h12.715v21.535
				c0,2.864-0.514,5.325-1.544,7.388c-1.034,2.063-2.578,3.607-4.584,4.697c-2.003,1.087-4.411,1.604-7.215,1.604
				c-2.522,0-4.698-0.573-6.587-1.718c-1.891-1.146-3.324-2.863-4.296-5.041c-0.975-2.233-1.489-4.812-1.489-7.848v-36.312
				c0-3.322,0.514-6.128,1.544-8.535c1.031-2.348,2.52-4.18,4.525-5.383c2.005-1.204,4.411-1.833,7.159-1.833
				c1.947,0,3.724,0.285,5.212,0.858c1.547,0.572,2.807,1.375,3.894,2.406c1.089,1.031,1.891,2.348,2.464,3.836
				c0.573,1.548,0.86,3.266,0.86,5.271v7.788h0.057V243.152z"/>
			<path fill="#FFFFFF" d="M302.025,222.993h8.305l9.966,66.151h-9.338l-0.917-8.59h-7.902l-0.916,8.59h-9.394L302.025,222.993z
				 M306.033,244.872l-3.036,27.722h6.128l-2.922-27.722H306.033z"/>
			<path fill="#FFFFFF" d="M325.564,223.565h5.956l7.963,34.193h0.17l8.707-34.193h5.899l2.978,65.579h-9.05l-0.458-36.827h-0.17
				l-6.701,29.612h-2.235l-6.528-29.039h-0.173l-0.572,36.313h-8.821L325.564,223.565z"/>
			<path fill="#FFFFFF" d="M360.961,223.68h20.617v8.304h-11.109v19.588h10.536v8.132h-10.536v21.308h11.511v8.131h-21.02
				L360.961,223.68L360.961,223.68z"/>
			<path fill="#FFFFFF" d="M412.106,243.038h-9.564v-4.925v-0.172v-0.4c0.059-0.288,0.059-0.631,0.059-1.146
				c0-3.437-1.031-5.155-3.095-5.155c-1.374,0-2.405,0.458-3.033,1.374c-0.631,0.917-0.975,2.348-0.975,4.354v40.035
				c0,1.317,0.344,2.462,1.031,3.322c0.688,0.917,1.547,1.316,2.578,1.316c1.031,0,1.833-0.344,2.464-1.087
				c0.628-0.746,0.972-1.662,0.972-2.807v-9.908h9.564v8.304c0,2.004-0.285,3.894-0.916,5.556c-0.573,1.661-1.489,3.092-2.69,4.296
				c-1.204,1.201-2.578,2.118-4.24,2.749c-1.659,0.629-3.436,0.972-5.383,0.972c-2.52,0-4.81-0.572-6.701-1.773
				c-1.947-1.204-3.436-2.863-4.525-5.041c-1.089-2.178-1.604-4.754-1.604-7.675v-36.714c0-3.208,0.514-6.014,1.604-8.306
				c1.031-2.291,2.578-4.066,4.581-5.326c2.005-1.202,4.354-1.833,7.103-1.833c2.52,0,4.696,0.517,6.643,1.603
				c1.95,1.089,3.438,2.579,4.525,4.525c1.031,1.948,1.603,4.239,1.603,6.874L412.106,243.038L412.106,243.038z"/>
			<path fill="#FFFFFF" d="M425.851,222.993h8.309l9.963,66.151h-9.334l-0.916-8.59h-7.906l-0.916,8.59h-9.449L425.851,222.993z
				 M429.863,244.872l-3.035,27.722h6.129l-2.922-27.722H429.863z"/>
			<path fill="#FFFFFF" d="M449.394,223.565h5.955l7.961,34.193h0.174l8.707-34.193h5.898l2.979,65.579h-9.051l-0.459-36.827h-0.174
				l-6.699,29.612h-2.232l-6.529-29.039h-0.172l-0.572,36.313h-8.82L449.394,223.565z"/>
			<path fill="#FFFFFF" d="M485.478,223.565h11.568c2.863,0,5.324,0.573,7.389,1.718c2.063,1.146,3.607,2.807,4.695,5.04
				c1.09,2.234,1.605,4.869,1.605,7.905v18.098c0,2.636-0.459,4.927-1.432,6.875c-0.975,1.947-2.35,3.436-4.238,4.466
				c-1.891,1.031-4.068,1.547-6.529,1.547h-3.668v19.931h-9.449v-65.579L485.478,223.565L485.478,223.565z M494.927,232.042v29.097
				h2.119c2.805,0,4.18-1.776,4.18-5.271v-18.899c0-1.833-0.344-3.094-1.029-3.838c-0.689-0.745-1.891-1.088-3.553-1.088
				L494.927,232.042L494.927,232.042z"/>
		</g>
		<g>
			<path fill="#FFFFFF" d="M262.734,299.169h4.179l5.615,23.94h0.114l6.128-23.94h4.123l2.062,45.877h-6.299l-0.344-25.773h-0.114
				l-4.699,20.731h-1.544l-4.584-20.333h-0.114l-0.399,25.375h-6.188L262.734,299.169z"/>
			<path fill="#FFFFFF" d="M287.821,299.225h6.587v37.458c0,1.892,0.743,2.809,2.176,2.809c0.857,0,1.43-0.288,1.833-0.802
				c0.399-0.518,0.573-1.489,0.573-2.749v-36.716h6.701v35.74c0,2.063-0.344,3.895-1.089,5.497
				c-0.743,1.548-1.774,2.751-3.092,3.609c-1.316,0.858-2.863,1.26-4.581,1.26c-1.833,0-3.38-0.4-4.754-1.146
				c-1.374-0.743-2.405-1.834-3.207-3.264c-0.746-1.433-1.146-3.036-1.146-4.869v-36.828H287.821z"/>
			<path fill="#FFFFFF" d="M309.07,299.169h4.296c1.774,5.153,3.148,9.276,4.123,12.371c0.514,1.545,0.972,2.978,1.374,4.41
				c0.458,1.375,0.86,2.749,1.204,4.009l1.086,3.952h0.115v-24.742h6.128v45.877h-4.411c-1.315-3.665-2.69-7.791-4.123-12.314
				c-0.687-2.232-1.26-3.95-1.603-5.1c-0.344-1.145-0.688-2.23-0.975-3.146l-1.031-3.782h-0.114v24.344h-6.128V299.17
				L309.07,299.169L309.07,299.169z"/>
			<path fill="#FFFFFF" d="M331.234,299.169h6.646v45.877h-6.646V299.169z"/>
			<path fill="#FFFFFF" d="M359.815,312.8h-6.701v-3.436v-0.174v-0.287c0.056-0.171,0.056-0.458,0.056-0.803
				c0-2.404-0.743-3.605-2.176-3.605c-0.975,0-1.662,0.344-2.12,0.973c-0.458,0.631-0.687,1.662-0.687,3.036v28.008
				c0,0.917,0.229,1.72,0.746,2.348c0.458,0.632,1.087,0.916,1.833,0.916c0.688,0,1.26-0.284,1.718-0.803
				c0.458-0.514,0.688-1.145,0.688-1.945v-6.932h6.701v5.785c0,1.434-0.229,2.692-0.629,3.895c-0.402,1.146-1.031,2.179-1.891,3.036
				c-0.86,0.859-1.833,1.488-2.978,1.946s-2.405,0.688-3.782,0.688c-1.774,0-3.321-0.399-4.696-1.261
				c-1.375-0.856-2.405-2.003-3.151-3.551c-0.743-1.547-1.145-3.321-1.145-5.326V309.65c0-2.235,0.343-4.183,1.089-5.785
				c0.743-1.604,1.776-2.863,3.207-3.725c1.375-0.856,3.036-1.26,4.983-1.26c1.718,0,3.321,0.402,4.64,1.146
				c1.374,0.744,2.405,1.832,3.151,3.149c0.743,1.374,1.086,2.979,1.086,4.812v4.813L359.815,312.8L359.815,312.8z"/>
			<path fill="#FFFFFF" d="M363.366,299.225h6.646v19.245h4.695v-19.245h6.643v45.821h-6.643v-20.62h-4.695v20.62h-6.646V299.225z"
				/>
			<path fill="#FFFFFF" d="M392.003,329.125h28.81v3.491h-28.81V329.125z"/>
			<path fill="#FFFFFF" d="M440.115,339.432h8.305v5.614h-16.494l9.279-26.405c0.629-1.718,1.086-3.266,1.314-4.694
				c0.23-1.375,0.344-3.036,0.344-4.925c0-1.95-0.17-3.211-0.514-3.952c-0.344-0.688-0.975-1.031-1.947-1.031
				c-0.859,0-1.434,0.399-1.721,1.146c-0.285,0.743-0.459,2.177-0.459,4.297v3.605h-5.898v-3.895c0-3.494,0.689-6.069,2.006-7.847
				c1.375-1.775,3.381-2.635,6.072-2.635c1.088,0,2.117,0.171,3.094,0.573c0.971,0.398,1.775,0.916,2.463,1.659
				c0.973,0.975,1.719,2.233,2.176,3.667c0.459,1.431,0.629,3.32,0.629,5.611c0,3.321-0.572,6.646-1.773,9.967L440.115,339.432z"/>
			<path fill="#FFFFFF" d="M452.029,336.398v-28.926c0-1.775,0.287-3.38,0.916-4.64c0.631-1.318,1.547-2.29,2.807-2.978
				s2.691-1.03,4.297-1.03c2.748,0,4.811,0.743,6.186,2.23c1.373,1.489,2.119,3.725,2.119,6.761v28.925
				c0,1.832-0.287,3.377-0.916,4.64c-0.633,1.26-1.549,2.231-2.752,2.919c-1.201,0.631-2.689,0.976-4.406,0.976
				c-2.578,0-4.584-0.688-6.016-2.12c-0.746-0.743-1.26-1.544-1.604-2.521C452.373,339.661,452.142,338.231,452.029,336.398z
				 M457.927,306.557v30.986c0,0.743,0.229,1.374,0.631,1.832c0.4,0.458,0.916,0.743,1.545,0.743c0.746,0,1.26-0.229,1.662-0.743
				c0.398-0.458,0.572-1.145,0.572-2.005v-30.758c0-0.743-0.174-1.374-0.572-1.889c-0.402-0.517-0.859-0.746-1.488-0.746
				c-0.688,0-1.203,0.229-1.662,0.746C458.158,305.183,457.927,305.811,457.927,306.557z"/>
			<path fill="#FFFFFF" d="M473.39,302.719l9.623-3.838h0.689v46.165h-5.957v-38.718l-4.354,1.603v-5.212H473.39z"/>
			<path fill="#FFFFFF" d="M507.873,309.993h-5.959V307.3c0-2.176-0.742-3.263-2.289-3.263c-1.432,0-2.178,0.973-2.178,2.863v9.967
				c0.803-0.802,1.549-1.375,2.234-1.662c0.688-0.288,1.488-0.458,2.348-0.458c1.834,0,3.266,0.572,4.297,1.718
				c1.029,1.146,1.547,2.808,1.547,4.925v15.063c0,2.808-0.688,4.982-2.121,6.473c-1.43,1.488-3.436,2.234-6.127,2.234
				c-2.635,0-4.641-0.802-6.016-2.405c-1.373-1.604-2.063-3.896-2.063-6.814v-27.725c0-1.946,0.344-3.665,0.977-5.095
				c0.629-1.434,1.545-2.522,2.805-3.324c1.203-0.743,2.637-1.146,4.297-1.146s3.15,0.344,4.41,1.03
				c1.26,0.688,2.232,1.662,2.861,2.922c0.689,1.261,1.031,2.748,1.031,4.467v2.922L507.873,309.993L507.873,309.993z
				 M497.447,323.569v13.571c0,0.86,0.174,1.489,0.572,1.947c0.402,0.458,0.916,0.745,1.662,0.745c0.688,0,1.262-0.229,1.66-0.688
				c0.402-0.458,0.572-1.09,0.572-1.892v-13.975c0-0.916-0.17-1.604-0.514-2.12c-0.346-0.458-0.861-0.743-1.605-0.743
				C498.25,320.473,497.447,321.504,497.447,323.569z"/>
		</g>
	</g>
	<path fill="#DAECF9" d="M721.566,274.482c-4.184-3.264-9.451-5.841-14.893-4.925c-4.695,0.916-7.846,3.266-11.227,6.472
		c-3.436,3.265-4.869,7.56-9.854,8.992c-3.834,1.145-8.074,0.517-11.625-1.26c-7.676-3.779-14.547-12.2-13.918-21.134
		c0.342-4.64,3.838-8.305,7.445-10.94c2.121-1.489,6.186-2.92,11.512-3.607c-6.871-9.566-17.182-9.222-29.324-8.191
		c-9.623,0.803-20.217,6.758-29.955,4.411c-10.822-2.577-7.389-13.688-0.801-19.016c7.676-6.243,18.041-7.218,27.605-6.472
		c-6.871-3.494-14.031-6.472-21.42-8.592c-15.18-4.295-28.066-3.493-38.662,0.916c-27.49,4.411-44.215,18.33-53.266,42.844
		l67.527,31.615l-68.617,33.85c8.25,23.024,26.691,35.685,50.518,39.35c10.713,6.413,23.887,8.877,39.465,5.556
		c-4.467-1.662-8.764-4.123-12.83-6.7c-2.863-1.833-6.016-3.953-7.045-6.357c0,0-0.287-0.115-0.287-1.434
		c0-1.315,0.287-1.719,0.287-1.719c5.152-8.877,17.525-4.754,24.568-1.487c7.906,3.664,16.842,9.335,25.947,7.79
		c9.166-1.549,14.26-12.431,17.012-20.392c-10.023,2.862-24.801,4.695-30.643-6.302c-4.354-8.19-4.012-23.824,5.842-27.95
		c10.881-4.525,18.842,5.386,26.861,9.967c6.986,4.009,21.189,12.086,26.805,1.832c4.354-8.017-0.516-17.011,3.609-24.913
		c5.154-9.852,16.838-7.562,25.545-6.302C725.804,278.377,723.855,276.258,721.566,274.482z M568.812,253.348
		c-4.584,0-8.305-3.724-8.305-8.305c0-4.582,3.721-8.304,8.305-8.304c4.582,0,8.307,3.722,8.307,8.304
		C577.119,249.624,573.394,253.348,568.812,253.348z"/>
	<circle fill="#DAECF9" cx="221.036" cy="286.683" r="5.212"/>
	<circle fill="#DAECF9" cx="172.181" cy="286.683" r="5.212"/>
	<circle fill="#DAECF9" cx="172.181" cy="286.683" r="5.212"/>
	<circle fill="#DAECF9" cx="120.002" cy="286.683" r="5.212"/>
</g>
</svg>
