<?xml version="1.0" encoding="utf-8"?>
<!-- Generator: Adobe Illustrator 16.0.0, SVG Export Plug-In . SVG Version: 6.00 Build 0)  -->
<!DOCTYPE svg PUBLIC "-//W3C//DTD SVG 1.1//EN" "http://www.w3.org/Graphics/SVG/1.1/DTD/svg11.dtd">
<svg version="1.1" id="Ebene_1" xmlns="http://www.w3.org/2000/svg" xmlns:xlink="http://www.w3.org/1999/xlink" x="0px" y="0px"
	 width="645.219px" height="116.188px" viewBox="0 0 645.219 116.188" enable-background="new 0 0 645.219 116.188"
	 xml:space="preserve">
<g>
	<g>
		<path fill="#E2E1E1" d="M218.025,26.231h-6.887v-5.838c0-2.058-0.799-3.108-2.395-3.108c-0.715,0-1.303,0.252-1.807,0.798
			c-0.504,0.504-0.756,1.176-0.756,1.974v31.836c0,0.756,0.211,1.344,0.672,1.848c0.463,0.504,1.008,0.714,1.723,0.714
			c0.756,0,1.344-0.252,1.807-0.714c0.461-0.504,0.713-1.134,0.713-1.89V40.47h-2.393v-5.964h9.324v15.792
			c0,2.1-0.379,3.906-1.135,5.418s-1.891,2.646-3.359,3.444c-1.471,0.797-3.234,1.176-5.293,1.176c-1.848,0-3.443-0.42-4.83-1.26
			s-2.436-2.1-3.15-3.696c-0.713-1.638-1.092-3.528-1.092-5.754V22.998c0-2.436,0.379-4.494,1.135-6.258
			c0.756-1.722,1.848-3.066,3.316-3.948c1.471-0.882,3.234-1.344,5.25-1.344c1.43,0,2.73,0.21,3.822,0.63
			c1.135,0.42,2.059,1.008,2.857,1.764c0.797,0.756,1.385,1.722,1.805,2.814c0.42,1.134,0.631,2.394,0.631,3.864v5.712H218.025z"/>
		<path fill="#E2E1E1" d="M228.148,11.447h6.09l7.309,48.511h-6.846l-0.672-6.3h-5.797l-0.672,6.3h-6.93L228.148,11.447z
			 M231.088,27.492l-2.225,20.329h4.494l-2.143-20.329H231.088z"/>
		<path fill="#E2E1E1" d="M245.41,11.867h4.369l5.838,25.075h0.127l6.383-25.075h4.326l2.184,48.091h-6.635l-0.336-27.006h-0.127
			l-4.914,21.714h-1.639l-4.787-21.294h-0.127l-0.42,26.629h-6.467L245.41,11.867z"/>
		<path fill="#E2E1E1" d="M271.326,11.951h15.119v6.09h-8.148v14.364h7.729v5.964h-7.729v15.624h8.443v5.964h-15.414V11.951
			L271.326,11.951z"/>
		<path fill="#E2E1E1" d="M308.875,26.147h-7.014v-3.612V22.41v-0.294c0.041-0.21,0.041-0.462,0.041-0.84
			c0-2.52-0.756-3.78-2.268-3.78c-1.008,0-1.764,0.336-2.227,1.008c-0.461,0.672-0.713,1.722-0.713,3.192v29.359
			c0,0.966,0.252,1.806,0.756,2.436c0.504,0.672,1.133,0.966,1.889,0.966s1.344-0.252,1.807-0.798s0.715-1.218,0.715-2.058v-7.266
			h7.014v6.09c0,1.47-0.211,2.856-0.672,4.074c-0.42,1.218-1.092,2.268-1.975,3.15c-0.883,0.882-1.891,1.553-3.107,2.017
			c-1.219,0.461-2.521,0.713-3.949,0.713c-1.848,0-3.527-0.42-4.914-1.301c-1.428-0.882-2.52-2.1-3.318-3.696
			c-0.797-1.596-1.176-3.486-1.176-5.628V22.83c0-2.352,0.379-4.41,1.176-6.09c0.758-1.68,1.891-2.982,3.361-3.906
			c1.469-0.882,3.191-1.344,5.207-1.344c1.85,0,3.445,0.378,4.873,1.176c1.428,0.798,2.52,1.89,3.318,3.318
			c0.756,1.428,1.176,3.108,1.176,5.04V26.147L308.875,26.147z"/>
		<path fill="#E2E1E1" d="M318.955,11.447h6.09l7.309,48.511h-6.846l-0.674-6.3h-5.795l-0.672,6.3h-6.93L318.955,11.447z
			 M321.895,27.492l-2.227,20.329h4.495l-2.141-20.329H321.895z"/>
		<path fill="#E2E1E1" d="M336.176,11.867h4.367l5.838,25.075h0.127l6.383-25.075h4.326l2.186,48.091h-6.637l-0.336-27.006h-0.127
			l-4.914,21.714h-1.637l-4.789-21.294h-0.125l-0.42,26.629h-6.469L336.176,11.867z"/>
		<path fill="#E2E1E1" d="M362.637,11.867h8.482c2.102,0,3.906,0.42,5.42,1.26c1.512,0.84,2.645,2.058,3.443,3.696
			c0.797,1.638,1.176,3.57,1.176,5.796v13.272c0,1.932-0.336,3.612-1.051,5.041c-0.713,1.428-1.721,2.52-3.107,3.276
			s-2.982,1.134-4.787,1.134h-2.689v14.616h-6.93V11.867H362.637z M369.608,18.083V39.42h1.555c2.059,0,3.066-1.302,3.066-3.864
			v-13.86c0-1.344-0.252-2.268-0.756-2.814s-1.387-0.798-2.605-0.798H369.608L369.608,18.083z"/>
	</g>
	<g>
		<path fill="#E2E1E1" d="M199.336,67.31h3.066l4.115,17.557h0.084l4.494-17.557h3.025l1.512,33.643h-4.621l-0.252-18.9h-0.084
			l-3.443,15.203h-1.135l-3.359-14.91h-0.084l-0.295,18.607h-4.535L199.336,67.31z"/>
		<path fill="#E2E1E1" d="M217.732,67.351h4.83v27.469c0,1.387,0.547,2.059,1.596,2.059c0.631,0,1.051-0.211,1.344-0.588
			c0.295-0.379,0.42-1.092,0.42-2.016V67.351h4.914V93.56c0,1.512-0.252,2.855-0.797,4.031c-0.547,1.135-1.303,2.018-2.268,2.646
			c-0.967,0.631-2.102,0.924-3.361,0.924c-1.344,0-2.479-0.293-3.486-0.84c-1.008-0.545-1.764-1.344-2.352-2.393
			c-0.547-1.051-0.84-2.227-0.84-3.57V67.351z"/>
		<path fill="#E2E1E1" d="M233.314,67.31h3.15c1.303,3.779,2.311,6.803,3.023,9.072c0.379,1.133,0.715,2.184,1.008,3.234
			c0.336,1.008,0.631,2.016,0.883,2.939l0.799,2.898h0.084V67.31h4.494v33.643h-3.234c-0.967-2.688-1.975-5.713-3.025-9.031
			c-0.504-1.637-0.924-2.896-1.176-3.738c-0.252-0.84-0.504-1.637-0.713-2.309l-0.756-2.773h-0.084v17.852h-4.494V67.31H233.314z"/>
		<path fill="#E2E1E1" d="M249.568,67.31h4.873v33.643h-4.873V67.31z"/>
		<path fill="#E2E1E1" d="M270.527,77.306h-4.914v-2.52v-0.127v-0.211c0.043-0.125,0.043-0.336,0.043-0.588
			c0-1.764-0.547-2.645-1.598-2.645c-0.713,0-1.217,0.252-1.553,0.713c-0.336,0.463-0.504,1.219-0.504,2.227v20.539
			c0,0.672,0.168,1.26,0.545,1.721c0.336,0.463,0.799,0.672,1.344,0.672c0.506,0,0.926-0.209,1.262-0.588
			c0.336-0.377,0.504-0.84,0.504-1.428v-5.082h4.914v4.242c0,1.051-0.168,1.975-0.463,2.855c-0.293,0.84-0.756,1.598-1.387,2.227
			c-0.629,0.631-1.344,1.092-2.184,1.428s-1.764,0.504-2.771,0.504c-1.303,0-2.436-0.293-3.443-0.924
			c-1.01-0.629-1.766-1.469-2.311-2.604c-0.547-1.135-0.84-2.436-0.84-3.906V74.995c0-1.639,0.252-3.066,0.797-4.242
			c0.547-1.176,1.303-2.1,2.354-2.73c1.008-0.629,2.225-0.924,3.652-0.924c1.262,0,2.438,0.295,3.402,0.84
			c1.008,0.547,1.764,1.344,2.311,2.311c0.547,1.008,0.799,2.184,0.799,3.527v3.529H270.527z"/>
		<path fill="#E2E1E1" d="M273.131,67.351h4.873v14.113h3.443V67.351h4.873v33.602h-4.873V85.831h-3.443v15.121h-4.873V67.351z"/>
		<path fill="#E2E1E1" d="M294.133,89.276h21.125v2.561h-21.125V89.276z"/>
		<path fill="#E2E1E1" d="M329.413,96.835h6.092v4.117h-12.098l6.805-19.363c0.463-1.26,0.799-2.395,0.967-3.443
			c0.168-1.008,0.252-2.227,0.252-3.611c0-1.43-0.127-2.354-0.379-2.898c-0.252-0.504-0.713-0.756-1.428-0.756
			c-0.631,0-1.051,0.293-1.26,0.84c-0.211,0.545-0.336,1.596-0.336,3.15v2.645h-4.369v-2.855c0-2.563,0.504-4.451,1.471-5.754
			c1.008-1.303,2.479-1.932,4.453-1.932c0.797,0,1.553,0.125,2.268,0.42c0.713,0.293,1.301,0.672,1.805,1.217
			c0.715,0.715,1.262,1.639,1.598,2.689c0.336,1.049,0.461,2.436,0.461,4.115c0,2.436-0.42,4.873-1.301,7.309L329.413,96.835z"/>
		<path fill="#E2E1E1" d="M338.149,94.61V73.399c0-1.303,0.211-2.479,0.674-3.402c0.461-0.967,1.133-1.68,2.057-2.184
			s1.975-0.756,3.15-0.756c2.016,0,3.527,0.545,4.537,1.637c1.008,1.092,1.553,2.73,1.553,4.957v21.211
			c0,1.344-0.209,2.477-0.672,3.402c-0.461,0.924-1.135,1.637-2.016,2.141c-0.883,0.463-1.975,0.715-3.234,0.715
			c-1.891,0-3.359-0.504-4.41-1.555c-0.547-0.545-0.924-1.133-1.176-1.848C338.401,97.003,338.233,95.954,338.149,94.61z
			 M342.475,72.728V95.45c0,0.545,0.168,1.008,0.463,1.344c0.293,0.336,0.672,0.545,1.135,0.545c0.545,0,0.924-0.168,1.217-0.545
			c0.295-0.336,0.42-0.84,0.42-1.471V72.769c0-0.545-0.125-1.008-0.42-1.385c-0.293-0.379-0.629-0.547-1.092-0.547
			c-0.504,0-0.883,0.168-1.219,0.547C342.643,71.72,342.475,72.181,342.475,72.728z"/>
		<path fill="#E2E1E1" d="M353.817,69.913l7.055-2.814h0.504v33.854h-4.367V72.56l-3.191,1.176V69.913z"/>
		<path fill="#E2E1E1" d="M379.1,75.247h-4.367v-1.975c0-1.596-0.547-2.393-1.68-2.393c-1.051,0-1.598,0.713-1.598,2.1v7.309
			c0.59-0.588,1.135-1.008,1.639-1.219s1.092-0.336,1.723-0.336c1.344,0,2.395,0.42,3.15,1.26s1.133,2.059,1.133,3.611v11.047
			c0,2.059-0.504,3.654-1.553,4.746c-1.051,1.092-2.521,1.639-4.494,1.639c-1.934,0-3.402-0.588-4.41-1.764
			s-1.512-2.857-1.512-4.998v-20.33c0-1.428,0.252-2.688,0.713-3.736c0.463-1.051,1.135-1.85,2.059-2.438
			c0.881-0.545,1.932-0.84,3.15-0.84c1.217,0,2.309,0.252,3.232,0.756c0.926,0.504,1.639,1.219,2.102,2.143
			c0.504,0.924,0.756,2.016,0.756,3.275v2.143H379.1z M371.456,85.202v9.953c0,0.631,0.127,1.092,0.422,1.428
			c0.293,0.336,0.672,0.547,1.217,0.547c0.504,0,0.924-0.168,1.219-0.504c0.293-0.336,0.42-0.799,0.42-1.387V84.991
			c0-0.672-0.127-1.176-0.379-1.555c-0.252-0.336-0.629-0.545-1.176-0.545C372.045,82.933,371.456,83.688,371.456,85.202z"/>
	</g>
</g>
<path fill="#E2E1E1" d="M535.807,49.206c-3.066-2.394-6.932-4.284-10.92-3.612c-3.445,0.672-5.756,2.394-8.232,4.746
	c-2.563,2.394-3.57,5.544-7.225,6.594c-2.814,0.84-5.922,0.378-8.527-0.924c-5.627-2.772-10.668-8.946-10.205-15.499
	c0.252-3.402,2.814-6.09,5.459-8.022c1.555-1.092,4.537-2.142,8.443-2.646c-5.041-7.014-12.602-6.762-21.504-6.006
	c-7.057,0.588-14.828,4.956-21.967,3.234c-7.939-1.89-5.418-10.039-0.588-13.944c5.627-4.578,13.23-5.292,20.244-4.746
	c-5.041-2.562-10.291-4.746-15.709-6.3c-11.131-3.15-20.58-2.562-28.35,0.672c-20.162,3.234-32.426,13.44-39.063,31.417
	l49.52,23.185l-50.316,24.822c6.047,16.885,19.572,26.168,37.045,28.855c7.854,4.703,17.514,6.51,28.938,4.074
	c-3.275-1.219-6.426-3.023-9.408-4.914c-2.1-1.344-4.41-2.898-5.166-4.662c0,0-0.209-0.084-0.209-1.051
	c0-0.965,0.209-1.26,0.209-1.26c3.781-6.51,12.854-3.486,18.02-1.092c5.795,2.688,12.348,6.846,19.025,5.713
	c6.721-1.135,10.459-9.115,12.475-14.953c-7.35,2.1-18.186,3.443-22.471-4.621c-3.191-6.006-2.939-17.471,4.285-20.496
	c7.979-3.318,13.818,3.949,19.697,7.309c5.125,2.939,15.541,8.863,19.656,1.344c3.193-5.879-0.377-12.475,2.646-18.271
	c3.779-7.224,12.348-5.544,18.732-4.62C538.915,52.062,537.487,50.508,535.807,49.206z M423.79,33.708c-3.359,0-6.09-2.73-6.09-6.09
	c0-3.36,2.73-6.09,6.09-6.09s6.09,2.73,6.09,6.09C429.879,30.978,427.149,33.708,423.79,33.708z"/>
<circle fill="#FFFFFF" cx="168.76" cy="58.153" r="3.823"/>
<circle fill="#FFFFFF" cx="132.932" cy="58.153" r="3.823"/>
<circle fill="#FFFFFF" cx="132.932" cy="58.153" r="3.823"/>
<circle fill="#FFFFFF" cx="641.397" cy="58.153" r="3.823"/>
<circle fill="#FFFFFF" cx="605.571" cy="58.153" r="3.823"/>
<circle fill="#FFFFFF" cx="605.571" cy="58.153" r="3.823"/>
<circle fill="#FFFFFF" cx="567.307" cy="58.153" r="3.823"/>
<g>
	<path fill="#FFFFFF" d="M0,37.908h6.551l1.764-8.148h2.941l-1.764,8.148h8.23l1.723-8.148h2.941l-1.766,8.148h3.906v2.94h-4.451
		l-1.512,7.182h5.963v2.94h-6.51l-1.723,8.106h-2.982l1.766-8.106H6.803l-1.68,8.106H2.184l1.68-8.106H0v-2.94h4.494l1.469-7.182H0
		V37.908z M8.904,40.806l-1.471,7.14h8.232l1.469-7.14H8.904z"/>
	<path fill="#FFFFFF" d="M35.531,32.406v-1.512h4.453V54.33c0,2.646-0.588,4.536-1.723,5.755c-1.133,1.219-2.982,1.807-5.459,1.807
		c-1.01,0-1.807-0.084-2.479-0.252c-0.631-0.168-1.428-0.547-2.395-1.135l1.471-3.15c1.344,0.714,2.477,1.092,3.359,1.092
		s1.555-0.21,2.059-0.672s0.756-1.05,0.756-1.806V53.91H35.49c-0.463,0.798-1.008,1.386-1.512,1.764
		c-0.547,0.378-1.135,0.546-1.807,0.546c-0.883,0-1.639-0.252-2.268-0.798c-0.631-0.504-1.092-1.302-1.428-2.31
		c-0.336-1.008-0.463-2.226-0.463-3.696v-11.34c0-1.512,0.168-2.856,0.547-3.99c0.336-1.134,0.881-1.974,1.553-2.604
		c0.672-0.63,1.471-0.882,2.395-0.882c0.631,0,1.135,0.126,1.512,0.336C34.355,31.188,34.902,31.692,35.531,32.406z M32.383,36.942
		v13.524c0,0.588,0.125,1.092,0.42,1.428c0.293,0.336,0.629,0.546,1.092,0.546c0.336,0,0.672-0.168,0.965-0.504
		c0.463-0.42,0.672-0.882,0.672-1.428V35.892c0-0.21-0.125-0.42-0.377-0.63c-0.336-0.42-0.756-0.63-1.26-0.63
		c-0.463,0-0.799,0.21-1.092,0.63C32.508,35.682,32.383,36.228,32.383,36.942z"/>
	<path fill="#FFFFFF" d="M54.852,41.142h-4.494v-4.284c0-1.47-0.42-2.226-1.26-2.226c-0.42,0-0.756,0.168-1.049,0.504
		c-0.295,0.336-0.42,0.756-0.42,1.26v15.75c0,0.63,0.125,1.134,0.42,1.554c0.293,0.42,0.588,0.63,0.965,0.63
		c0.42,0,0.756-0.21,1.051-0.672c0.252-0.42,0.42-1.008,0.42-1.722V47.82h4.453v3.108c0,1.47-0.211,2.772-0.674,3.906
		c-0.461,1.134-1.092,1.974-1.932,2.562s-1.848,0.882-3.023,0.882c-1.932,0-3.443-0.588-4.494-1.806
		c-1.051-1.176-1.555-2.898-1.555-5.04V37.824c0-2.268,0.504-4.032,1.512-5.292c1.01-1.26,2.438-1.89,4.285-1.89
		s3.318,0.588,4.326,1.764s1.512,2.814,1.512,4.956v3.78H54.852z"/>
	<path fill="#FFFFFF" d="M62.035,30.894v1.26c0.672-0.588,1.26-1.008,1.764-1.218c0.461-0.21,1.051-0.336,1.723-0.336
		c1.512,0,2.771,0.84,3.738,2.52c1.008-1.68,2.352-2.52,4.031-2.52c1.471,0,2.604,0.588,3.402,1.764
		c0.797,1.176,1.217,2.898,1.217,5.082V58.11h-4.494V37.698c0-2.058-0.629-3.066-1.848-3.066c-0.545,0-0.965,0.126-1.176,0.378
		c-0.209,0.252-0.336,0.672-0.336,1.302v0.084v0.126v21.672h-4.535V37.278c0-0.882-0.127-1.512-0.42-1.974
		c-0.295-0.462-0.674-0.714-1.178-0.714c-0.336,0-0.672,0.084-0.924,0.21s-0.545,0.378-0.924,0.714v22.681h-4.451V30.936h4.41
		V30.894z"/>
	<path fill="#FFFFFF" d="M80.348,30.894h4.494v21.042c0,0.756,0.168,1.302,0.461,1.722c0.295,0.42,0.715,0.63,1.219,0.63
		c1.049,0,1.596-0.84,1.596-2.478V30.894h4.453v20.455c0,4.578-2.102,6.888-6.26,6.888c-1.889,0-3.359-0.63-4.41-1.848
		c-1.049-1.218-1.553-2.94-1.553-5.166V30.894z"/>
	<path fill="#FFFFFF" d="M107.354,41.142h-4.494v-4.284c0-1.47-0.42-2.226-1.26-2.226c-0.42,0-0.756,0.168-1.051,0.504
		c-0.293,0.336-0.42,0.756-0.42,1.26v15.75c0,0.63,0.127,1.134,0.42,1.554c0.295,0.42,0.588,0.63,0.967,0.63
		c0.42,0,0.756-0.21,1.051-0.672c0.252-0.42,0.42-1.008,0.42-1.722V47.82h4.451v3.108c0,1.47-0.209,2.772-0.672,3.906
		c-0.463,1.134-1.092,1.974-1.932,2.562s-1.848,0.882-3.023,0.882c-1.934,0-3.445-0.588-4.494-1.806
		c-1.051-1.176-1.555-2.898-1.555-5.04V37.824c0-2.268,0.504-4.032,1.512-5.292s2.436-1.89,4.285-1.89
		c1.848,0,3.316,0.588,4.324,1.764c1.01,1.176,1.514,2.814,1.514,4.956v3.78H107.354z"/>
</g>
<g>
	<path fill="#FFFFFF" d="M13.02,73.776h8.736v2.773l-4.033,24.402h-3.527l3.947-23.898H13.02V73.776z"/>
	<path fill="#FFFFFF" d="M26.627,96.835c0.588,0,1.094,0.211,1.514,0.631s0.629,0.924,0.629,1.512s-0.209,1.051-0.629,1.471
		s-0.924,0.629-1.514,0.629c-0.588,0-1.049-0.209-1.469-0.629s-0.631-0.883-0.631-1.471s0.211-1.092,0.631-1.512
		C25.535,97.046,26.039,96.835,26.627,96.835z"/>
	<path fill="#FFFFFF" d="M41.412,73.399h2.436l-4.703,30.619H36.75L41.412,73.399z"/>
	<path fill="#FFFFFF" d="M61.279,77.935v5.334c0,0.799-0.168,1.387-0.547,1.891c-0.377,0.463-0.967,0.84-1.764,1.176
		c0.924,0.379,1.555,0.799,1.891,1.344c0.336,0.504,0.545,1.262,0.545,2.227v6.594c0,1.43-0.42,2.563-1.301,3.361
		c-0.883,0.797-2.059,1.217-3.57,1.217c-1.514,0-2.73-0.42-3.57-1.26s-1.26-1.973-1.26-3.486v-6.426
		c0-1.008,0.168-1.764,0.504-2.311c0.336-0.545,0.924-1.008,1.764-1.344c-0.756-0.336-1.303-0.713-1.596-1.092
		c-0.295-0.377-0.504-0.924-0.547-1.68v-5.545c0-0.881,0.211-1.68,0.588-2.393c0.379-0.715,0.924-1.262,1.639-1.598
		c0.713-0.377,1.553-0.545,2.479-0.545c0.924,0,1.764,0.168,2.477,0.545c0.715,0.379,1.26,0.883,1.68,1.598
		C61.111,76.255,61.279,77.054,61.279,77.935z M55.23,89.696v6.678c0,0.504,0.125,0.924,0.377,1.217
		c0.254,0.295,0.59,0.463,0.967,0.463c0.379,0,0.715-0.168,0.967-0.463c0.252-0.293,0.336-0.713,0.336-1.217v-6.678
		c0-0.504-0.127-0.924-0.379-1.219s-0.588-0.463-1.049-0.463c-0.336,0-0.631,0.168-0.883,0.506
		C55.314,88.772,55.23,89.192,55.23,89.696z M55.355,77.935v5.25c0,1.051,0.379,1.598,1.135,1.598c0.42,0,0.715-0.127,0.967-0.42
		c0.252-0.295,0.336-0.674,0.336-1.135v-5.293c0-0.252-0.043-0.504-0.168-0.713c-0.127-0.211-0.252-0.42-0.463-0.547
		c-0.209-0.125-0.377-0.209-0.629-0.209c-0.336,0-0.631,0.125-0.84,0.42C55.439,77.179,55.355,77.515,55.355,77.935z"/>
	<path fill="#FFFFFF" d="M65.689,96.835c0.588,0,1.092,0.211,1.512,0.631s0.629,0.924,0.629,1.512s-0.209,1.051-0.629,1.471
		s-0.924,0.629-1.512,0.629s-1.051-0.209-1.471-0.629s-0.631-0.883-0.631-1.471s0.211-1.092,0.631-1.512
		S65.102,96.835,65.689,96.835z"/>
	<path fill="#FFFFFF" d="M76.609,73.692h2.479l3.316,14.238h0.084l3.613-14.238h2.436l1.219,27.26h-3.738l-0.211-15.33h-0.084
		l-2.771,12.307h-0.924l-2.73-12.098h-0.084l-0.252,15.121h-3.695L76.609,73.692z"/>
	<path fill="#FFFFFF" d="M97.484,80.665v-1.26h3.527v21.547h-3.527v-1.428H97.4c-0.295,0.504-0.674,0.881-1.135,1.133
		c-0.42,0.252-0.883,0.42-1.344,0.42c-0.672,0-1.303-0.209-1.848-0.588c-0.547-0.377-0.924-0.965-1.219-1.721
		s-0.42-1.639-0.42-2.646V84.866c0-1.723,0.336-3.066,0.967-4.117c0.629-1.049,1.469-1.555,2.52-1.555
		c0.588,0,1.049,0.127,1.428,0.338c0.377,0.209,0.715,0.629,1.051,1.133H97.484z M97.484,96.626V83.228
		c-0.422-0.588-0.842-0.84-1.262-0.84c-0.84,0-1.217,0.672-1.217,2.059v12.053c0,0.463,0.084,0.84,0.293,1.135
		c0.211,0.295,0.463,0.42,0.84,0.42c0.252,0,0.547-0.125,0.84-0.42C97.316,97.255,97.484,96.962,97.484,96.626z"/>
	<path fill="#FFFFFF" d="M105.506,78.103c-0.547,0-1.008-0.209-1.387-0.588c-0.377-0.377-0.588-0.84-0.588-1.344
		c0-0.545,0.168-1.008,0.588-1.385c0.379-0.379,0.84-0.59,1.387-0.59c0.545,0,1.008,0.211,1.387,0.547
		c0.377,0.379,0.545,0.84,0.545,1.387c0,0.545-0.168,1.008-0.545,1.385C106.514,77.894,106.051,78.103,105.506,78.103z
		 M103.699,79.405h3.529v21.547h-3.529V79.405z"/>
</g>
</svg>
