<?xml version="1.0" encoding="utf-8"?>
<!-- Generator: Adobe Illustrator 16.0.0, SVG Export Plug-In . SVG Version: 6.00 Build 0)  -->
<!DOCTYPE svg PUBLIC "-//W3C//DTD SVG 1.1//EN" "http://www.w3.org/Graphics/SVG/1.1/DTD/svg11.dtd">
<svg version="1.1" id="Ebene_1" xmlns="http://www.w3.org/2000/svg" xmlns:xlink="http://www.w3.org/1999/xlink" x="0px" y="0px"
	 width="612.959px" height="158.443px" viewBox="0 0 612.959 158.443" enable-background="new 0 0 612.959 158.443"
	 xml:space="preserve">
<g>
	<g>
		<g>
			<path fill="#FFFFFF" d="M288.22,243.152h-9.394v-7.961c0-2.806-1.087-4.237-3.263-4.237c-0.975,0-1.776,0.344-2.464,1.088
				c-0.687,0.688-1.031,1.604-1.031,2.69v43.415c0,1.032,0.285,1.834,0.917,2.521c0.628,0.687,1.374,0.972,2.349,0.972
				c1.031,0,1.833-0.344,2.461-0.972c0.631-0.688,0.975-1.547,0.975-2.578v-15.522h-3.265v-8.131h12.715v21.535
				c0,2.864-0.514,5.325-1.544,7.388c-1.034,2.063-2.578,3.607-4.584,4.697c-2.003,1.087-4.411,1.604-7.215,1.604
				c-2.522,0-4.698-0.573-6.587-1.719c-1.891-1.146-3.324-2.862-4.296-5.041c-0.975-2.232-1.489-4.812-1.489-7.848v-36.312
				c0-3.322,0.514-6.129,1.544-8.535c1.031-2.349,2.52-4.181,4.525-5.383c2.005-1.204,4.411-1.833,7.159-1.833
				c1.947,0,3.724,0.284,5.212,0.857c1.547,0.572,2.807,1.375,3.894,2.406c1.089,1.031,1.891,2.348,2.464,3.836
				c0.573,1.548,0.86,3.266,0.86,5.271v7.788h0.057L288.22,243.152L288.22,243.152z"/>
			<path fill="#FFFFFF" d="M302.025,222.993h8.305l9.966,66.15h-9.338l-0.917-8.59h-7.902l-0.916,8.59h-9.394L302.025,222.993z
				 M306.033,244.872l-3.036,27.722h6.128l-2.922-27.722H306.033z"/>
			<path fill="#FFFFFF" d="M325.563,223.565h5.957l7.963,34.193h0.17l8.707-34.193h5.898l2.979,65.579h-9.051l-0.457-36.827h-0.17
				l-6.701,29.612h-2.235l-6.528-29.039h-0.173l-0.571,36.313h-8.822L325.563,223.565z"/>
			<path fill="#FFFFFF" d="M360.961,223.68h20.617v8.304h-11.109v19.588h10.536v8.133h-10.536v21.308h11.511v8.131h-21.02
				L360.961,223.68L360.961,223.68z"/>
			<path fill="#FFFFFF" d="M412.106,243.038h-9.564v-4.926v-0.172v-0.399c0.059-0.288,0.059-0.631,0.059-1.146
				c0-3.437-1.031-5.154-3.095-5.154c-1.374,0-2.405,0.458-3.032,1.374c-0.632,0.917-0.976,2.348-0.976,4.354v40.035
				c0,1.316,0.344,2.462,1.03,3.322c0.688,0.917,1.548,1.315,2.578,1.315c1.031,0,1.834-0.344,2.465-1.087
				c0.628-0.746,0.972-1.662,0.972-2.807v-9.908h9.563v8.304c0,2.004-0.285,3.895-0.916,5.557c-0.572,1.66-1.488,3.092-2.689,4.296
				c-1.204,1.2-2.578,2.117-4.24,2.749c-1.658,0.629-3.436,0.972-5.383,0.972c-2.52,0-4.811-0.572-6.701-1.773
				c-1.947-1.204-3.436-2.862-4.525-5.041c-1.088-2.178-1.604-4.754-1.604-7.675v-36.714c0-3.208,0.514-6.014,1.604-8.306
				c1.031-2.291,2.578-4.066,4.582-5.326c2.004-1.202,4.354-1.833,7.103-1.833c2.521,0,4.696,0.517,6.644,1.603
				c1.949,1.089,3.438,2.579,4.524,4.525c1.031,1.948,1.603,4.239,1.603,6.874V243.038L412.106,243.038z"/>
			<path fill="#FFFFFF" d="M425.851,222.993h8.31l9.963,66.15h-9.334l-0.916-8.59h-7.906l-0.916,8.59h-9.448L425.851,222.993z
				 M429.863,244.872l-3.035,27.722h6.129l-2.922-27.722H429.863z"/>
			<path fill="#FFFFFF" d="M449.394,223.565h5.955l7.961,34.193h0.175l8.707-34.193h5.897l2.979,65.579h-9.052l-0.459-36.827h-0.174
				l-6.699,29.612h-2.231l-6.529-29.039h-0.172l-0.572,36.313h-8.819L449.394,223.565z"/>
			<path fill="#FFFFFF" d="M485.478,223.565h11.568c2.863,0,5.324,0.573,7.389,1.719c2.063,1.146,3.607,2.807,4.695,5.04
				c1.09,2.233,1.605,4.868,1.605,7.904v18.099c0,2.636-0.459,4.927-1.433,6.875c-0.975,1.946-2.35,3.436-4.237,4.466
				c-1.892,1.031-4.068,1.547-6.529,1.547h-3.668v19.931h-9.449v-65.579L485.478,223.565L485.478,223.565z M494.927,232.042v29.097
				h2.119c2.805,0,4.18-1.776,4.18-5.271v-18.899c0-1.833-0.344-3.094-1.028-3.838c-0.689-0.745-1.892-1.088-3.554-1.088
				L494.927,232.042L494.927,232.042z"/>
		</g>
		<g>
			<path fill="#FFFFFF" d="M262.734,299.169h4.179l5.615,23.94h0.114l6.128-23.94h4.123l2.062,45.877h-6.299l-0.344-25.772h-0.114
				l-4.699,20.73h-1.544l-4.584-20.333h-0.114l-0.399,25.375h-6.188L262.734,299.169z"/>
			<path fill="#FFFFFF" d="M287.821,299.225h6.587v37.458c0,1.893,0.743,2.81,2.176,2.81c0.857,0,1.43-0.288,1.833-0.802
				c0.399-0.519,0.573-1.489,0.573-2.749v-36.717h6.701v35.74c0,2.063-0.344,3.896-1.089,5.497
				c-0.743,1.548-1.774,2.751-3.092,3.609c-1.316,0.857-2.863,1.26-4.581,1.26c-1.833,0-3.38-0.4-4.754-1.146
				c-1.374-0.742-2.405-1.834-3.207-3.264c-0.746-1.433-1.146-3.036-1.146-4.869v-36.828L287.821,299.225L287.821,299.225z"/>
			<path fill="#FFFFFF" d="M309.069,299.169h4.297c1.773,5.153,3.148,9.276,4.123,12.371c0.514,1.545,0.972,2.978,1.373,4.41
				c0.459,1.375,0.861,2.749,1.205,4.009l1.086,3.952h0.115v-24.742h6.127v45.877h-4.41c-1.315-3.665-2.69-7.791-4.123-12.313
				c-0.688-2.232-1.26-3.95-1.604-5.101c-0.344-1.145-0.688-2.229-0.975-3.146l-1.031-3.782h-0.113v24.344h-6.129V299.17
				L309.069,299.169L309.069,299.169z"/>
			<path fill="#FFFFFF" d="M331.233,299.169h6.646v45.877h-6.646V299.169z"/>
			<path fill="#FFFFFF" d="M359.815,312.8h-6.701v-3.436v-0.174v-0.287c0.056-0.171,0.056-0.458,0.056-0.804
				c0-2.403-0.743-3.604-2.176-3.604c-0.976,0-1.662,0.344-2.12,0.973c-0.458,0.631-0.688,1.662-0.688,3.036v28.008
				c0,0.917,0.229,1.721,0.746,2.349c0.459,0.632,1.088,0.916,1.834,0.916c0.688,0,1.26-0.284,1.717-0.804
				c0.459-0.514,0.688-1.145,0.688-1.944v-6.933h6.701v5.785c0,1.434-0.229,2.692-0.629,3.896c-0.402,1.146-1.031,2.179-1.892,3.035
				c-0.859,0.859-1.832,1.488-2.978,1.946s-2.405,0.688-3.782,0.688c-1.773,0-3.32-0.399-4.695-1.262
				c-1.375-0.855-2.405-2.003-3.151-3.551c-0.743-1.547-1.146-3.321-1.146-5.326v-25.657c0-2.235,0.344-4.184,1.09-5.785
				c0.742-1.604,1.775-2.863,3.207-3.726c1.375-0.855,3.035-1.26,4.982-1.26c1.719,0,3.321,0.402,4.641,1.146
				c1.373,0.743,2.404,1.832,3.15,3.148c0.743,1.374,1.086,2.979,1.086,4.813v4.813H359.815L359.815,312.8z"/>
			<path fill="#FFFFFF" d="M363.366,299.225h6.646v19.245h4.694v-19.245h6.644v45.821h-6.644v-20.62h-4.694v20.62h-6.646V299.225z"
				/>
			<path fill="#FFFFFF" d="M392.003,329.125h28.811v3.491h-28.811V329.125z"/>
			<path fill="#FFFFFF" d="M440.115,339.432h8.305v5.614h-16.494l9.279-26.405c0.629-1.718,1.086-3.266,1.313-4.693
				c0.23-1.375,0.345-3.036,0.345-4.925c0-1.95-0.17-3.212-0.515-3.952c-0.344-0.688-0.975-1.031-1.946-1.031
				c-0.859,0-1.435,0.399-1.722,1.146c-0.285,0.743-0.459,2.178-0.459,4.298v3.604h-5.897v-3.895c0-3.494,0.688-6.069,2.006-7.848
				c1.375-1.774,3.381-2.635,6.072-2.635c1.088,0,2.116,0.171,3.094,0.573c0.971,0.397,1.774,0.916,2.463,1.659
				c0.973,0.975,1.719,2.232,2.176,3.667c0.459,1.431,0.629,3.319,0.629,5.61c0,3.321-0.571,6.646-1.772,9.968L440.115,339.432z"/>
			<path fill="#FFFFFF" d="M452.029,336.399v-28.927c0-1.774,0.287-3.38,0.916-4.64c0.631-1.318,1.547-2.29,2.807-2.979
				c1.26-0.688,2.691-1.029,4.297-1.029c2.748,0,4.812,0.743,6.187,2.229c1.373,1.489,2.118,3.726,2.118,6.762v28.925
				c0,1.832-0.286,3.377-0.916,4.64c-0.633,1.26-1.549,2.231-2.752,2.919c-1.2,0.631-2.688,0.977-4.405,0.977
				c-2.578,0-4.584-0.688-6.017-2.12c-0.746-0.743-1.26-1.544-1.604-2.521C452.373,339.661,452.142,338.232,452.029,336.399z
				 M457.927,306.557v30.986c0,0.743,0.229,1.374,0.631,1.832c0.4,0.458,0.916,0.743,1.546,0.743c0.745,0,1.26-0.229,1.661-0.743
				c0.398-0.458,0.572-1.145,0.572-2.005v-30.758c0-0.743-0.174-1.374-0.572-1.89c-0.401-0.517-0.858-0.746-1.487-0.746
				c-0.688,0-1.203,0.229-1.662,0.746C458.158,305.183,457.927,305.811,457.927,306.557z"/>
			<path fill="#FFFFFF" d="M473.39,302.719l9.623-3.838h0.689v46.165h-5.957v-38.718l-4.354,1.603L473.39,302.719L473.39,302.719z"
				/>
			<path fill="#FFFFFF" d="M507.873,309.993h-5.959V307.3c0-2.176-0.742-3.263-2.289-3.263c-1.432,0-2.178,0.973-2.178,2.863v9.967
				c0.803-0.802,1.549-1.375,2.233-1.662c0.688-0.288,1.488-0.458,2.349-0.458c1.834,0,3.266,0.572,4.297,1.718
				c1.028,1.146,1.547,2.809,1.547,4.925v15.063c0,2.808-0.688,4.981-2.121,6.473c-1.43,1.488-3.436,2.234-6.127,2.234
				c-2.635,0-4.641-0.802-6.016-2.405c-1.373-1.604-2.063-3.896-2.063-6.813v-27.726c0-1.946,0.344-3.665,0.978-5.095
				c0.629-1.435,1.545-2.522,2.805-3.324c1.203-0.743,2.637-1.146,4.297-1.146s3.15,0.344,4.41,1.029
				c1.26,0.688,2.231,1.662,2.86,2.922c0.689,1.262,1.031,2.748,1.031,4.468v2.922L507.873,309.993L507.873,309.993z
				 M497.447,323.57v13.57c0,0.86,0.174,1.489,0.571,1.947c0.402,0.458,0.916,0.745,1.662,0.745c0.688,0,1.263-0.229,1.66-0.688
				c0.402-0.458,0.572-1.09,0.572-1.892v-13.975c0-0.916-0.17-1.604-0.514-2.12c-0.347-0.458-0.861-0.743-1.605-0.743
				C498.25,320.473,497.447,321.504,497.447,323.57z"/>
		</g>
	</g>
	<path fill="#DAECF9" d="M721.566,274.482c-4.185-3.264-9.451-5.841-14.894-4.925c-4.695,0.916-7.846,3.267-11.227,6.472
		c-3.437,3.266-4.869,7.561-9.854,8.992c-3.834,1.146-8.074,0.518-11.625-1.26c-7.676-3.779-14.547-12.2-13.918-21.134
		c0.342-4.641,3.838-8.306,7.445-10.94c2.121-1.488,6.186-2.92,11.512-3.606c-6.871-9.566-17.182-9.223-29.324-8.191
		c-9.623,0.803-20.217,6.758-29.955,4.411c-10.821-2.577-7.389-13.688-0.801-19.016c7.676-6.243,18.041-7.219,27.605-6.473
		c-6.871-3.494-14.031-6.472-21.42-8.592c-15.181-4.295-28.066-3.493-38.662,0.916c-27.49,4.411-44.215,18.33-53.267,42.844
		l67.527,31.615l-68.617,33.851c8.25,23.023,26.691,35.685,50.519,39.35c10.713,6.413,23.887,8.877,39.465,5.556
		c-4.467-1.661-8.764-4.123-12.83-6.699c-2.863-1.833-6.016-3.953-7.045-6.357c0,0-0.287-0.115-0.287-1.434
		c0-1.315,0.287-1.72,0.287-1.72c5.151-8.877,17.524-4.754,24.567-1.486c7.906,3.664,16.843,9.335,25.947,7.79
		c9.166-1.55,14.26-12.432,17.013-20.393c-10.023,2.862-24.802,4.695-30.644-6.302c-4.354-8.19-4.012-23.824,5.842-27.95
		c10.881-4.525,18.842,5.386,26.861,9.967c6.986,4.01,21.188,12.086,26.805,1.832c4.354-8.017-0.516-17.011,3.609-24.913
		c5.154-9.852,16.838-7.562,25.545-6.302C725.804,278.377,723.855,276.258,721.566,274.482z M568.813,253.348
		c-4.584,0-8.306-3.724-8.306-8.305c0-4.582,3.722-8.304,8.306-8.304c4.581,0,8.307,3.722,8.307,8.304
		C577.119,249.624,573.394,253.348,568.813,253.348z"/>
	<circle fill="#DAECF9" cx="221.036" cy="286.683" r="5.212"/>
	<circle fill="#DAECF9" cx="172.181" cy="286.683" r="5.212"/>
	<circle fill="#DAECF9" cx="172.181" cy="286.683" r="5.212"/>
	<circle fill="#DAECF9" cx="120.002" cy="286.683" r="5.212"/>
</g>
</svg>
