<svg xmlns="http://www.w3.org/2000/svg" viewBox="0 0 604 97.6" enable-background="new 0 0 604 97.6"><path fill="#fff" d="M144.9 35c0-7.2 4-8.9 10.8-8.9H167c8.5 0 9.7 3.1 9.7 7.8v.8h-7.4c0-2.4-1.4-2.7-3.8-2.7h-8.1c-3.8 0-4.8.9-4.8 5.1v3c0 4.2 1 5.1 4.8 5.1h8c2 0 3.9-.3 3.9-2.7v-.7H160v-5.1h16.8v7c0 7-3.6 7.4-12.1 7.4h-9c-6.8 0-10.8-1.7-10.8-8.9V35z"/><g fill="#fff"><path d="M180.4 42.3c0-6.6 4.6-7 13.5-7 5 0 7.8.1 9.5 2v-2.1c0-2.4-.7-3.2-4.3-3.2h-5.4c-2.7 0-3.4.2-3.5 2h-8.9c0-6.6 3.2-7.7 11-7.7h10.6c6.3 0 9.6 3 9.6 8.7v16h-8.7v-2.8c-2.5 2.6-3.5 3.1-8.1 3.1h-6.2c-5.6 0-9.2-1.2-9.2-6.9v-2.1zm16.3 3.2c6.3 0 6.9-1 6.9-2.6 0-1.8-.5-2.5-5.6-2.5h-4.1c-3.9 0-4.7.9-4.7 2.9 0 1.6 1.2 2.2 4.8 2.2h2.7zM218 26.5h8.7v4.8h.1c.5-3.5 3.6-5.2 8.1-5.2h3.5c4.3 0 7.3 1.9 9 5.7 1.5-4.4 3.5-5.7 8.7-5.7h2.8c8.3 0 11.4 4.1 11.4 11v13.7h-9.2v-13c0-3.3-.9-4.5-6.2-4.5-4.4 0-6.2 1-6.2 4.1v13.4h-9.2V37.1c0-3-1.1-3.8-6.6-3.8-3.9 0-5.8 1-5.8 4.7v12.8H218V26.5zM275 37.4c0-9.2 4.6-11.2 11.3-11.2h6.4c9.7 0 13.7 2.1 13.7 10.5v4.1h-22.2v1.5c0 2.6 1.8 3.3 5.6 3.3h2.8c5 0 5.2-1.3 5.2-2.8h8.6v1c0 6.1-5.4 7.4-12.1 7.4h-6.9c-6.1 0-12.4-1.1-12.4-11.5v-2.3zm22.5-2.1c0-2.9-1.3-3.4-6.7-3.4-6 0-6.7.5-6.7 3.4h13.4z"/></g><g fill="#fff"><path d="M316.5 36c0-8.8 6.2-9.8 12.2-9.8h6.9c7.6 0 10.6 3.1 10.6 8.3v.7h-3.8v-.6c0-4.1-2.7-5-6.8-5h-7.5c-3.9 0-7.5.6-7.5 6.6v5.1c0 5.4 3.3 6.7 8.3 6.7h6.9c3.8 0 7-1.1 7-5.1V42h3.8v.7c0 6.2-3.1 8.5-10.7 8.5h-9.3c-3.7 0-10.2-1-10.2-9.8V36zM378.1 48.4c-1.2 2.2-2.5 2.8-8.8 2.8h-9.8c-6.2 0-7.8-2.7-7.8-7.3v-1.6c0-5.5 3.9-6.2 11.1-6.2h6.6c5.3 0 7.2.6 8.7 2.9h.1v-4.6c0-4.4-2.8-5-9.1-5h-6c-5.2 0-6.2 1.2-6.2 3.2v.9h-4.1v-1.2c0-4.4 2.8-6.2 10.2-6.2h6.5c7.6 0 12.8 1.1 12.8 8.4v16.3h-4.1v-2.4zm0-5.2c0-3.3-3-3.8-9.3-3.8h-6.3c-5.3 0-6.8.8-6.8 3.8v.8c0 2.7 1 3.9 6.6 3.9h5.4c7.4 0 10.3-.5 10.3-3.6v-1.1zM389.4 26.5h3.8v2.9h.1c1.7-2.5 4.1-3.2 8.2-3.2h6.6c3.7 0 6.6 1.5 7.9 4.5 1.5-3.3 4.8-4.5 9-4.5h5c6.6 0 10.6 2.9 10.6 8.4v16.3h-4.1V35c0-2.8-1.2-5.5-7.8-5.5h-2.9c-7.4 0-8.4 3.1-8.4 7v14.4h-4.1V36.1c0-4.7-1.5-6.6-8-6.6h-4.1c-5.2 0-7.7 2.2-7.7 6.1v15.3h-4.1V26.5zM448.3 26.5h3.8v3.9h.1c1.2-3 4.5-4.2 8.2-4.2h7.8c5.8 0 11.3 1.9 11.3 10.3v4.3c0 7.9-3.5 10.5-11.9 10.5h-7.8c-4.3 0-6.3-1.1-7.2-3.6h-.1v11.7h-4.1V26.5zm27 10c0-4.7-1.5-7-7.3-7h-8.2c-5.4 0-7.4 2.8-7.4 7v4.6c0 5.8 3.6 6.8 8 6.8h7.3c4.8 0 7.6-1 7.6-6.7v-4.7z"/></g><g fill="#fff"><path d="M176.2 89.2c0-2.6 1-3.4 3.8-3.4h3.1c2.8 0 3.8.8 3.8 3.4v2.4c0 2.3-1 3-3.1 3h-4.5c-2.1 0-3.1-.8-3.1-3v-2.4zm2.6 1.9c0 .9.3 1.3 1.5 1.3h2.5c1.2 0 1.5-.4 1.5-1.3v-1.9c0-.9-.3-1.3-1.5-1.3h-2.5c-1.2 0-1.5.4-1.5 1.3v1.9zM188.4 89.2c0-2.6 1-3.4 3.8-3.4h2.8c2.5 0 3.2.9 3.2 2v.7h-2.3c0-.6-.4-.8-1.3-.8h-2.3c-.9 0-1.3.4-1.3 1v1c.4-.4.9-.7 2-.7h2.5c2.6 0 3 .9 3 2.4v.8c0 2.1-1 2.4-3.1 2.4h-3.8c-2.1 0-3.1-.8-3.1-3v-2.4zm6.3 3.6c1 0 1.3-.2 1.3-1 0-.7-.3-.9-1.4-.9h-2.3c-1.1 0-1.4.2-1.4.9s.3 1 1.3 1h2.5zM201.1 92.1h2.5v2.4h-2.5v-2.4zM214.5 85.8h1.8l-4 8.9h-1.8l4-8.9zM222.1 89.2c0-2.6 1-3.4 3.8-3.4h3.1c2.8 0 3.8.8 3.8 3.4v2.4c0 2.3-1 3-3.1 3h-4.5c-2.1 0-3.1-.8-3.1-3v-2.4zm2.6 1.9c0 .9.3 1.3 1.5 1.3h2.5c1.2 0 1.5-.4 1.5-1.3v-1.9c0-.9-.3-1.3-1.5-1.3h-2.5c-1.2 0-1.5.4-1.5 1.3v1.9zM234.4 85.9h10v1.9l-5.5 6.7h-3.1l5.4-6.5h-6.7v-2.1zM247 92.1h2.5v2.4H247v-2.4zM257.4 90.8h2.6v.8c0 .6.3.9 1.2.9h1.1c.9 0 1.4-.1 1.4-.9v-5.7h2.7v5.9c0 2.4-1.3 2.9-3.7 2.9H261c-2.5 0-3.4-.8-3.4-2.8v-1.1zM276.2 94.5h-2.3v-1c-.4.9-1.2 1.1-2.4 1.1-1.4 0-3.4-.1-3.4-2.7v-3.5h2.3v3.5c0 .6.5.9 1.5.9h.5c1 0 1.6-.5 1.6-1.3v-3.1h2.3v6.1zM277.8 88.4h2.3v1c.4-.9 1.2-1.1 2.4-1.1 1.4 0 3.4.1 3.4 2.7v3.5h-2.3V91c0-.6-.5-.9-1.5-.9h-.5c-1 0-1.6.5-1.6 1.3v3.1h-2.3v-6.1zM290 87.7h-2.3v-1.8h2.3v1.8zm0 6.8h-2.3v-6.1h2.3v6.1zM297.8 90.4h3.4v2.2h-3.4v-2.2zM309 85.9h4.1l3 5.6 3-5.6h4.1v8.7h-2.6v-6.2l-3.5 6.2h-2l-3.5-6.2v6.2H309v-8.7zM333.1 94.5h-2.3v-1c-.4.9-1.2 1.1-2.4 1.1-1.4 0-3.4-.1-3.4-2.7v-3.5h2.3v3.5c0 .6.5.9 1.5.9h.5c1 0 1.6-.5 1.6-1.3v-3.1h2.3v6.1zM334.7 88.4h2.3v1c.4-.9 1.2-1.1 2.4-1.1 1.4 0 3.4.1 3.4 2.7v3.5h-2.3V91c0-.6-.5-.9-1.5-.9h-.5c-1 0-1.6.5-1.6 1.3v3.1h-2.3v-6.1zM346.9 87.7h-2.3v-1.8h2.3v1.8zm0 6.8h-2.3v-6.1h2.3v6.1zM348.3 91.2c0-2.3 1.2-2.8 2.8-2.8h2.6c1.7 0 2.7.6 2.7 2v.6h-2.2c0-.6-.3-.9-1.3-.9h-.9c-1 0-1.4.3-1.4.9v.8c0 .8.5 1 1.2 1h1.2c.6 0 1.2-.1 1.2-.7V92h2.2v.5c0 1.6-1.4 2.1-2.7 2.1h-2.4c-1.5 0-3.1-.3-3.1-2.9v-.5zM357.8 85.9h2.3v3.6c.4-.9 1.2-1.1 2.4-1.1 1.4 0 3.4.1 3.4 2.7v3.5h-2.3V91c0-.6-.5-.9-1.5-.9h-.5c-1 0-1.6.5-1.6 1.3v3.1h-2.3v-8.6zM373.7 90.4h3.4v2.2h-3.4v-2.2zM386.8 90.8h1.1l.2-1.2h-.9v-1.4h1.1l.3-2.3h1.5l-.3 2.3h.8l.3-2.3h1.5l-.3 2.3h.9v1.4h-1.1l-.2 1.2h.9v1.4h-1.1l-.3 2.3h-1.5l.3-2.3h-.8l-.3 2.3h-1.5l.3-2.3h-.9v-1.4zm2.6 0h.8l.2-1.2h-.8l-.2 1.2zM396.5 90.7c0-1.9 1-2.4 2.8-2.4h1.3c1.2 0 1.4.1 2 .9v-.8h2.2v5.7c0 1.3-.4 2.5-3.3 2.5H399c-1.5 0-2.4-.4-2.4-1.9h2.4c0 .3.2.5.6.5h1.7c1 0 1.5-.3 1.5-1.4v-.4c-.5.5-.8.6-2.1.6h-1.2c-2.2 0-2.9-.9-2.9-2.5v-.8zm4.7 1.8c1.1 0 1.4-.3 1.4-1.2 0-.9-.3-1.2-1.4-1.2h-1.1c-1.1 0-1.4.3-1.4 1.2 0 .9.3 1.2 1.4 1.2h1.1zM406.1 91.2c0-2.3 1.2-2.8 2.8-2.8h2.6c1.7 0 2.7.6 2.7 2v.6H412c0-.6-.3-.9-1.3-.9h-.9c-1 0-1.4.3-1.4.9v.8c0 .8.5 1 1.2 1h1.2c.6 0 1.2-.1 1.2-.7V92h2.2v.5c0 1.6-1.4 2.1-2.7 2.1h-2.4c-1.5 0-3.1-.3-3.1-2.9v-.5zM415.5 88.4h2.2v1.2c.1-.9.9-1.3 2-1.3h.9c1.1 0 1.8.5 2.3 1.4.4-1.1.9-1.4 2.2-1.4h.7c2.1 0 2.9 1 2.9 2.8v3.4h-2.3v-3.3c0-.8-.2-1.1-1.6-1.1-1.1 0-1.6.2-1.6 1v3.4h-2.3V91c0-.8-.3-.9-1.7-.9-1 0-1.5.2-1.5 1.2v3.2h-2.3v-6.1zM438.3 94.5H436v-1c-.4.9-1.2 1.1-2.4 1.1-1.4 0-3.4-.1-3.4-2.7v-3.5h2.3v3.5c0 .6.5.9 1.5.9h.5c1 0 1.6-.5 1.6-1.3v-3.1h2.3v6.1zM439.6 91.2c0-2.3 1.2-2.8 2.8-2.8h2.6c1.7 0 2.7.6 2.7 2v.6h-2.2c0-.6-.3-.9-1.3-.9h-.9c-1 0-1.4.3-1.4.9v.8c0 .8.5 1 1.2 1h1.2c.6 0 1.2-.1 1.2-.7V92h2.2v.5c0 1.6-1.4 2.1-2.7 2.1h-2.4c-1.5 0-3.1-.3-3.1-2.9v-.5z"/></g><g fill="#fff"><path d="M123.9 50.7c2.2 0 3.9 1.8 3.9 3.9 0 2.2-1.8 3.9-3.9 3.9-2.2 0-3.9-1.8-3.9-3.9 0-2.2 1.8-3.9 3.9-3.9M123.9 65.7c2.2 0 3.9 1.8 3.9 3.9 0 2.2-1.8 3.9-3.9 3.9-2.2 0-3.9-1.8-3.9-3.9 0-2.2 1.8-3.9 3.9-3.9M349.3 65.7c2.2 0 3.9 1.8 3.9 3.9 0 2.2-1.8 3.9-3.9 3.9-2.2 0-3.9-1.8-3.9-3.9-.1-2.2 1.7-3.9 3.9-3.9M364.3 65.7c2.2 0 3.9 1.8 3.9 3.9 0 2.2-1.8 3.9-3.9 3.9-2.2 0-3.9-1.8-3.9-3.9 0-2.2 1.7-3.9 3.9-3.9M379.3 65.7c2.2 0 3.9 1.8 3.9 3.9 0 2.2-1.8 3.9-3.9 3.9-2.2 0-3.9-1.8-3.9-3.9 0-2.2 1.7-3.9 3.9-3.9M394.3 65.7c2.2 0 3.9 1.8 3.9 3.9 0 2.2-1.8 3.9-3.9 3.9-2.2 0-3.9-1.8-3.9-3.9 0-2.2 1.8-3.9 3.9-3.9M409.3 65.7c2.2 0 3.9 1.8 3.9 3.9 0 2.2-1.8 3.9-3.9 3.9-2.2 0-3.9-1.8-3.9-3.9 0-2.2 1.8-3.9 3.9-3.9M424.4 65.7c2.2 0 3.9 1.8 3.9 3.9 0 2.2-1.8 3.9-3.9 3.9-2.2 0-3.9-1.8-3.9-3.9-.1-2.2 1.7-3.9 3.9-3.9M439.4 65.7c2.2 0 3.9 1.8 3.9 3.9 0 2.2-1.8 3.9-3.9 3.9-2.2 0-3.9-1.8-3.9-3.9 0-2.2 1.7-3.9 3.9-3.9M454.4 65.7c2.2 0 3.9 1.8 3.9 3.9 0 2.2-1.8 3.9-3.9 3.9-2.2 0-3.9-1.8-3.9-3.9 0-2.2 1.7-3.9 3.9-3.9M499.5 65.7c2.2 0 3.9 1.8 3.9 3.9 0 2.2-1.8 3.9-3.9 3.9-2.2 0-3.9-1.8-3.9-3.9 0-2.2 1.7-3.9 3.9-3.9M503.4 40.4c0 2.2-1.8 3.9-3.9 3.9-2.2 0-3.9-1.8-3.9-3.9 0-2.2 1.8-3.9 3.9-3.9 2.1 0 3.9 1.7 3.9 3.9M503.4 55.4c0 2.2-1.8 3.9-3.9 3.9-2.2 0-3.9-1.8-3.9-3.9 0-2.2 1.8-3.9 3.9-3.9 2.1 0 3.9 1.8 3.9 3.9M108.9 35.6c2.2 0 3.9 1.8 3.9 3.9 0 2.2-1.8 3.9-3.9 3.9-2.2 0-3.9-1.8-3.9-3.9 0-2.1 1.8-3.9 3.9-3.9M469.4 65.7c2.2 0 3.9 1.8 3.9 3.9 0 2.2-1.8 3.9-3.9 3.9-2.2 0-3.9-1.8-3.9-3.9 0-2.2 1.8-3.9 3.9-3.9M484.5 65.7c2.2 0 3.9 1.8 3.9 3.9 0 2.2-1.8 3.9-3.9 3.9-2.2 0-3.9-1.8-3.9-3.9-.1-2.2 1.7-3.9 3.9-3.9M517.6 40.4c0 2.2-1.8 3.9-3.9 3.9-2.2 0-3.9-1.8-3.9-3.9 0-2.2 1.8-3.9 3.9-3.9 2.1 0 3.9 1.7 3.9 3.9M531.7 40.4c0 2.2-1.8 3.9-3.9 3.9-2.2 0-3.9-1.8-3.9-3.9 0-2.2 1.8-3.9 3.9-3.9 2.2 0 3.9 1.7 3.9 3.9M93.8 35.6c2.2 0 3.9 1.8 3.9 3.9 0 2.2-1.8 3.9-3.9 3.9-2.2 0-3.9-1.8-3.9-3.9-.1-2.1 1.7-3.9 3.9-3.9M123.9 35.6c2.2 0 3.9 1.8 3.9 3.9 0 2.2-1.8 3.9-3.9 3.9-2.2 0-3.9-1.8-3.9-3.9 0-2.1 1.8-3.9 3.9-3.9M139 65.7c2.2 0 3.9 1.8 3.9 3.9 0 2.2-1.8 3.9-3.9 3.9-2.2 0-3.9-1.8-3.9-3.9-.1-2.2 1.7-3.9 3.9-3.9M154 65.7c2.2 0 3.9 1.8 3.9 3.9 0 2.2-1.8 3.9-3.9 3.9-2.2 0-3.9-1.8-3.9-3.9 0-2.2 1.7-3.9 3.9-3.9M169 65.7c2.2 0 3.9 1.8 3.9 3.9 0 2.2-1.8 3.9-3.9 3.9-2.2 0-3.9-1.8-3.9-3.9 0-2.2 1.7-3.9 3.9-3.9M184 65.7c2.2 0 3.9 1.8 3.9 3.9 0 2.2-1.8 3.9-3.9 3.9-2.2 0-3.9-1.8-3.9-3.9 0-2.2 1.8-3.9 3.9-3.9M199 65.7c2.2 0 3.9 1.8 3.9 3.9 0 2.2-1.8 3.9-3.9 3.9-2.2 0-3.9-1.8-3.9-3.9 0-2.2 1.8-3.9 3.9-3.9M214.1 65.7c2.2 0 3.9 1.8 3.9 3.9 0 2.2-1.8 3.9-3.9 3.9-2.2 0-3.9-1.8-3.9-3.9-.1-2.2 1.7-3.9 3.9-3.9M229.1 65.7c2.2 0 3.9 1.8 3.9 3.9 0 2.2-1.8 3.9-3.9 3.9-2.2 0-3.9-1.8-3.9-3.9 0-2.2 1.7-3.9 3.9-3.9M244.1 65.7c2.2 0 3.9 1.8 3.9 3.9 0 2.2-1.8 3.9-3.9 3.9-2.2 0-3.9-1.8-3.9-3.9 0-2.2 1.7-3.9 3.9-3.9M259.1 65.7c2.2 0 3.9 1.8 3.9 3.9 0 2.2-1.8 3.9-3.9 3.9-2.2 0-3.9-1.8-3.9-3.9 0-2.2 1.8-3.9 3.9-3.9M274.2 65.7c2.2 0 3.9 1.8 3.9 3.9 0 2.2-1.8 3.9-3.9 3.9-2.2 0-3.9-1.8-3.9-3.9-.1-2.2 1.7-3.9 3.9-3.9M289.2 65.7c2.2 0 3.9 1.8 3.9 3.9 0 2.2-1.8 3.9-3.9 3.9-2.2 0-3.9-1.8-3.9-3.9 0-2.2 1.7-3.9 3.9-3.9M304.2 65.7c2.2 0 3.9 1.8 3.9 3.9 0 2.2-1.8 3.9-3.9 3.9-2.2 0-3.9-1.8-3.9-3.9 0-2.2 1.7-3.9 3.9-3.9M319.2 65.7c2.2 0 3.9 1.8 3.9 3.9 0 2.2-1.8 3.9-3.9 3.9-2.2 0-3.9-1.8-3.9-3.9 0-2.2 1.7-3.9 3.9-3.9M334.2 65.7c2.2 0 3.9 1.8 3.9 3.9 0 2.2-1.8 3.9-3.9 3.9-2.2 0-3.9-1.8-3.9-3.9 0-2.2 1.8-3.9 3.9-3.9"/></g><g fill="#fff"><path d="M60.8 40.7c12.2-5.5 23.8-11.6 36-17.1C91.2 11.3 78.1.6 61.8.1c-1.5-.1-4.7-.6-6.5.9 4.2 1.5 8.1 3.2 9.7 7.4-6.6 10.4-18.1-5.2-27.7-2.8-4.1 1-5.9 6-7.8 10.1 5.9-.4 8.6-1.8 12.4 0 7.1 3.4 6.2 19.2-2.8 19.4-6.4.1-11.9-8.1-18.4-9.2-10.3-1.8-5.9 8.2-7.8 14.3-1.8 5.5-6.5 5.5-12.9 4.6.9 1.8 4.4 5.7 8.8 5.5 6-.2 8.3-7.9 12.4-8.8 4.1-.9 8.4 2 9.7 3.2 6 5.7 3.8 16.6-6 16.6 1.3 2.2 3.5 3.6 5.5 4.1 7.9 2 18.9-3.8 24.4-2.8 6.9 1.3 3.8 8.6.5 11.1s-8.3 2.9-12.4 3.7c9 3.8 20.1 7 30 3.2 2.1-.8 4.9-2.8 7.4-4.2 7.5-4.3 13.8-10.9 17.1-18-12.2-5.8-25-11.1-36.6-17.7m20.8-23c.3.8.1 1.9-.2 2.4-.3.5-.6 1.3-2 1.7-1.3.4-3.1.2-3.9-.1-.7-.3-1.3-1-1.3-1.8-.4-4.2 3.9-5.7 6.2-3.8 0-.1.9.4 1.2 1.6zM572.7 7.2c-17.3 0-31.3 14-31.3 31.3V80s6.7-13.4 11.5-13.4S562.4 80 563.2 80s5.5-13.4 10.5-13.4 10 13.4 11 13.4c1.1 0 2.7-13.4 8.4-13.4S604 80 604 80V38.5c0-17.3-14-31.3-31.3-31.3m-13.5 37.3c-4.6 0-8.4-4.8-8.4-10.6 0-5.9 3.8-10.6 8.4-10.6 4.6 0 8.4 4.8 8.4 10.6s-3.7 10.6-8.4 10.6m25.5 0c-4.6 0-8.4-4.8-8.4-10.6 0-5.9 3.8-10.6 8.4-10.6 4.6 0 8.4 4.8 8.4 10.6s-3.8 10.6-8.4 10.6"/></g></svg>