<?xml version="1.0" encoding="utf-8"?>
<!-- Generator: Adobe Illustrator 16.0.0, SVG Export Plug-In . SVG Version: 6.00 Build 0)  -->
<!DOCTYPE svg PUBLIC "-//W3C//DTD SVG 1.1//EN" "http://www.w3.org/Graphics/SVG/1.1/DTD/svg11.dtd">
<svg version="1.1" id="Ebene_1" xmlns="http://www.w3.org/2000/svg" xmlns:xlink="http://www.w3.org/1999/xlink" x="0px" y="0px"
	 width="449.497px" height="116.188px" viewBox="0 0 449.497 116.188" enable-background="new 0 0 449.497 116.188"
	 xml:space="preserve">
<g>
	<g>
		<g>
			<path fill="#FFFFFF" d="M127.18,26.231h-6.889v-5.838c0-2.058-0.797-3.108-2.393-3.108c-0.715,0-1.303,0.252-1.807,0.798
				c-0.504,0.504-0.756,1.176-0.756,1.974v31.836c0,0.756,0.209,1.344,0.672,1.848c0.461,0.504,1.008,0.714,1.723,0.714
				c0.756,0,1.344-0.252,1.805-0.714c0.463-0.504,0.715-1.134,0.715-1.89V40.47h-2.395v-5.964h9.324v15.792
				c0,2.1-0.377,3.906-1.133,5.418c-0.758,1.512-1.891,2.646-3.361,3.444c-1.469,0.797-3.234,1.176-5.291,1.176
				c-1.85,0-3.445-0.42-4.83-1.26c-1.387-0.84-2.438-2.1-3.15-3.696c-0.715-1.638-1.092-3.528-1.092-5.754V22.998
				c0-2.436,0.377-4.494,1.133-6.258c0.756-1.722,1.848-3.066,3.318-3.948c1.471-0.882,3.234-1.344,5.25-1.344
				c1.428,0,2.73,0.21,3.822,0.63c1.135,0.42,2.059,1.008,2.855,1.764c0.799,0.756,1.387,1.722,1.807,2.814
				c0.42,1.134,0.631,2.394,0.631,3.864v5.712H127.18z"/>
			<path fill="#FFFFFF" d="M137.303,11.447h6.09l7.309,48.511h-6.848l-0.672-6.3h-5.795l-0.672,6.3h-6.889L137.303,11.447z
				 M140.242,27.492l-2.227,20.329h4.494l-2.143-20.329H140.242z"/>
			<path fill="#FFFFFF" d="M154.564,11.867h4.367l5.84,25.075h0.125l6.385-25.075h4.326l2.184,48.091h-6.637l-0.336-27.006h-0.125
				l-4.914,21.714h-1.639l-4.787-21.294h-0.127l-0.42,26.629h-6.469L154.564,11.867z"/>
			<path fill="#FFFFFF" d="M180.521,11.951h15.119v6.09h-8.146v14.364h7.727v5.964h-7.727v15.624h8.441v5.964h-15.414V11.951z"/>
			<path fill="#FFFFFF" d="M218.027,26.147h-7.014v-3.612V22.41v-0.294c0.043-0.21,0.043-0.462,0.043-0.84
				c0-2.52-0.756-3.78-2.27-3.78c-1.008,0-1.764,0.336-2.225,1.008c-0.463,0.672-0.715,1.722-0.715,3.192v29.359
				c0,0.966,0.252,1.806,0.756,2.436c0.504,0.672,1.135,0.966,1.891,0.966s1.344-0.252,1.807-0.798
				c0.461-0.546,0.713-1.218,0.713-2.058v-7.266h7.014v6.09c0,1.47-0.209,2.856-0.672,4.074c-0.42,1.218-1.092,2.268-1.973,3.15
				c-0.883,0.882-1.891,1.553-3.109,2.017c-1.217,0.461-2.52,0.713-3.947,0.713c-1.848,0-3.527-0.42-4.914-1.301
				c-1.428-0.882-2.52-2.1-3.318-3.696s-1.176-3.486-1.176-5.628V22.83c0-2.352,0.377-4.41,1.176-6.09
				c0.756-1.68,1.891-2.982,3.359-3.906c1.471-0.882,3.193-1.344,5.209-1.344c1.848,0,3.443,0.378,4.871,1.176
				c1.43,0.798,2.521,1.89,3.318,3.318c0.756,1.428,1.176,3.108,1.176,5.04V26.147z"/>
			<path fill="#FFFFFF" d="M228.108,11.447h6.092l7.307,48.511h-6.846l-0.672-6.3h-5.797l-0.672,6.3h-6.93L228.108,11.447z
				 M231.049,27.492l-2.227,20.329h4.494l-2.143-20.329H231.049z"/>
			<path fill="#FFFFFF" d="M245.372,11.867h4.367l5.838,25.075h0.127l6.385-25.075h4.326l2.184,48.091h-6.637l-0.336-27.006h-0.127
				l-4.914,21.714h-1.637l-4.789-21.294h-0.125l-0.42,26.629h-6.469L245.372,11.867z"/>
			<path fill="#FFFFFF" d="M271.833,11.867h8.484c2.1,0,3.904,0.42,5.418,1.26c1.512,0.84,2.645,2.058,3.443,3.696
				c0.799,1.638,1.176,3.57,1.176,5.796v13.272c0,1.932-0.336,3.612-1.049,5.041c-0.715,1.428-1.723,2.52-3.109,3.276
				c-1.385,0.756-2.982,1.134-4.787,1.134h-2.689v14.616h-6.93V11.867H271.833z M278.762,18.083V39.42h1.555
				c2.057,0,3.064-1.302,3.064-3.864v-13.86c0-1.344-0.252-2.268-0.756-2.814s-1.385-0.798-2.604-0.798H278.762L278.762,18.083z"/>
		</g>
		<g>
			<path fill="#FFFFFF" d="M108.49,67.31h3.064l4.117,17.557h0.084l4.494-17.557h3.023l1.512,33.643h-4.619l-0.252-18.9h-0.084
				l-3.445,15.203h-1.133l-3.361-14.91h-0.084l-0.293,18.607h-4.537L108.49,67.31z"/>
			<path fill="#FFFFFF" d="M126.887,67.351h4.83v27.469c0,1.387,0.545,2.059,1.596,2.059c0.629,0,1.049-0.211,1.344-0.588
				c0.293-0.379,0.42-1.092,0.42-2.016V67.351h4.914V93.56c0,1.512-0.252,2.855-0.799,4.031c-0.545,1.135-1.301,2.018-2.268,2.646
				c-0.965,0.631-2.1,0.924-3.359,0.924c-1.344,0-2.479-0.293-3.486-0.84c-1.008-0.545-1.764-1.344-2.352-2.393
				c-0.547-1.051-0.84-2.227-0.84-3.57V67.351z"/>
			<path fill="#FFFFFF" d="M142.469,67.31h3.15c1.301,3.779,2.309,6.803,3.023,9.072c0.377,1.133,0.713,2.184,1.008,3.234
				c0.336,1.008,0.631,2.016,0.883,2.939l0.797,2.898h0.084V67.31h4.494v33.643h-3.234c-0.965-2.688-1.973-5.713-3.023-9.031
				c-0.504-1.637-0.924-2.896-1.176-3.738c-0.252-0.84-0.504-1.637-0.715-2.309l-0.756-2.773h-0.084v17.852h-4.494V67.31H142.469z"
				/>
			<path fill="#FFFFFF" d="M158.723,67.31h4.873v33.643h-4.873V67.31z"/>
			<path fill="#FFFFFF" d="M179.682,77.306h-4.914v-2.52v-0.127v-0.211c0.041-0.125,0.041-0.336,0.041-0.588
				c0-1.764-0.545-2.645-1.596-2.645c-0.715,0-1.219,0.252-1.555,0.713c-0.336,0.463-0.504,1.219-0.504,2.227v20.539
				c0,0.672,0.168,1.26,0.547,1.721c0.336,0.463,0.797,0.672,1.344,0.672c0.504,0,0.924-0.209,1.26-0.588
				c0.336-0.377,0.504-0.84,0.504-1.428v-5.082h4.914v4.242c0,1.051-0.168,1.975-0.461,2.855c-0.295,0.84-0.756,1.598-1.387,2.227
				c-0.631,0.631-1.344,1.092-2.184,1.428s-1.764,0.504-2.773,0.504c-1.301,0-2.436-0.293-3.443-0.924
				c-1.008-0.629-1.764-1.469-2.311-2.604c-0.545-1.135-0.84-2.436-0.84-3.906V74.995c0-1.639,0.252-3.066,0.799-4.242
				c0.545-1.176,1.303-2.1,2.352-2.73c1.008-0.629,2.227-0.924,3.654-0.924c1.26,0,2.436,0.295,3.402,0.84
				c1.008,0.547,1.764,1.344,2.311,2.311c0.545,1.008,0.797,2.184,0.797,3.527v3.529H179.682z"/>
			<path fill="#FFFFFF" d="M182.285,67.351h4.873v14.113h3.443V67.351h4.871v33.602h-4.871V85.831h-3.443v15.121h-4.873V67.351z"/>
			<path fill="#FFFFFF" d="M203.285,89.276h21.127v2.561h-21.127V89.276z"/>
			<path fill="#FFFFFF" d="M238.567,96.835h6.09v4.117h-12.096l6.805-19.363c0.461-1.26,0.797-2.395,0.965-3.443
				c0.168-1.008,0.252-2.227,0.252-3.611c0-1.43-0.125-2.354-0.377-2.898c-0.252-0.504-0.715-0.756-1.428-0.756
				c-0.631,0-1.051,0.293-1.262,0.84c-0.209,0.545-0.336,1.596-0.336,3.15v2.645h-4.326v-2.855c0-2.563,0.506-4.451,1.471-5.754
				c1.008-1.303,2.479-1.932,4.453-1.932c0.797,0,1.553,0.125,2.268,0.42c0.713,0.293,1.303,0.672,1.807,1.217
				c0.713,0.715,1.26,1.639,1.596,2.689c0.336,1.049,0.461,2.436,0.461,4.115c0,2.436-0.42,4.873-1.301,7.309L238.567,96.835z"/>
			<path fill="#FFFFFF" d="M247.303,94.61V73.399c0-1.303,0.211-2.479,0.672-3.402c0.463-0.967,1.135-1.68,2.059-2.184
				s1.973-0.756,3.15-0.756c2.016,0,3.527,0.545,4.535,1.637s1.555,2.73,1.555,4.957v21.211c0,1.344-0.211,2.477-0.672,3.402
				c-0.463,0.924-1.135,1.637-2.018,2.141c-0.881,0.463-1.973,0.715-3.232,0.715c-1.891,0-3.361-0.504-4.41-1.555
				c-0.547-0.545-0.924-1.133-1.176-1.848C247.555,97.003,247.387,95.954,247.303,94.61z M251.629,72.728V95.45
				c0,0.545,0.168,1.008,0.463,1.344c0.293,0.336,0.672,0.545,1.133,0.545c0.547,0,0.924-0.168,1.219-0.545
				c0.293-0.336,0.42-0.84,0.42-1.471V72.769c0-0.545-0.127-1.008-0.42-1.385c-0.295-0.379-0.631-0.547-1.092-0.547
				c-0.504,0-0.883,0.168-1.219,0.547C251.797,71.72,251.629,72.181,251.629,72.728z"/>
			<path fill="#FFFFFF" d="M262.969,69.913l7.057-2.814h0.504v33.854h-4.367V72.56l-3.193,1.176V69.913z"/>
			<path fill="#FFFFFF" d="M288.254,75.247h-4.369v-1.975c0-1.596-0.545-2.393-1.68-2.393c-1.049,0-1.596,0.713-1.596,2.1v7.309
				c0.588-0.588,1.135-1.008,1.639-1.219s1.092-0.336,1.721-0.336c1.346,0,2.395,0.42,3.15,1.26s1.135,2.059,1.135,3.611v11.047
				c0,2.059-0.504,3.654-1.555,4.746c-1.049,1.092-2.52,1.639-4.494,1.639c-1.932,0-3.402-0.588-4.41-1.764
				s-1.512-2.857-1.512-4.998v-20.33c0-1.428,0.252-2.688,0.715-3.736c0.461-1.051,1.133-1.85,2.057-2.438
				c0.883-0.545,1.934-0.84,3.15-0.84c1.219,0,2.311,0.252,3.234,0.756s1.639,1.219,2.1,2.143c0.504,0.924,0.756,2.016,0.756,3.275
				v2.143H288.254z M280.61,85.202v9.953c0,0.631,0.127,1.092,0.42,1.428c0.295,0.336,0.672,0.547,1.219,0.547
				c0.504,0,0.924-0.168,1.217-0.504c0.295-0.336,0.42-0.799,0.42-1.387V84.991c0-0.672-0.125-1.176-0.377-1.555
				c-0.252-0.336-0.631-0.545-1.176-0.545C281.198,82.933,280.61,83.688,280.61,85.202z"/>
		</g>
	</g>
	<path fill="#DAEDFA" d="M444.959,49.206c-3.066-2.394-6.93-4.284-10.92-3.612c-3.443,0.672-5.754,2.394-8.232,4.746
		c-2.52,2.394-3.57,5.544-7.225,6.594c-2.813,0.84-5.922,0.378-8.525-0.924c-5.629-2.772-10.668-8.946-10.207-15.499
		c0.252-3.402,2.814-6.09,5.461-8.022c1.555-1.092,4.535-2.142,8.441-2.646c-5.039-7.014-12.6-6.762-21.504-6.006
		c-7.057,0.588-14.826,4.956-21.967,3.234c-7.938-1.89-5.418-10.039-0.588-13.944c5.629-4.578,13.23-5.292,20.244-4.746
		c-5.039-2.562-10.289-4.746-15.707-6.3c-11.131-3.15-20.582-2.562-28.352,0.672c-20.16,3.234-32.424,13.44-39.061,31.417
		l49.52,23.185L306.02,82.177c6.049,16.885,19.572,26.168,37.045,28.855c7.855,4.703,17.516,6.51,28.939,4.074
		c-3.275-1.219-6.426-3.023-9.408-4.914c-2.1-1.344-4.41-2.898-5.166-4.662c0,0-0.211-0.084-0.211-1.051
		c0-0.965,0.211-1.26,0.211-1.26c3.779-6.51,12.852-3.486,18.018-1.092c5.797,2.688,12.35,6.846,19.027,5.713
		c6.721-1.135,10.457-9.115,12.475-14.953c-7.352,2.1-18.188,3.443-22.471-4.621c-3.193-6.006-2.941-17.471,4.283-20.496
		c7.98-3.318,13.818,3.949,19.699,7.309c5.123,2.939,15.539,8.863,19.656,1.344c3.191-5.879-0.379-12.475,2.646-18.271
		c3.779-7.224,12.348-5.544,18.732-4.62C448.069,52.062,446.639,50.508,444.959,49.206z M332.944,33.708
		c-3.361,0-6.09-2.73-6.09-6.09c0-3.36,2.729-6.09,6.09-6.09c3.359,0,6.09,2.73,6.09,6.09
		C339.034,30.978,336.303,33.708,332.944,33.708z"/>
	<circle fill="#DAEDFA" cx="77.912" cy="58.153" r="3.823"/>
	<circle fill="#DAEDFA" cx="42.086" cy="58.153" r="3.823"/>
	<circle fill="#DAEDFA" cx="42.086" cy="58.153" r="3.823"/>
	<circle fill="#DAEDFA" cx="3.822" cy="58.153" r="3.823"/>
</g>
</svg>
