<svg xmlns="http://www.w3.org/2000/svg" viewBox="0 0 690 110" enable-background="new 0 0 690 110"><g fill="#fff"><path d="M156.9 11.9l-2.1 4.2c-2.6-1.9-5.1-2.9-7.6-2.9-3.9 0-7 1.4-9.3 4.1-2.3 2.8-3.4 6.4-3.4 11 0 4.3 1.1 7.8 3.3 10.5 2.2 2.6 5.3 4 9.1 4 2.7 0 4.9-.8 6.6-2.5v-8.8h-5.2v-4.3h10.3v16.3c-1.4 1.2-3.3 2.1-5.7 2.8-2.4.7-4.8 1.1-7.1 1.1-5.2 0-9.2-1.8-12.2-5.3s-4.5-8.2-4.5-14c0-5.8 1.6-10.5 4.9-14.1 3.3-3.6 7.7-5.4 13.3-5.4 4 .1 7.2 1.2 9.6 3.3zM179.4 43.6c-1.9 2.4-4.9 3.7-8.9 3.7-2.1 0-4-.8-5.6-2.3-1.6-1.6-2.4-3.5-2.4-5.8 0-2.8 1.2-5.1 3.6-7 2.4-1.9 5.5-2.9 9.3-2.9 1 0 2.2.2 3.5.7 0-4.4-2-6.6-5.9-6.6-3 0-5.4.8-7 2.5l-2-4.1c.9-.7 2.2-1.4 3.8-1.9 1.6-.5 3.2-.8 4.7-.8 4 0 6.9.9 8.6 2.7 1.8 1.8 2.7 4.7 2.7 8.6V40c0 2.4.7 4 2.1 4.8v2.4c-2 0-3.5-.3-4.4-.8-1-.5-1.7-1.5-2.1-2.8zm-.5-10.3c-1.5-.3-2.6-.5-3.2-.5-2.5 0-4.5.6-6 1.9-1.6 1.3-2.3 2.8-2.3 4.5 0 2.8 1.7 4.3 5 4.3 2.5 0 4.6-1.2 6.5-3.5v-6.7zM221 46.8V29.5c0-4.3-1.9-6.5-5.6-6.5-1.2 0-2.3.4-3.3 1.1-1 .7-1.7 1.5-2.1 2.5v20.2h-4.9V27.3c0-1.3-.5-2.4-1.5-3.2-1-.8-2.4-1.2-4-1.2-1 0-2 .4-3.1 1.1-1.1.7-1.9 1.6-2.3 2.5v20.2h-4.9V19.4h3.2l1.6 3.2c1.9-2.5 4.2-3.7 7-3.7 3.9 0 6.7 1.2 8.2 3.7.5-1 1.6-1.9 3-2.6 1.5-.7 3-1 4.6-1 2.8 0 5 .8 6.6 2.5 1.5 1.7 2.3 4 2.3 7.1v18.3H221zM253.7 33.6H234c0 3.2.9 5.7 2.6 7.4 1.5 1.5 3.5 2.2 6 2.2 2.8 0 5.1-.8 6.9-2.4l2 3.5c-.7.7-1.9 1.4-3.4 1.9-1.9.7-4.1 1.1-6.5 1.1-3.4 0-6.4-1.2-8.8-3.5-2.7-2.6-4-6-4-10.4 0-4.5 1.4-8.1 4.1-10.9 2.5-2.4 5.4-3.7 8.7-3.7 3.9 0 7 1.1 9.2 3.3 2.1 2.1 3.2 4.9 3.2 8.4.1 1.2-.1 2.2-.3 3.1zM241.9 23c-2.2 0-4 .7-5.4 2.1-1.4 1.3-2.2 3-2.4 5h15.2c0-2-.6-3.6-1.8-4.9-1.4-1.5-3.3-2.2-5.6-2.2zM257.4 45.1l1.7-4.6c2.7 1.8 4.9 2.7 6.5 2.7 3 0 4.5-1.3 4.5-3.8 0-1.8-1.4-3.4-4.3-4.7-2.2-1-3.7-1.8-4.5-2.3-.8-.5-1.4-1.1-2-1.8-.6-.7-1-1.4-1.3-2.1-.3-.8-.4-1.6-.4-2.4 0-2.2.8-4 2.5-5.3 1.6-1.3 3.8-1.9 6.4-1.9 2 0 4.5.6 7.5 1.9l-1.4 4.5c-1.9-1.5-3.9-2.3-5.8-2.3-1.2 0-2.1.3-2.9.8-.8.5-1.2 1.2-1.2 2.1 0 1.8 1 3.1 3 4l3.5 1.6c2.1 1 3.7 2.1 4.7 3.3 1 1.2 1.5 2.8 1.5 4.7 0 2.5-.9 4.4-2.6 5.8-1.7 1.4-4.1 2.1-7.2 2.1-3-.1-5.7-.8-8.2-2.3z"/></g><g fill="#fff"><path d="M408 46.8h-10.7V9.3c4.5-.2 7.8-.3 9.8-.3 3.7 0 6.6.8 8.6 2.4 2 1.6 3 3.9 3 6.8 0 1.7-.6 3.3-1.9 4.8-1.3 1.4-2.7 2.3-4.3 2.7 3 .7 5.1 1.9 6.5 3.6 1.4 1.7 2 3.9 2 6.7 0 3.3-1.2 5.9-3.6 7.9-2.4 1.9-5.5 2.9-9.4 2.9zm-5.6-33.4v10.8c1.1.1 2.4.2 4 .2 4.8 0 7.3-2 7.3-5.9 0-3.5-2.2-5.2-6.7-5.2-1.7 0-3.2 0-4.6.1zm0 14.7v14.3c1.8.2 3.1.3 4 .3 3.2 0 5.5-.6 7-1.8 1.5-1.2 2.2-3.1 2.2-5.7 0-2.4-.7-4.2-2.1-5.4-1.4-1.2-3.8-1.7-7-1.7h-4.1zM441 43.6c-1.9 2.4-4.9 3.7-8.9 3.7-2.1 0-4-.8-5.6-2.3-1.6-1.6-2.4-3.5-2.4-5.8 0-2.8 1.2-5.1 3.6-7 2.4-1.9 5.5-2.9 9.3-2.9 1 0 2.2.2 3.5.7 0-4.4-2-6.6-5.9-6.6-3 0-5.4.8-7 2.5l-2-4.1c.9-.7 2.2-1.4 3.8-1.9 1.6-.5 3.2-.8 4.7-.8 4 0 6.9.9 8.6 2.7 1.8 1.8 2.7 4.7 2.7 8.6V40c0 2.4.7 4 2.1 4.8v2.4c-2 0-3.5-.3-4.4-.8-1-.5-1.7-1.5-2.1-2.8zm-.5-10.3c-1.5-.3-2.6-.5-3.2-.5-2.5 0-4.5.6-6 1.9-1.5 1.3-2.3 2.8-2.3 4.5 0 2.8 1.7 4.3 5 4.3 2.5 0 4.6-1.2 6.5-3.5v-6.7zM460.8 47.3h-1.3l-11.7-28h5.3l7.2 19.2 7.4-19.2h5.1l-12 28zM491 43.6c-1.9 2.4-4.9 3.7-8.9 3.7-2.1 0-4-.8-5.6-2.3-1.6-1.6-2.4-3.5-2.4-5.8 0-2.8 1.2-5.1 3.6-7 2.4-1.9 5.5-2.9 9.3-2.9 1 0 2.2.2 3.5.7 0-4.4-2-6.6-5.9-6.6-3 0-5.4.8-7 2.5l-2-4.1c.9-.7 2.2-1.4 3.8-1.9 1.6-.5 3.2-.8 4.7-.8 4 0 6.9.9 8.6 2.7 1.8 1.8 2.7 4.7 2.7 8.6V40c0 2.4.7 4 2.1 4.8v2.4c-2 0-3.5-.3-4.4-.8-1-.5-1.7-1.5-2.1-2.8zm-.5-10.3c-1.5-.3-2.6-.5-3.2-.5-2.5 0-4.5.6-6 1.9-1.5 1.3-2.3 2.8-2.3 4.5 0 2.8 1.7 4.3 5 4.3 2.5 0 4.6-1.2 6.5-3.5v-6.7zM516.8 24.1c-1.1-.7-2.1-1.1-3.2-1.1-1.7 0-3.2.8-4.5 2.4-1.3 1.6-1.9 3.5-1.9 5.7v15.7h-4.9V19.4h4.9v4.4c1.8-3.3 4.4-4.9 7.9-4.9.9 0 2.1.2 3.8.5l-2.1 4.7zM525.7 46.8V23.5h-3.8v-4.1h8.6v27.4h-4.8zm2.6-37.7c.8 0 1.5.3 2.1.9.6.6.9 1.3.9 2.1s-.3 1.5-.9 2.1c-.6.6-1.3.9-2.1.9s-1.5-.3-2.1-.9c-.6-.6-.9-1.3-.9-2.1s.3-1.5.9-2.1c.6-.6 1.3-.9 2.1-.9zM552.7 43.6c-1.9 2.4-4.9 3.7-8.9 3.7-2.1 0-4-.8-5.6-2.3-1.6-1.6-2.4-3.5-2.4-5.8 0-2.8 1.2-5.1 3.6-7 2.4-1.9 5.5-2.9 9.3-2.9 1 0 2.2.2 3.5.7 0-4.4-2-6.6-5.9-6.6-3 0-5.4.8-7 2.5l-2-4.1c.9-.7 2.2-1.4 3.8-1.9 1.6-.5 3.2-.8 4.7-.8 4 0 6.9.9 8.6 2.7 1.8 1.8 2.7 4.7 2.7 8.6V40c0 2.4.7 4 2.1 4.8v2.4c-2 0-3.5-.3-4.4-.8-1-.5-1.7-1.5-2.1-2.8zm-.5-10.3c-1.5-.3-2.6-.5-3.2-.5-2.5 0-4.5.6-6 1.9-1.5 1.3-2.3 2.8-2.3 4.5 0 2.8 1.7 4.3 5 4.3 2.5 0 4.6-1.2 6.5-3.5v-6.7z"/></g><g fill="#fff"><path d="M280.7 55.4H317l-18.1-27.7zM335.2 27.7h-36.3L317 55.4zM335.2 27.7h36.4L353.4 0zM389.8 0h-36.4l18.2 27.7z"/></g><path fill="#999" d="M303.9 43.6l2-4.4-1.1-1.6-3.4 7.6 8.3.1-1-1.7zM366.5 11.3h-4.7l-1.2-1.6 8.4-.1-3.2 7.7-1.1-1.6z"/><path fill="#fff" d="M324.3 11.5l4.2 2.3 1.7-.9-7.2-4.1-.9 8.3 1.7-.9zM346.2 44l-4.2-2.2-1.7.9 7.4 3.9.6-8.4-1.8 1z"/><path opacity=".3" fill="none" stroke="#fff" stroke-miterlimit="10" d="M115 66.5h460"/><path fill="none" d="M129.2 77h432.3v43.5H129.2z"/><path fill="#fff" d="M131.6 77h2.3l13.1 29.5L160.1 77h2.3l-14.3 32.1h-2.3L131.6 77zM164.8 77h25.4v1.8h-23.3v12.8h22.4v1.8h-22.4v13.9h23.6v1.8h-25.6V77zM193.9 77h16.4c6.2 0 10.8 1.8 10.8 8.5 0 3.3-2 6.9-6.6 8v.1c3.9.5 6 3.2 6 6.7.1 5.8.3 7.7.9 8.9h-2.1c-.6-.5-.8-2.6-.9-7.5-.1-5.6-1.9-7.2-8.3-7.2H196v14.6h-2.1V77zm2.1 15.7h14c2 0 9.1 0 9.1-7.3 0-5.2-4-6.6-8.6-6.6H196v13.9zM225.6 77h2.6l24 29.2h.1V77h2.1v32.1h-2.6l-24-29.2h-.1v29.2h-2.1V77zM259.8 77h2.1v32.1h-2.1V77zM267.9 98.5c0 6 3.7 9.5 12.3 9.5 7.9 0 10.8-3.4 10.8-7.2 0-3.6-1.7-5.2-8.5-6.6l-6-1.3c-7-1.5-9.7-3.6-9.7-8.4 0-4.8 4.2-8.3 12.1-8.3 8.1 0 13.2 3 13.5 9.8h-2.1c-.3-3.7-2.3-8-10.8-8-7.8 0-10.4 2.9-10.4 6.6 0 3.4 1.5 5.1 7.6 6.3l6.6 1.3c6.4 1.3 9.9 3.3 9.9 8.5 0 4.4-2.9 9.1-12.9 9.1-10.5 0-14.6-4.5-14.6-11.3h2.2zM297.9 98.5c0 6 3.7 9.5 12.3 9.5 7.9 0 10.8-3.4 10.8-7.2 0-3.6-1.7-5.2-8.5-6.6l-6-1.3c-7-1.5-9.7-3.6-9.7-8.4 0-4.8 4.2-8.3 12.1-8.3 8.1 0 13.2 3 13.5 9.8h-2.1c-.3-3.7-2.3-8-10.8-8-7.8 0-10.4 2.9-10.4 6.6 0 3.4 1.5 5.1 7.6 6.3l6.6 1.3c6.4 1.3 9.9 3.3 9.9 8.5 0 4.4-2.9 9.1-12.9 9.1-10.5 0-14.6-4.5-14.6-11.3h2.2zM338.8 77h2.3l14.8 32.1h-2.3l-4.7-10.3h-17.7l-4.7 10.3h-2.3L338.8 77zm-6.9 20H348l-8-17.7-8.1 17.7zM375.2 93.1h15v16h-1.8v-7.9h-.1c-2.4 5.8-7.9 8.6-14 8.6-9.8 0-17.1-6.2-17.1-16.8 0-7.8 5.3-16.8 17.1-16.8 7.9 0 13.7 3.9 15.3 10.8h-2.1c-1.4-5.9-6.8-9-13.2-9-9.2 0-15 6.9-15 15s5.2 15 15 15c8.1 0 13.4-5 13.9-13.1h-12.9v-1.8zM395.6 77H421v1.8h-23.3v12.8H420v1.8h-22.4v13.9h23.6v1.8h-25.6V77zM446.6 109.8c-9.9 0-13.3-7.8-13.3-16.6s3.4-16.6 13.3-16.6c10 0 13.3 7.7 13.3 16.6 0 9-3.2 16.6-13.3 16.6zm0-31.3c-8.6 0-11.2 7.2-11.2 14.8 0 7.5 2.5 14.8 11.2 14.8 8.8 0 11.2-7.1 11.2-14.8 0-7.7-2.4-14.8-11.2-14.8zM468 77.5h18.3v1.8h-16.7l-2.7 12.2h.1c2.4-2.4 5.9-3.5 9.3-3.5 7.2 0 11.7 4.5 11.7 10.7 0 7.4-5.2 11.2-12.5 11.2-6.6 0-11.8-3.6-12-10.3h2.1c.5 6 4.4 8.5 10.2 8.5 6.3 0 10.1-3.2 10.1-9.3 0-4.3-2.8-9-10.1-9-4.6 0-7.9 2.2-9.3 4.3h-2.1l3.6-16.6zM494.2 104.6h2.3v4.5h-2.3v-4.5zM515 109.8c-9.9 0-13.3-7.8-13.3-16.6s3.4-16.6 13.3-16.6c10 0 13.3 7.7 13.3 16.6-.1 9-3.3 16.6-13.3 16.6zm0-31.3c-8.6 0-11.2 7.2-11.2 14.8 0 7.5 2.5 14.8 11.2 14.8 8.8 0 11.2-7.1 11.2-14.8 0-7.7-2.5-14.8-11.2-14.8zM553.7 85c-.5-4.7-4.7-6.5-9-6.5-9.8 0-10.9 8.5-10.9 16.1h.1c1-3.1 4.4-6.6 10.6-6.6 6.7 0 11.8 3.9 11.8 10.8 0 6.3-4.6 11.1-12.1 11.1-9.6 0-12.5-6.8-12.5-15.3 0-9.6 2.1-17.8 13.3-17.8 6.2 0 10.3 3.3 10.7 8.3h-2zm-19.3 13.8c0 3.3 1.7 9.3 10.2 9.3 5.7 0 9.7-3.6 9.7-9.3 0-5.1-3.4-9-9.6-9-6.6 0-10.3 3.8-10.3 9z"/></svg>