<?xml version="1.0" encoding="utf-8"?>
<!-- Generator: Adobe Illustrator 16.0.0, SVG Export Plug-In . SVG Version: 6.00 Build 0)  -->
<!DOCTYPE svg PUBLIC "-//W3C//DTD SVG 1.1//EN" "http://www.w3.org/Graphics/SVG/1.1/DTD/svg11.dtd">
<svg version="1.1" xmlns="http://www.w3.org/2000/svg" xmlns:xlink="http://www.w3.org/1999/xlink" x="0px" y="0px"
	 width="603.988px" height="97.594px" viewBox="0 0 603.988 97.594" enable-background="new 0 0 603.988 97.594"
	 xml:space="preserve">
<g id="Ebene_1">
	<g>
		<rect x="142.894" y="16.331" fill="none" width="231.043" height="48.643"/>
		<path fill="#FFFFFF" d="M144.886,34.981c0-7.162,4.02-8.851,10.777-8.851h11.283c8.514,0,9.696,3.074,9.696,7.837v0.777h-7.365
			c0-2.433-1.385-2.737-3.784-2.737h-8.142c-3.784,0-4.763,0.912-4.763,5.102v3.041c0,4.189,0.979,5.101,4.763,5.101h8.007
			c1.959,0,3.918-0.304,3.918-2.669v-0.709h-9.324v-5.067h16.824v6.959c0,7.027-3.648,7.364-12.094,7.364h-9.02
			c-6.757,0-10.777-1.689-10.777-8.851V34.981z"/>
		<path fill="#FFFFFF" d="M180.391,42.321c0-6.63,4.579-7.012,13.451-7.012c5.008,0,7.775,0.143,9.54,1.956v-2.146
			c0-2.385-0.716-3.244-4.293-3.244h-5.39c-2.671,0-3.434,0.239-3.53,1.956h-8.872c0-6.583,3.244-7.68,10.971-7.68h10.637
			c6.296,0,9.635,3.005,9.635,8.729v15.979h-8.681v-2.767c-2.528,2.624-3.482,3.148-8.062,3.148h-6.249
			c-5.581,0.048-9.158-1.192-9.158-6.916V42.321z M196.704,45.517c6.296,0,6.868-0.954,6.868-2.576c0-1.812-0.524-2.48-5.581-2.48
			h-4.054c-3.864,0-4.675,0.859-4.675,2.862c0,1.574,1.24,2.194,4.818,2.194H196.704z"/>
		<path fill="#FFFFFF" d="M217.972,26.532h8.729v4.77h0.095c0.477-3.482,3.625-5.151,8.109-5.151h3.482
			c4.341,0,7.298,1.86,9.015,5.676c1.526-4.389,3.482-5.676,8.681-5.676h2.814c8.347,0,11.353,4.054,11.353,11.019v13.689h-9.158
			V37.79c0-3.339-0.859-4.484-6.201-4.484c-4.388,0-6.201,0.954-6.201,4.15v13.403h-9.158V37.074c0-3.005-1.097-3.768-6.63-3.768
			c-3.911,0-5.771,0.954-5.771,4.722v12.831h-9.158V26.532z"/>
		<path fill="#FFFFFF" d="M274.963,37.36c0-9.206,4.579-11.209,11.257-11.209h6.392c9.73,0,13.737,2.051,13.737,10.494v4.102
			h-22.228v1.479c0,2.576,1.812,3.291,5.628,3.291h2.814c4.96,0,5.199-1.335,5.199-2.767h8.586v1.049
			c0,6.105-5.438,7.441-12.068,7.441h-6.869c-6.058,0-12.449-1.145-12.449-11.543V37.36z M297.477,35.309
			c0-2.91-1.335-3.435-6.678-3.435c-5.962,0-6.678,0.525-6.678,3.435H297.477z"/>
	</g>
	<g>
		<rect x="313.721" y="16.331" fill="none" width="189.671" height="48.643"/>
		<path fill="#F7951D" d="M316.488,35.978c0-8.825,6.201-9.826,12.21-9.826h6.869c7.632,0,10.637,3.101,10.637,8.252v0.667h-3.815
			v-0.572c0-4.054-2.671-5.008-6.773-5.008h-7.536c-3.864,0-7.489,0.572-7.489,6.63v5.104c0,5.438,3.339,6.678,8.3,6.678h6.916
			c3.816,0,7.012-1.145,7.012-5.104v-0.811h3.816v0.715c0,6.153-3.053,8.539-10.686,8.539h-9.253
			c-3.673,0-10.208-1.002-10.208-9.826V35.978z"/>
		<path fill="#F7951D" d="M378.062,48.427h-0.096c-1.097,2.194-2.385,2.814-8.681,2.814h-9.826c-6.201,0-7.822-2.719-7.822-7.298
			v-1.622c0-5.533,3.911-6.201,11.065-6.201h6.583c5.342,0,7.25,0.572,8.681,2.91h0.096v-4.579c0-4.389-2.767-4.961-9.062-4.961
			h-6.011c-5.151,0-6.152,1.24-6.152,3.244v0.858h-4.103V32.4c0-4.436,2.814-6.249,10.16-6.249h6.486
			c7.632,0,12.784,1.145,12.784,8.395v16.313h-4.103V48.427z M378.062,43.228c0-3.339-2.957-3.768-9.254-3.768h-6.296
			c-5.295,0-6.773,0.763-6.773,3.816v0.763c0,2.719,0.954,3.863,6.583,3.863h5.438c7.44,0,10.303-0.524,10.303-3.577V43.228z"/>
		<path fill="#F7951D" d="M389.408,26.533h3.816v2.862h0.096c1.717-2.528,4.054-3.244,8.156-3.244h6.63
			c3.721,0,6.583,1.479,7.87,4.483c1.526-3.291,4.818-4.483,9.016-4.483h4.961c6.582,0,10.637,2.862,10.637,8.395v16.313h-4.103
			V35.023c0-2.814-1.24-5.533-7.774-5.533h-2.91c-7.394,0-8.395,3.053-8.395,6.964v14.405h-4.103V36.121
			c0-4.722-1.479-6.63-8.014-6.63h-4.102c-5.247,0-7.68,2.194-7.68,6.105v15.264h-4.103V26.533z"/>
		<path fill="#F7951D" d="M448.307,26.533h3.816v3.864h0.096c1.192-2.958,4.531-4.245,8.156-4.245h7.774
			c5.819,0,11.257,1.86,11.257,10.255V40.7c0,7.87-3.481,10.542-11.924,10.542h-7.823c-4.341,0-6.296-1.097-7.154-3.625h-0.096
			v11.733h-4.103V26.533z M475.305,36.454c0-4.722-1.526-6.964-7.298-6.964h-8.156c-5.391,0-7.441,2.814-7.441,7.012v4.627
			c0,5.819,3.625,6.773,7.966,6.773h7.298c4.77,0,7.632-1.049,7.632-6.678V36.454z"/>
	</g>
	<g>
		<rect x="120.507" y="85.861" fill="none" width="382.886" height="11.733"/>
		<path fill="#FFFFFF" d="M176.477,91.599c0-1.068,0.696-1.775,2.411-1.896l3.046-0.191c1.943-0.119,2.075-0.156,2.075-1.008
			c0-0.707-0.072-0.863-1.775-0.863h-1.763c-1.127,0-1.476,0.168-1.476,1.068v0.371h-2.519v-1.02c0-1.715,1.008-2.291,3.406-2.291
			h3.502c2.495,0,3.143,0.744,3.143,2.555c0,2.555-0.468,2.986-3.574,3.154l-2.747,0.145c-1.115,0.061-1.283,0.275-1.283,1.055
			h7.724v1.871h-10.17V91.599z"/>
		<path fill="#FFFFFF" d="M188.333,91.599c0-1.068,0.696-1.775,2.411-1.896l3.046-0.191c1.943-0.119,2.075-0.156,2.075-1.008
			c0-0.707-0.072-0.863-1.775-0.863h-1.763c-1.127,0-1.475,0.168-1.475,1.068v0.371h-2.519v-1.02c0-1.715,1.008-2.291,3.406-2.291
			h3.502c2.495,0,3.143,0.744,3.143,2.555c0,2.555-0.468,2.986-3.574,3.154l-2.747,0.145c-1.115,0.061-1.283,0.275-1.283,1.055
			h7.724v1.871h-10.17V91.599z"/>
		<path fill="#FFFFFF" d="M201.053,92.103h2.519v2.445h-2.519V92.103z"/>
		<path fill="#FFFFFF" d="M214.503,85.769h1.823l-3.982,8.875h-1.823L214.503,85.769z"/>
		<path fill="#FFFFFF" d="M222.412,91.599c0-1.068,0.696-1.775,2.411-1.896l3.046-0.191c1.943-0.119,2.075-0.156,2.075-1.008
			c0-0.707-0.072-0.863-1.775-0.863h-1.763c-1.127,0-1.475,0.168-1.475,1.068v0.371h-2.519v-1.02c0-1.715,1.008-2.291,3.406-2.291
			h3.502c2.495,0,3.143,0.744,3.143,2.555c0,2.555-0.468,2.986-3.574,3.154l-2.747,0.145c-1.115,0.061-1.283,0.275-1.283,1.055
			h7.724v1.871h-10.17V91.599z"/>
		<path fill="#FFFFFF" d="M234.208,91.466h2.519v0.385c0,0.73,0.228,0.922,1.151,0.922h3.178c0.828,0,0.923-0.227,0.923-0.814
			c0-0.576-0.144-0.84-0.959-0.84h-2.734V89.32h2.482c0.864,0,1.02-0.217,1.02-0.84c0-0.672-0.42-0.84-1.211-0.84h-2.639
			c-0.863,0-1.127,0.18-1.127,0.828v0.371h-2.519v-0.479c0-2.34,1.139-2.592,4.401-2.592h1.787c3.094,0,3.826,0.48,3.826,2.398
			c0,1.465-0.252,1.645-1.439,2.004v0.035c1.403,0.24,1.631,0.684,1.631,2.064c0,1.715-0.6,2.373-3.01,2.373h-4.426
			c-1.547,0-2.854-0.443-2.854-2.254V91.466z"/>
		<path fill="#FFFFFF" d="M246.988,92.103h2.519v2.445h-2.519V92.103z"/>
		<path fill="#FFFFFF" d="M257.44,90.806h2.591v0.768c0,0.648,0.335,0.912,1.163,0.912h1.056c0.875,0,1.391-0.107,1.391-0.912
			v-5.709h2.663v5.926c0,2.387-1.308,2.854-3.718,2.854h-1.739c-2.495,0-3.406-0.768-3.406-2.793V90.806z"/>
		<path fill="#FFFFFF" d="M276.191,94.548h-2.303v-0.982h-0.024c-0.408,0.852-1.211,1.078-2.447,1.078
			c-1.427,0-3.418-0.059-3.418-2.697v-3.514h2.303v3.514c0,0.6,0.48,0.898,1.487,0.898h0.528c0.983,0,1.571-0.455,1.571-1.33v-3.082
			h2.303V94.548z"/>
		<path fill="#FFFFFF" d="M277.779,88.433h2.303v0.982h0.024c0.408-0.852,1.211-1.08,2.447-1.08c1.427,0,3.418,0.061,3.418,2.699
			v3.514h-2.303v-3.514c0-0.6-0.479-0.9-1.487-0.9h-0.528c-0.983,0-1.571,0.457-1.571,1.332v3.082h-2.303V88.433z"/>
		<path fill="#FFFFFF" d="M289.994,87.666h-2.303v-1.801h2.303V87.666z M289.994,94.548h-2.303v-6.115h2.303V94.548z"/>
		<path fill="#FFFFFF" d="M297.831,90.435h3.358v2.158h-3.358V90.435z"/>
		<path fill="#FFFFFF" d="M309.002,85.865h4.09l3.011,5.59l3.01-5.59h4.089v8.684h-2.59v-6.236h-0.023l-3.49,6.236h-1.991
			l-3.49-6.236h-0.023v6.236h-2.591V85.865z"/>
		<path fill="#FFFFFF" d="M333.095,94.548h-2.303v-0.982h-0.025c-0.406,0.852-1.211,1.078-2.445,1.078
			c-1.428,0-3.418-0.059-3.418-2.697v-3.514h2.303v3.514c0,0.6,0.479,0.898,1.486,0.898h0.527c0.984,0,1.572-0.455,1.572-1.33
			v-3.082h2.303V94.548z"/>
		<path fill="#FFFFFF" d="M334.683,88.433h2.303v0.982h0.023c0.408-0.852,1.213-1.08,2.447-1.08c1.428,0,3.418,0.061,3.418,2.699
			v3.514h-2.303v-3.514c0-0.6-0.48-0.9-1.486-0.9h-0.529c-0.982,0-1.57,0.457-1.57,1.332v3.082h-2.303V88.433z"/>
		<path fill="#FFFFFF" d="M346.897,87.666h-2.303v-1.801h2.303V87.666z M346.897,94.548h-2.303v-6.115h2.303V94.548z"/>
		<path fill="#FFFFFF" d="M348.327,91.154c0-2.314,1.152-2.818,2.83-2.818h2.592c1.703,0,2.746,0.625,2.746,2.027v0.553h-2.23
			c0-0.625-0.324-0.852-1.332-0.852h-0.887c-0.959,0-1.416,0.264-1.416,0.936v0.814c0,0.791,0.504,1.031,1.225,1.031h1.174
			c0.648,0,1.236-0.143,1.236-0.707v-0.145h2.23v0.541c0,1.643-1.367,2.109-2.688,2.109h-2.35c-1.523,0-3.131-0.287-3.131-2.902
			V91.154z"/>
		<path fill="#FFFFFF" d="M357.796,85.865h2.303v3.551h0.023c0.408-0.852,1.211-1.08,2.447-1.08c1.426,0,3.418,0.061,3.418,2.699
			v3.514h-2.303v-3.514c0-0.6-0.48-0.9-1.488-0.9h-0.527c-0.984,0-1.57,0.457-1.57,1.332v3.082h-2.303V85.865z"/>
		<path fill="#FFFFFF" d="M373.694,90.435h3.359v2.158h-3.359V90.435z"/>
		<path fill="#FFFFFF" d="M386.798,90.783h1.127l0.156-1.15h-0.936v-1.439h1.127l0.312-2.328h1.486l-0.311,2.328h0.803l0.312-2.328
			h1.486l-0.311,2.328h0.936v1.439h-1.129l-0.156,1.15h0.936v1.439h-1.127l-0.311,2.326h-1.488l0.312-2.326h-0.805l-0.311,2.326
			h-1.488l0.312-2.326h-0.936V90.783z M389.413,90.783h0.803l0.156-1.15h-0.805L389.413,90.783z"/>
		<path fill="#FFFFFF" d="M396.458,90.736c0-1.896,0.973-2.4,2.807-2.4h1.344c1.164,0,1.439,0.145,2.014,0.936h0.025v-0.838h2.158
			v5.732c0,1.271-0.408,2.518-3.299,2.518h-2.541c-1.549,0-2.424-0.371-2.424-1.906h2.375c0,0.287,0.191,0.467,0.564,0.467h1.666
			c1.008,0,1.5-0.322,1.5-1.354v-0.408c-0.457,0.455-0.84,0.635-2.062,0.635h-1.213c-2.23,0-2.914-0.887-2.914-2.543V90.736z
			 M401.22,92.462c1.139,0,1.402-0.301,1.402-1.225c0-0.936-0.264-1.246-1.402-1.246h-1.127c-1.141,0-1.404,0.311-1.404,1.246
			c0,0.924,0.264,1.225,1.404,1.225H401.22z"/>
		<path fill="#FFFFFF" d="M406.106,91.154c0-2.314,1.152-2.818,2.83-2.818h2.592c1.703,0,2.746,0.625,2.746,2.027v0.553h-2.23
			c0-0.625-0.324-0.852-1.332-0.852h-0.887c-0.959,0-1.416,0.264-1.416,0.936v0.814c0,0.791,0.504,1.031,1.225,1.031h1.174
			c0.648,0,1.236-0.143,1.236-0.707v-0.145h2.23v0.541c0,1.643-1.367,2.109-2.688,2.109h-2.35c-1.523,0-3.131-0.287-3.131-2.902
			V91.154z"/>
		<path fill="#FFFFFF" d="M415.466,88.433h2.195v1.199h0.023c0.121-0.877,0.912-1.297,2.039-1.297h0.875
			c1.092,0,1.836,0.469,2.268,1.428c0.385-1.104,0.875-1.428,2.184-1.428h0.707c2.1,0,2.854,1.02,2.854,2.771v3.441h-2.303v-3.285
			c0-0.84-0.215-1.129-1.559-1.129c-1.104,0-1.559,0.24-1.559,1.045v3.369h-2.303v-3.465c0-0.756-0.275-0.949-1.668-0.949
			c-0.982,0-1.451,0.24-1.451,1.188v3.227h-2.303V88.433z"/>
		<path fill="#FFFFFF" d="M438.286,94.548h-2.303v-0.982h-0.025c-0.406,0.852-1.211,1.078-2.445,1.078
			c-1.428,0-3.418-0.059-3.418-2.697v-3.514h2.303v3.514c0,0.6,0.479,0.898,1.486,0.898h0.527c0.984,0,1.572-0.455,1.572-1.33
			v-3.082h2.303V94.548z"/>
		<path fill="#FFFFFF" d="M439.587,91.154c0-2.314,1.15-2.818,2.83-2.818h2.59c1.703,0,2.746,0.625,2.746,2.027v0.553h-2.23
			c0-0.625-0.324-0.852-1.33-0.852h-0.889c-0.959,0-1.414,0.264-1.414,0.936v0.814c0,0.791,0.504,1.031,1.223,1.031h1.176
			c0.646,0,1.234-0.143,1.234-0.707v-0.145h2.23v0.541c0,1.643-1.367,2.109-2.686,2.109h-2.352c-1.521,0-3.129-0.287-3.129-2.902
			V91.154z"/>
	</g>
</g>
<g id="Dots">
	<g id="Shape_3_copy_4_8_">
		<g>
			<circle fill="#F7951D" cx="123.939" cy="54.575" r="3.918"/>
		</g>
	</g>
	<g id="Shape_3_copy_4_9_">
		<g>
			<circle fill="#F7951D" cx="123.939" cy="69.596" r="3.918"/>
		</g>
	</g>
	<g id="Shape_3_copy_4_16_">
		<g>
			<circle fill="#F7951D" cx="349.262" cy="69.596" r="3.918"/>
		</g>
	</g>
	<g id="Shape_3_copy_5_14_">
		<g>
			<circle fill="#F7951D" cx="364.281" cy="69.596" r="3.918"/>
		</g>
	</g>
	<g id="Shape_3_copy_4_15_">
		<g>
			<circle fill="#F7951D" cx="379.302" cy="69.596" r="3.918"/>
		</g>
	</g>
	<g id="Shape_3_copy_5_13_">
		<g>
			<circle fill="#F7951D" cx="394.324" cy="69.596" r="3.918"/>
		</g>
	</g>
	<g id="Shape_3_copy_4_14_">
		<g>
			<circle fill="#F7951D" cx="409.344" cy="69.596" r="3.918"/>
		</g>
	</g>
	<g id="Shape_3_copy_5_12_">
		<g>
			<circle fill="#F7951D" cx="424.365" cy="69.596" r="3.918"/>
		</g>
	</g>
	<g id="Shape_3_copy_4_13_">
		<g>
			<circle fill="#F7951D" cx="439.389" cy="69.596" r="3.918"/>
		</g>
	</g>
	<g id="Shape_3_copy_5_11_">
		<g>
			<circle fill="#F7951D" cx="454.409" cy="69.596" r="3.918"/>
		</g>
	</g>
	<g id="Shape_3_copy_4_12_">
		<g>
			<circle fill="#F7951D" cx="499.473" cy="69.594" r="3.919"/>
		</g>
	</g>
	<g id="Shape_3_copy_5_10_">
		<g>
			<circle fill="#F7951D" cx="499.474" cy="40.402" r="3.919"/>
		</g>
	</g>
	<g id="Shape_3_copy_4_11_">
		<g>
			<circle fill="#F7951D" cx="499.474" cy="55.423" r="3.919"/>
		</g>
	</g>
	<g id="Shape_3_copy_5_8_">
		<g>
			<circle fill="#F7951D" cx="108.919" cy="39.553" r="3.919"/>
		</g>
	</g>
	<g id="Shape_3_copy_5_16_">
		<g>
			<circle fill="#F7951D" cx="469.434" cy="69.596" r="3.918"/>
		</g>
	</g>
	<g id="Shape_3_copy_4_17_">
		<g>
			<path fill="#F7951D" d="M484.454,65.677c2.163,0,3.917,1.754,3.917,3.92c0,2.163-1.754,3.917-3.917,3.917
				c-2.167,0-3.92-1.754-3.92-3.917C480.534,67.431,482.287,65.677,484.454,65.677z"/>
		</g>
	</g>
	<g id="Shape_3_copy_5_9_">
		<g>
			<circle fill="#F7951D" cx="513.646" cy="40.402" r="3.919"/>
		</g>
	</g>
	<g id="Shape_3_copy_5_15_">
		<g>
			<circle fill="#F7951D" cx="527.819" cy="40.402" r="3.919"/>
		</g>
	</g>
	<g id="Shape_3_copy_4">
		<g>
			<circle fill="#F7951D" cx="93.751" cy="39.553" r="3.918"/>
		</g>
	</g>
	<g id="Shape_3_copy_5">
		<g>
			<circle fill="#F7951D" cx="123.94" cy="39.553" r="3.918"/>
		</g>
	</g>
	<g id="Shape_3_copy_4_1_">
		<g>
			<circle fill="#F7951D" cx="138.961" cy="69.597" r="3.919"/>
		</g>
	</g>
	<g id="Shape_3_copy_5_1_">
		<g>
			<circle fill="#F7951D" cx="153.982" cy="69.597" r="3.919"/>
		</g>
	</g>
	<g id="Shape_3_copy_4_3_">
		<g>
			<circle fill="#F7951D" cx="169.001" cy="69.597" r="3.919"/>
		</g>
	</g>
	<g id="Shape_3_copy_5_3_">
		<g>
			<circle fill="#F7951D" cx="184.024" cy="69.597" r="3.919"/>
		</g>
	</g>
	<g id="Shape_3_copy_4_2_">
		<g>
			<circle fill="#F7951D" cx="199.043" cy="69.597" r="3.919"/>
		</g>
	</g>
	<g id="Shape_3_copy_5_2_">
		<g>
			<circle fill="#F7951D" cx="214.063" cy="69.597" r="3.919"/>
		</g>
	</g>
	<g id="Shape_3_copy_4_7_">
		<g>
			<circle fill="#F7951D" cx="229.088" cy="69.597" r="3.919"/>
		</g>
	</g>
	<g id="Shape_3_copy_5_7_">
		<g>
			<circle fill="#F7951D" cx="244.109" cy="69.597" r="3.919"/>
		</g>
	</g>
	<g id="Shape_3_copy_4_6_">
		<g>
			<circle fill="#F7951D" cx="259.129" cy="69.597" r="3.919"/>
		</g>
	</g>
	<g id="Shape_3_copy_5_6_">
		<g>
			<circle fill="#F7951D" cx="274.152" cy="69.597" r="3.919"/>
		</g>
	</g>
	<g id="Shape_3_copy_4_5_">
		<g>
			<circle fill="#F7951D" cx="289.173" cy="69.597" r="3.919"/>
		</g>
	</g>
	<g id="Shape_3_copy_5_5_">
		<g>
			<circle fill="#F7951D" cx="304.196" cy="69.597" r="3.919"/>
		</g>
	</g>
	<g id="Shape_3_copy_4_4_">
		<g>
			<path fill="#F7951D" d="M319.216,65.678c2.164,0,3.917,1.755,3.917,3.919s-1.754,3.919-3.917,3.919
				c-2.167,0-3.92-1.755-3.92-3.919S317.05,65.678,319.216,65.678z"/>
		</g>
	</g>
	<g id="Shape_3_copy_5_4_">
		<g>
			<circle fill="#F7951D" cx="334.236" cy="69.597" r="3.919"/>
		</g>
	</g>
</g>
<g id="Characters">
	<g id="PAC_MAN">
		<g>
			<path fill="#F7951D" d="M60.848,40.706c12.203-5.467,23.787-11.553,35.956-17.056C91.244,11.301,78.119,0.673,61.77,0.141
				c-1.546-0.051-4.686-0.609-6.454,0.922c4.19,1.496,8.124,3.248,9.681,7.375c-6.649,10.378-18.125-5.205-27.659-2.766
				c-4.078,1.044-5.87,5.96-7.836,10.141c5.943-0.44,8.588-1.833,12.446,0c7.069,3.361,6.213,19.199-2.766,19.361
				c-6.382,0.115-11.938-8.102-18.438-9.219c-10.256-1.764-5.899,8.222-7.836,14.29c-1.75,5.48-6.517,5.483-12.908,4.609
				c0.878,1.774,4.404,5.655,8.758,5.531c6.002-0.171,8.346-7.91,12.446-8.758c4.114-0.85,8.438,2.042,9.68,3.227
				c5.993,5.717,3.841,16.598-5.993,16.595c1.323,2.192,3.479,3.632,5.532,4.148c7.86,1.981,18.903-3.816,24.432-2.766
				c6.855,1.305,3.808,8.555,0.46,11.063c-3.324,2.493-8.348,2.892-12.446,3.688c9.032,3.82,20.1,6.961,29.963,3.228
				c2.142-0.813,4.946-2.753,7.375-4.15c7.469-4.292,13.764-10.905,17.056-17.978C85.19,52.626,72.394,47.291,60.848,40.706z
				 M82.975,16.274c0,1.075,0,2.151,0,3.227c-1.302,1.726-4.69,1.726-5.992,0C75.634,14.668,81.03,13.866,82.975,16.274z"/>
		</g>
	</g>
	<g id="GHOST">
		<g>
			<path fill="#F7951D" d="M572.737,7.224c-17.26,0-31.251,13.992-31.251,31.251c0,8.402,0,41.463,0,41.463
				s6.663-13.427,11.476-13.427s9.538,13.427,10.288,13.427s5.452-13.427,10.452-13.427s9.975,13.427,11.048,13.427
				s2.67-13.364,8.354-13.364s10.885,13.364,10.885,13.364s0-33.062,0-41.463C603.988,21.216,589.996,7.224,572.737,7.224z
				 M559.24,44.478c-4.631,0-8.387-4.764-8.387-10.641c0-5.877,3.756-10.641,8.387-10.641c4.632,0,8.384,4.764,8.384,10.641
				C567.624,39.713,563.872,44.478,559.24,44.478z M584.719,44.478c-4.632,0-8.386-4.764-8.386-10.641
				c0-5.877,3.754-10.641,8.386-10.641c4.631,0,8.385,4.764,8.385,10.641C593.104,39.713,589.35,44.478,584.719,44.478z"/>
		</g>
	</g>
	<g>
	</g>
	<g>
	</g>
	<g>
	</g>
	<g>
	</g>
	<g>
	</g>
	<g>
	</g>
	<g>
	</g>
</g>
</svg>
