<?xml version="1.0" encoding="utf-8"?>
<!-- Generator: Adobe Illustrator 18.1.1, SVG Export Plug-In . SVG Version: 6.00 Build 0)  -->
<svg version="1.1" id="Ebene_1" xmlns="http://www.w3.org/2000/svg" xmlns:xlink="http://www.w3.org/1999/xlink" x="0px" y="0px"
	 viewBox="2411.5 0 1984.3 1417.3" enable-background="new 2411.5 0 1984.3 1417.3" xml:space="preserve">
<g>
	<g>
		<g>
			<path fill="#FFFFFF" d="M3125.7,632.7h-16.4v-13.9c0-4.9-1.9-7.4-5.7-7.4c-1.7,0-3.1,0.6-4.3,1.9c-1.2,1.2-1.8,2.8-1.8,4.7v75.8
				c0,1.8,0.5,3.2,1.6,4.4s2.4,1.7,4.1,1.7c1.8,0,3.2-0.6,4.3-1.7c1.1-1.2,1.7-2.7,1.7-4.5v-27.1h-5.7v-14.2h22.2V690
				c0,5-0.9,9.3-2.7,12.9c-1.8,3.6-4.5,6.3-8,8.2c-3.5,1.9-7.7,2.8-12.6,2.8c-4.4,0-8.2-1-11.5-3s-5.8-5-7.5-8.8
				c-1.7-3.9-2.6-8.4-2.6-13.7V625c0-5.8,0.9-10.7,2.7-14.9c1.8-4.1,4.4-7.3,7.9-9.4c3.5-2.1,7.7-3.2,12.5-3.2
				c3.4,0,6.5,0.5,9.1,1.5c2.7,1,4.9,2.4,6.8,4.2c1.9,1.8,3.3,4.1,4.3,6.7c1,2.7,1.5,5.7,1.5,9.2V632.7z"/>
			<path fill="#FFFFFF" d="M3149.8,597.5h14.5l17.4,115.5h-16.3l-1.6-15h-13.8l-1.6,15H3132L3149.8,597.5z M3156.8,635.7l-5.3,48.4
				h10.7l-5.1-48.4H3156.8z"/>
			<path fill="#FFFFFF" d="M3190.9,598.5h10.4l13.9,59.7h0.3l15.2-59.7h10.3l5.2,114.5h-15.8l-0.8-64.3h-0.3l-11.7,51.7h-3.9
				l-11.4-50.7h-0.3l-1,63.4h-15.4L3190.9,598.5z"/>
			<path fill="#FFFFFF" d="M3252.7,598.7h36v14.5h-19.4v34.2h18.4v14.2h-18.4v37.2h20.1V713h-36.7V598.7z"/>
			<path fill="#FFFFFF" d="M3342,632.5h-16.7v-8.6v-0.3v-0.7c0.1-0.5,0.1-1.1,0.1-2c0-6-1.8-9-5.4-9c-2.4,0-4.2,0.8-5.3,2.4
				c-1.1,1.6-1.7,4.1-1.7,7.6v69.9c0,2.3,0.6,4.3,1.8,5.8c1.2,1.6,2.7,2.3,4.5,2.3c1.8,0,3.2-0.6,4.3-1.9c1.1-1.3,1.7-2.9,1.7-4.9
				v-17.3h16.7v14.5c0,3.5-0.5,6.8-1.6,9.7c-1,2.9-2.6,5.4-4.7,7.5c-2.1,2.1-4.5,3.7-7.4,4.8c-2.9,1.1-6,1.7-9.4,1.7
				c-4.4,0-8.4-1-11.7-3.1c-3.4-2.1-6-5-7.9-8.8c-1.9-3.8-2.8-8.3-2.8-13.4v-64.1c0-5.6,0.9-10.5,2.8-14.5c1.8-4,4.5-7.1,8-9.3
				c3.5-2.1,7.6-3.2,12.4-3.2c4.4,0,8.2,0.9,11.6,2.8c3.4,1.9,6,4.5,7.9,7.9c1.8,3.4,2.8,7.4,2.8,12V632.5z"/>
			<path fill="#FFFFFF" d="M3366,597.5h14.5l17.4,115.5h-16.3l-1.6-15h-13.8l-1.6,15h-16.5L3366,597.5z M3373,635.7l-5.3,48.4h10.7
				l-5.1-48.4H3373z"/>
			<path fill="#FFFFFF" d="M3407.1,598.5h10.4l13.9,59.7h0.3l15.2-59.7h10.3l5.2,114.5h-15.8l-0.8-64.3h-0.3l-11.7,51.7h-3.9
				l-11.4-50.7h-0.3l-1,63.4h-15.4L3407.1,598.5z"/>
			<path fill="#FFFFFF" d="M3470.1,598.5h20.2c5,0,9.3,1,12.9,3c3.6,2,6.3,4.9,8.2,8.8c1.9,3.9,2.8,8.5,2.8,13.8v31.6
				c0,4.6-0.8,8.6-2.5,12s-4.1,6-7.4,7.8c-3.3,1.8-7.1,2.7-11.4,2.7h-6.4V713h-16.5V598.5z M3486.6,613.3v50.8h3.7
				c4.9,0,7.3-3.1,7.3-9.2v-33c0-3.2-0.6-5.4-1.8-6.7c-1.2-1.3-3.3-1.9-6.2-1.9H3486.6z"/>
		</g>
		<g>
			<path fill="#FFFFFF" d="M3081.2,730.5h7.3l9.8,41.8h0.2l10.7-41.8h7.2l3.6,80.1h-11l-0.6-45h-0.2l-8.2,36.2h-2.7l-8-35.5h-0.2
				l-0.7,44.3h-10.8L3081.2,730.5z"/>
			<path fill="#FFFFFF" d="M3125,730.6h11.5V796c0,3.3,1.3,4.9,3.8,4.9c1.5,0,2.5-0.5,3.2-1.4s1-2.6,1-4.8v-64.1h11.7V793
				c0,3.6-0.6,6.8-1.9,9.6c-1.3,2.7-3.1,4.8-5.4,6.3c-2.3,1.5-5,2.2-8,2.2c-3.2,0-5.9-0.7-8.3-2c-2.4-1.3-4.2-3.2-5.6-5.7
				c-1.3-2.5-2-5.3-2-8.5V730.6z"/>
			<path fill="#FFFFFF" d="M3162.1,730.5h7.5c3.1,9,5.5,16.2,7.2,21.6c0.9,2.7,1.7,5.2,2.4,7.7c0.8,2.4,1.5,4.8,2.1,7l1.9,6.9h0.2
				v-43.2h10.7v80.1h-7.7c-2.3-6.4-4.7-13.6-7.2-21.5c-1.2-3.9-2.2-6.9-2.8-8.9c-0.6-2-1.2-3.9-1.7-5.5l-1.8-6.6h-0.2v42.5h-10.7
				V730.5z"/>
			<path fill="#FFFFFF" d="M3200.8,730.5h11.6v80.1h-11.6V730.5z"/>
			<path fill="#FFFFFF" d="M3250.7,754.3h-11.7v-6V748v-0.5c0.1-0.3,0.1-0.8,0.1-1.4c0-4.2-1.3-6.3-3.8-6.3c-1.7,0-2.9,0.6-3.7,1.7
				s-1.2,2.9-1.2,5.3v48.9c0,1.6,0.4,3,1.3,4.1c0.8,1.1,1.9,1.6,3.2,1.6c1.2,0,2.2-0.5,3-1.4s1.2-2,1.2-3.4v-12.1h11.7v10.1
				c0,2.5-0.4,4.7-1.1,6.8c-0.7,2-1.8,3.8-3.3,5.3s-3.2,2.6-5.2,3.4c-2,0.8-4.2,1.2-6.6,1.2c-3.1,0-5.8-0.7-8.2-2.2
				s-4.2-3.5-5.5-6.2c-1.3-2.7-2-5.8-2-9.3v-44.8c0-3.9,0.6-7.3,1.9-10.1c1.3-2.8,3.1-5,5.6-6.5c2.4-1.5,5.3-2.2,8.7-2.2
				c3,0,5.8,0.7,8.1,2c2.4,1.3,4.2,3.2,5.5,5.5c1.3,2.4,1.9,5.2,1.9,8.4V754.3z"/>
			<path fill="#FFFFFF" d="M3256.9,730.6h11.6v33.6h8.2v-33.6h11.6v80h-11.6v-36h-8.2v36h-11.6V730.6z"/>
			<path fill="#FFFFFF" d="M3306.9,782.8h50.3v6.1h-50.3V782.8z"/>
			<path fill="#FFFFFF" d="M3390.9,800.8h14.5v9.8h-28.8l16.2-46.1c1.1-3,1.9-5.7,2.3-8.2c0.4-2.4,0.6-5.3,0.6-8.6
				c0-3.4-0.3-5.6-0.9-6.9c-0.6-1.2-1.7-1.8-3.4-1.8c-1.5,0-2.5,0.7-3,2c-0.5,1.3-0.8,3.8-0.8,7.5v6.3h-10.3v-6.8
				c0-6.1,1.2-10.6,3.5-13.7c2.4-3.1,5.9-4.6,10.6-4.6c1.9,0,3.7,0.3,5.4,1s3.1,1.6,4.3,2.9c1.7,1.7,3,3.9,3.8,6.4
				c0.8,2.5,1.1,5.8,1.1,9.8c0,5.8-1,11.6-3.1,17.4L3390.9,800.8z"/>
			<path fill="#FFFFFF" d="M3411.7,795.5V745c0-3.1,0.5-5.9,1.6-8.1c1.1-2.3,2.7-4,4.9-5.2s4.7-1.8,7.5-1.8c4.8,0,8.4,1.3,10.8,3.9
				c2.4,2.6,3.7,6.5,3.7,11.8v50.5c0,3.2-0.5,5.9-1.6,8.1c-1.1,2.2-2.7,3.9-4.8,5.1c-2.1,1.1-4.7,1.7-7.7,1.7c-4.5,0-8-1.2-10.5-3.7
				c-1.3-1.3-2.2-2.7-2.8-4.4C3412.3,801.2,3411.9,798.7,3411.7,795.5z M3422,743.4v54.1c0,1.3,0.4,2.4,1.1,3.2
				c0.7,0.8,1.6,1.3,2.7,1.3c1.3,0,2.2-0.4,2.9-1.3c0.7-0.8,1-2,1-3.5v-53.7c0-1.3-0.3-2.4-1-3.3c-0.7-0.9-1.5-1.3-2.6-1.3
				c-1.2,0-2.1,0.4-2.9,1.3C3422.4,741,3422,742.1,3422,743.4z"/>
			<path fill="#FFFFFF" d="M3449,736.7l16.8-6.7h1.2v80.6h-10.4V743l-7.6,2.8V736.7z"/>
			<path fill="#FFFFFF" d="M3509.2,749.4h-10.4v-4.7c0-3.8-1.3-5.7-4-5.7c-2.5,0-3.8,1.7-3.8,5v17.4c1.4-1.4,2.7-2.4,3.9-2.9
				c1.2-0.5,2.6-0.8,4.1-0.8c3.2,0,5.7,1,7.5,3s2.7,4.9,2.7,8.6v26.3c0,4.9-1.2,8.7-3.7,11.3c-2.5,2.6-6,3.9-10.7,3.9
				c-4.6,0-8.1-1.4-10.5-4.2c-2.4-2.8-3.6-6.8-3.6-11.9v-48.4c0-3.4,0.6-6.4,1.7-8.9c1.1-2.5,2.7-4.4,4.9-5.8c2.1-1.3,4.6-2,7.5-2
				c2.9,0,5.5,0.6,7.7,1.8c2.2,1.2,3.9,2.9,5,5.1c1.2,2.2,1.8,4.8,1.8,7.8V749.4z M3491,773.1v23.7c0,1.5,0.3,2.6,1,3.4
				c0.7,0.8,1.6,1.3,2.9,1.3c1.2,0,2.2-0.4,2.9-1.2c0.7-0.8,1-1.9,1-3.3v-24.4c0-1.6-0.3-2.8-0.9-3.7c-0.6-0.8-1.5-1.3-2.8-1.3
				C3492.4,767.7,3491,769.5,3491,773.1z"/>
		</g>
	</g>
	<path fill="#DAECF9" d="M3882.3,687.4c-7.3-5.7-16.5-10.2-26-8.6c-8.2,1.6-13.7,5.7-19.6,11.3c-6,5.7-8.5,13.2-17.2,15.7
		c-6.7,2-14.1,0.9-20.3-2.2c-13.4-6.6-25.4-21.3-24.3-36.9c0.6-8.1,6.7-14.5,13-19.1c3.7-2.6,10.8-5.1,20.1-6.3
		c-12-16.7-30-16.1-51.2-14.3c-16.8,1.4-35.3,11.8-52.3,7.7c-18.9-4.5-12.9-23.9-1.4-33.2c13.4-10.9,31.5-12.6,48.2-11.3
		c-12-6.1-24.5-11.3-37.4-15c-26.5-7.5-49-6.1-67.5,1.6c-48,7.7-77.2,32-93,74.8l117.9,55.2l-119.8,59.1
		c14.4,40.2,46.6,62.3,88.2,68.7c18.7,11.2,41.7,15.5,68.9,9.7c-7.8-2.9-15.3-7.2-22.4-11.7c-5-3.2-10.5-6.9-12.3-11.1
		c0,0-0.5-0.2-0.5-2.5s0.5-3,0.5-3c9-15.5,30.6-8.3,42.9-2.6c13.8,6.4,29.4,16.3,45.3,13.6c16-2.7,24.9-21.7,29.7-35.6
		c-17.5,5-43.3,8.2-53.5-11c-7.6-14.3-7-41.6,10.2-48.8c19-7.9,32.9,9.4,46.9,17.4c12.2,7,37,21.1,46.8,3.2
		c7.6-14-0.9-29.7,6.3-43.5c9-17.2,29.4-13.2,44.6-11C3889.7,694.2,3886.3,690.5,3882.3,687.4z M3615.6,650.5
		c-8,0-14.5-6.5-14.5-14.5s6.5-14.5,14.5-14.5s14.5,6.5,14.5,14.5S3623.6,650.5,3615.6,650.5z"/>
	<circle fill="#DAECF9" cx="3008.4" cy="708.7" r="9.1"/>
	<circle fill="#DAECF9" cx="2923.1" cy="708.7" r="9.1"/>
	<circle fill="#DAECF9" cx="2923.1" cy="708.7" r="9.1"/>
	<circle fill="#DAECF9" cx="2832" cy="708.7" r="9.1"/>
</g>
</svg>
