<?xml version="1.0" encoding="utf-8"?>
<!-- Generator: Adobe Illustrator 16.0.0, SVG Export Plug-In . SVG Version: 6.00 Build 0)  -->
<!DOCTYPE svg PUBLIC "-//W3C//DTD SVG 1.1//EN" "http://www.w3.org/Graphics/SVG/1.1/DTD/svg11.dtd">
<svg version="1.1" id="Ebene_1" xmlns="http://www.w3.org/2000/svg" xmlns:xlink="http://www.w3.org/1999/xlink" x="0px" y="0px"
	 width="822.777px" height="450.037px" viewBox="0 0 822.777 450.037" enable-background="new 0 0 822.777 450.037"
	 xml:space="preserve">
<g>
	<polygon opacity="0.6" fill="#F2920B" enable-background="new    " points="-171.111,22.519 355.405,-146.368 593.889,-81.481 
		-96.141,235.969 	"/>
	<polygon opacity="0.6" fill="#F2920B" enable-background="new    " points="-104.738,12.062 446.661,-132.5 662.889,-25.481 
		-64.537,165.4 	"/>
	<polygon opacity="0.6" fill="#F2920B" enable-background="new    " points="288.64,499.608 889.889,225.019 917.889,450.037 
		355,643.788 	"/>
	<polygon opacity="0.6" fill="#F2920B" enable-background="new    " points="83.889,491.519 898.458,274.856 938.708,428.383 
		386.63,573.123 	"/>
</g>
<g>
	
		<image overflow="visible" opacity="0.75" width="132" height="72" xlink:href="808FDF1F.png"  transform="matrix(1 0 0 1 145.4258 11.0557)">
	</image>
	<g>
		<g>
			<g>
				<path fill="#E2E2E2" d="M164.427,25.371H160v-3.753c0-1.323-0.514-1.998-1.539-1.998c-0.46,0-0.838,0.162-1.162,0.513
					c-0.324,0.324-0.486,0.756-0.486,1.269v20.466c0,0.486,0.136,0.864,0.432,1.188c0.298,0.324,0.648,0.459,1.107,0.459
					c0.486,0,0.864-0.162,1.162-0.459c0.296-0.324,0.458-0.729,0.458-1.215v-7.316h-1.538V30.69h5.994v10.152
					c0,1.35-0.244,2.51-0.729,3.483c-0.486,0.972-1.215,1.7-2.16,2.213c-0.945,0.512-2.079,0.756-3.402,0.756
					c-1.188,0-2.213-0.27-3.105-0.81c-0.891-0.54-1.565-1.35-2.025-2.375c-0.458-1.053-0.702-2.269-0.702-3.699V23.292
					c0-1.566,0.244-2.889,0.729-4.023c0.486-1.107,1.188-1.971,2.132-2.538c0.946-0.567,2.079-0.864,3.375-0.864
					c0.919,0,1.755,0.135,2.457,0.405c0.729,0.27,1.323,0.648,1.837,1.134c0.512,0.486,0.89,1.107,1.16,1.809
					c0.27,0.729,0.405,1.539,0.405,2.484v3.672H164.427z"/>
				<path fill="#E2E2E2" d="M170.934,15.867h3.915l4.698,31.184h-4.401l-0.432-4.049h-3.727l-0.432,4.049h-4.455L170.934,15.867z
					 M172.824,26.181l-1.43,13.068h2.889l-1.377-13.068H172.824z"/>
				<path fill="#E2E2E2" d="M182.031,16.137h2.809l3.752,16.119h0.082l4.103-16.119h2.781l1.404,30.914h-4.265l-0.216-17.36h-0.082
					l-3.159,13.958h-1.053l-3.077-13.688h-0.082l-0.27,17.118h-4.157L182.031,16.137z"/>
				<path fill="#E2E2E2" d="M198.69,16.191h9.719v3.915h-5.238v9.233h4.968v3.834h-4.968v10.043h5.428v3.833h-9.909V16.191
					L198.69,16.191z"/>
				<path fill="#E2E2E2" d="M222.828,25.317h-4.509v-2.322v-0.081v-0.189c0.026-0.135,0.026-0.297,0.026-0.54
					c0-1.62-0.486-2.43-1.458-2.43c-0.648,0-1.134,0.216-1.431,0.648c-0.296,0.432-0.458,1.107-0.458,2.052v18.873
					c0,0.62,0.162,1.161,0.486,1.565c0.324,0.432,0.729,0.621,1.214,0.621s0.864-0.162,1.161-0.513
					c0.298-0.351,0.459-0.783,0.459-1.324v-4.67h4.509v3.915c0,0.946-0.136,1.836-0.432,2.619c-0.27,0.784-0.702,1.458-1.269,2.025
					c-0.568,0.567-1.215,0.998-1.998,1.295c-0.784,0.296-1.621,0.458-2.539,0.458c-1.188,0-2.268-0.27-3.159-0.836
					c-0.917-0.567-1.62-1.35-2.133-2.375c-0.512-1.026-0.755-2.241-0.755-3.618V23.184c0-1.512,0.243-2.835,0.755-3.915
					c0.487-1.08,1.216-1.917,2.161-2.511c0.944-0.567,2.051-0.864,3.347-0.864c1.189,0,2.215,0.243,3.132,0.756
					c0.918,0.513,1.62,1.215,2.133,2.133c0.486,0.918,0.756,1.998,0.756,3.24V25.317L222.828,25.317z"/>
				<path fill="#E2E2E2" d="M229.307,15.867h3.915l4.698,31.184h-4.401l-0.433-4.049h-3.725l-0.432,4.049h-4.455L229.307,15.867z
					 M231.197,26.181l-1.431,13.068h2.889l-1.376-13.068H231.197z"/>
				<path fill="#E2E2E2" d="M240.377,16.137h2.807l3.753,16.119h0.082l4.103-16.119h2.781l1.405,30.914h-4.267l-0.216-17.36h-0.082
					l-3.159,13.958h-1.052l-3.079-13.688h-0.081l-0.27,17.118h-4.158L240.377,16.137z"/>
				<path fill="#E2E2E2" d="M257.387,16.137h5.453c1.351,0,2.511,0.27,3.484,0.81c0.972,0.54,1.7,1.323,2.213,2.376
					c0.513,1.053,0.756,2.295,0.756,3.726v8.532c0,1.242-0.216,2.322-0.675,3.24c-0.458,0.917-1.106,1.62-1.998,2.105
					s-1.917,0.729-3.077,0.729h-1.729v9.395h-4.455V16.137H257.387z M261.868,20.133v13.716h0.999c1.324,0,1.971-0.837,1.971-2.484
					v-8.91c0-0.864-0.162-1.458-0.486-1.809c-0.324-0.351-0.891-0.513-1.675-0.513H261.868L261.868,20.133z"/>
			</g>
			<g>
				<path fill="#E2E2E2" d="M152.413,51.776h1.971l2.646,11.286h0.054l2.889-11.286h1.945l0.972,21.626h-2.97l-0.162-12.149h-0.054
					l-2.214,9.773h-0.729l-2.159-9.585h-0.054l-0.189,11.961h-2.916L152.413,51.776z"/>
				<path fill="#E2E2E2" d="M164.239,51.803h3.105V69.46c0,0.892,0.351,1.323,1.025,1.323c0.406,0,0.676-0.135,0.864-0.377
					c0.19-0.244,0.27-0.702,0.27-1.296V51.803h3.159v16.848c0,0.972-0.162,1.835-0.513,2.591c-0.351,0.729-0.837,1.297-1.458,1.701
					c-0.622,0.406-1.351,0.594-2.161,0.594c-0.864,0-1.593-0.188-2.241-0.54c-0.648-0.351-1.134-0.864-1.512-1.538
					c-0.352-0.676-0.54-1.431-0.54-2.295V51.803z"/>
				<path fill="#E2E2E2" d="M174.255,51.776h2.025c0.837,2.43,1.485,4.373,1.943,5.832c0.244,0.729,0.46,1.404,0.648,2.079
					c0.216,0.648,0.406,1.296,0.568,1.89l0.513,1.863h0.054V51.776h2.889v21.626h-2.079c-0.622-1.728-1.269-3.672-1.945-5.805
					c-0.324-1.052-0.594-1.862-0.756-2.403c-0.162-0.54-0.324-1.052-0.458-1.484l-0.486-1.783h-0.054v11.476h-2.889V51.776H174.255z
					"/>
				<path fill="#E2E2E2" d="M184.704,51.776h3.132v21.626h-3.132V51.776z"/>
				<path fill="#E2E2E2" d="M198.177,58.202h-3.159v-1.62v-0.082v-0.135c0.028-0.081,0.028-0.216,0.028-0.378
					c0-1.134-0.352-1.7-1.027-1.7c-0.458,0-0.782,0.162-0.999,0.458c-0.216,0.297-0.324,0.783-0.324,1.431V69.38
					c0,0.432,0.108,0.81,0.35,1.106c0.216,0.297,0.514,0.432,0.864,0.432c0.325,0,0.595-0.135,0.812-0.378
					c0.216-0.243,0.324-0.54,0.324-0.918v-3.267h3.159v2.727c0,0.676-0.108,1.27-0.297,1.836c-0.188,0.54-0.486,1.027-0.892,1.431
					c-0.404,0.405-0.864,0.702-1.403,0.918c-0.54,0.216-1.134,0.324-1.782,0.324c-0.837,0-1.566-0.188-2.213-0.594
					c-0.649-0.404-1.135-0.944-1.485-1.674c-0.352-0.729-0.54-1.565-0.54-2.511V56.717c0-1.053,0.162-1.971,0.512-2.727
					c0.352-0.756,0.837-1.35,1.513-1.755c0.647-0.404,1.43-0.594,2.348-0.594c0.811,0,1.567,0.189,2.187,0.54
					c0.648,0.352,1.134,0.864,1.485,1.485c0.352,0.648,0.514,1.404,0.514,2.268v2.269H198.177z"/>
				<path fill="#E2E2E2" d="M199.85,51.803h3.133v9.073h2.213v-9.073h3.132v21.6h-3.132v-9.72h-2.213v9.72h-3.133V51.803z"/>
				<path fill="#E2E2E2" d="M213.351,65.897h13.58v1.646h-13.58V65.897z"/>
				<path fill="#E2E2E2" d="M236.029,70.756h3.916v2.646h-7.777l4.375-12.447c0.297-0.81,0.513-1.539,0.622-2.213
					c0.108-0.648,0.162-1.431,0.162-2.321c0-0.919-0.082-1.513-0.244-1.863c-0.162-0.324-0.458-0.486-0.917-0.486
					c-0.406,0-0.676,0.188-0.81,0.54c-0.135,0.351-0.216,1.026-0.216,2.025v1.7h-2.809v-1.836c0-1.647,0.324-2.861,0.945-3.699
					c0.648-0.837,1.593-1.242,2.863-1.242c0.512,0,0.998,0.081,1.458,0.27c0.458,0.188,0.836,0.432,1.16,0.782
					c0.459,0.459,0.811,1.053,1.027,1.729c0.216,0.674,0.296,1.565,0.296,2.645c0,1.566-0.27,3.133-0.836,4.698L236.029,70.756z"/>
				<path fill="#E2E2E2" d="M241.646,69.326V55.691c0-0.837,0.135-1.593,0.433-2.188c0.296-0.621,0.728-1.08,1.322-1.403
					c0.594-0.324,1.27-0.486,2.025-0.486c1.295,0,2.268,0.35,2.917,1.052c0.648,0.702,0.998,1.755,0.998,3.187v13.635
					c0,0.864-0.134,1.592-0.432,2.187c-0.296,0.594-0.729,1.052-1.296,1.376c-0.567,0.298-1.27,0.459-2.079,0.459
					c-1.215,0-2.16-0.324-2.835-0.999c-0.352-0.351-0.594-0.729-0.756-1.188C241.807,70.864,241.699,70.19,241.646,69.326z
					 M244.426,55.259v14.607c0,0.35,0.108,0.648,0.297,0.864c0.188,0.216,0.432,0.35,0.729,0.35c0.351,0,0.594-0.108,0.782-0.35
					c0.19-0.216,0.27-0.54,0.27-0.945V55.286c0-0.35-0.08-0.648-0.27-0.89c-0.188-0.244-0.404-0.352-0.702-0.352
					c-0.324,0-0.567,0.108-0.784,0.352C244.534,54.611,244.426,54.908,244.426,55.259z"/>
				<path fill="#E2E2E2" d="M251.717,53.45l4.535-1.809h0.324v21.762h-2.808V55.151l-2.051,0.756V53.45z"/>
				<path fill="#E2E2E2" d="M267.97,56.879h-2.807V55.61c0-1.026-0.352-1.538-1.08-1.538c-0.675,0-1.027,0.458-1.027,1.35v4.698
					c0.379-0.378,0.729-0.648,1.053-0.784c0.324-0.135,0.702-0.216,1.107-0.216c0.864,0,1.54,0.27,2.025,0.81
					c0.486,0.54,0.728,1.324,0.728,2.322v7.101c0,1.323-0.324,2.349-0.998,3.051c-0.675,0.702-1.621,1.054-2.889,1.054
					c-1.243,0-2.187-0.378-2.835-1.134c-0.647-0.756-0.972-1.837-0.972-3.213V56.042c0-0.917,0.162-1.728,0.458-2.402
					c0.297-0.675,0.729-1.189,1.323-1.567c0.566-0.35,1.242-0.54,2.025-0.54c0.782,0,1.484,0.162,2.078,0.486
					c0.595,0.324,1.053,0.783,1.351,1.377c0.324,0.594,0.486,1.296,0.486,2.106v1.377H267.97z M263.056,63.278v6.398
					c0,0.405,0.082,0.702,0.271,0.917c0.188,0.216,0.432,0.352,0.782,0.352c0.324,0,0.594-0.108,0.784-0.324
					c0.188-0.216,0.27-0.514,0.27-0.892v-6.588c0-0.432-0.082-0.755-0.244-0.999c-0.162-0.216-0.404-0.351-0.756-0.351
					C263.435,61.819,263.056,62.305,263.056,63.278z"/>
			</g>
		</g>
	</g>
</g>
<g>
	
		<image overflow="visible" opacity="0.75" width="107" height="88" xlink:href="808FDF1D.png"  transform="matrix(1 0 0 1 273.4258 4.0557)">
	</image>
	<g>
		<path fill="#E2E2E2" d="M368.706,40.14c-1.971-1.539-4.456-2.754-7.02-2.322c-2.214,0.432-3.7,1.539-5.292,3.051
			c-1.647,1.539-2.295,3.564-4.644,4.239c-1.809,0.54-3.807,0.243-5.481-0.595c-3.617-1.781-6.858-5.75-6.56-9.962
			c0.162-2.187,1.809-3.915,3.509-5.157c1-0.702,2.917-1.377,5.428-1.701c-3.24-4.509-8.101-4.347-13.823-3.861
			c-4.536,0.378-9.532,3.186-14.121,2.079c-5.104-1.215-3.483-6.453-0.378-8.964c3.617-2.943,8.505-3.402,13.013-3.051
			c-3.24-1.647-6.615-3.051-10.098-4.05c-7.155-2.025-13.229-1.647-18.224,0.432c-12.961,2.079-20.844,8.64-25.111,20.196
			l31.833,14.904l-32.345,15.956c3.887,10.854,12.582,16.822,23.813,18.549c5.049,3.023,11.258,4.185,18.602,2.619
			c-2.105-0.784-4.131-1.944-6.048-3.159c-1.35-0.864-2.835-1.863-3.321-2.997c0,0-0.134-0.054-0.134-0.675
			c0-0.62,0.134-0.81,0.134-0.81c2.431-4.185,8.263-2.241,11.583-0.702c3.725,1.728,7.938,4.401,12.23,3.672
			c4.32-0.729,6.723-5.859,8.019-9.612c-4.725,1.35-11.69,2.214-14.445-2.97c-2.052-3.861-1.89-11.231,2.754-13.176
			c5.129-2.133,8.883,2.539,12.662,4.698c3.294,1.89,9.99,5.698,12.636,0.864c2.053-3.779-0.243-8.019,1.701-11.744
			c2.429-4.644,7.938-3.564,12.042-2.97C370.703,41.976,369.785,40.977,368.706,40.14z M296.697,30.177
			c-2.159,0-3.915-1.755-3.915-3.915c0-2.16,1.755-3.915,3.915-3.915c2.16,0,3.915,1.755,3.915,3.915
			C300.612,28.422,298.857,30.177,296.697,30.177z"/>
	</g>
</g>
<g>
	
		<image overflow="visible" opacity="0.75" width="19" height="18" xlink:href="808FDF23.png"  transform="matrix(1 0 0 1 124.4258 39.0557)">
	</image>
	<g>
		<circle fill="#FFFFFF" cx="132.758" cy="45.891" r="2.457"/>
	</g>
</g>
<g>
	
		<image overflow="visible" opacity="0.75" width="19" height="18" xlink:href="808FDF25.png"  transform="matrix(1 0 0 1 101.4258 39.0557)">
	</image>
	<g>
		<circle fill="#FFFFFF" cx="109.726" cy="45.891" r="2.457"/>
	</g>
</g>
<g>
	
		<image overflow="visible" opacity="0.75" width="19" height="18" xlink:href="808FDF27.png"  transform="matrix(1 0 0 1 101.4258 39.0557)">
	</image>
	<g>
		<circle fill="#FFFFFF" cx="109.726" cy="45.891" r="2.457"/>
	</g>
</g>
<g>
	
		<image overflow="visible" opacity="0.75" width="19" height="18" xlink:href="808FDF24.png"  transform="matrix(1 0 0 1 428.4258 39.0557)">
	</image>
	<g>
		<circle fill="#FFFFFF" cx="436.581" cy="45.891" r="2.457"/>
	</g>
</g>
<g>
	
		<image overflow="visible" opacity="0.75" width="19" height="18" xlink:href="808FDF2C.png"  transform="matrix(1 0 0 1 405.4258 39.0557)">
	</image>
	<g>
		<circle fill="#FFFFFF" cx="413.552" cy="45.891" r="2.457"/>
	</g>
</g>
<g>
	
		<image overflow="visible" opacity="0.75" width="19" height="18" xlink:href="808FDF2D.png"  transform="matrix(1 0 0 1 405.4258 39.0557)">
	</image>
	<g>
		<circle fill="#FFFFFF" cx="413.552" cy="45.891" r="2.457"/>
	</g>
</g>
<g>
	
		<image overflow="visible" opacity="0.75" width="18" height="18" xlink:href="808FDF2F.png"  transform="matrix(1 0 0 1 381.4258 39.0557)">
	</image>
	<g>
		<circle fill="#FFFFFF" cx="388.955" cy="45.891" r="2.457"/>
	</g>
</g>
<g>
	
		<image overflow="visible" opacity="0.75" width="83" height="34" xlink:href="94CB3F8C.png"  transform="matrix(1 0 0 1 18.4258 23.0557)">
	</image>
	<g>
		<g>
			<path fill="#FFFFFF" d="M24.274,32.877h4.211l1.134-5.238h1.891l-1.133,5.238h5.291l1.107-5.238h1.891l-1.135,5.238h2.511v1.89
				h-2.862l-0.972,4.617h3.833v1.89h-4.185l-1.107,5.21h-1.917l1.135-5.21h-5.32l-1.08,5.21h-1.89l1.08-5.21h-2.483v-1.89h2.889
				l0.944-4.617h-3.833V32.877z M29.998,34.74l-0.946,4.59h5.292l0.944-4.59H29.998z"/>
			<path fill="#FFFFFF" d="M47.114,29.34v-0.972h2.863v15.065c0,1.701-0.378,2.916-1.107,3.699
				c-0.728,0.784-1.917,1.162-3.509,1.162c-0.649,0-1.161-0.054-1.593-0.162c-0.405-0.108-0.917-0.352-1.539-0.729l0.945-2.024
				c0.864,0.459,1.592,0.702,2.16,0.702c0.567,0,0.999-0.135,1.323-0.432c0.324-0.297,0.486-0.675,0.486-1.161v-1.323h-0.054
				c-0.297,0.514-0.648,0.892-0.972,1.134c-0.352,0.244-0.729,0.352-1.161,0.352c-0.568,0-1.054-0.162-1.458-0.514
				c-0.405-0.324-0.702-0.836-0.917-1.484c-0.216-0.648-0.298-1.431-0.298-2.376v-7.29c0-0.972,0.108-1.836,0.352-2.565
				c0.216-0.729,0.566-1.269,0.998-1.674c0.432-0.405,0.946-0.567,1.54-0.567c0.405,0,0.729,0.081,0.972,0.216
				C46.358,28.557,46.71,28.881,47.114,29.34z M45.09,32.256v8.694c0,0.378,0.081,0.702,0.27,0.918
				c0.188,0.216,0.404,0.351,0.702,0.351c0.216,0,0.432-0.108,0.62-0.324c0.297-0.27,0.432-0.566,0.432-0.918v-9.396
				c0-0.135-0.08-0.27-0.242-0.405c-0.216-0.27-0.486-0.405-0.81-0.405c-0.298,0-0.514,0.135-0.702,0.405
				C45.171,31.446,45.09,31.797,45.09,32.256z"/>
			<path fill="#FFFFFF" d="M59.534,34.956h-2.889v-2.754c0-0.945-0.27-1.431-0.81-1.431c-0.27,0-0.486,0.108-0.674,0.324
				c-0.189,0.216-0.27,0.486-0.27,0.811V42.03c0,0.405,0.081,0.729,0.27,0.999c0.188,0.27,0.378,0.405,0.62,0.405
				c0.27,0,0.486-0.135,0.675-0.432c0.162-0.27,0.27-0.648,0.27-1.107v-2.646h2.863v1.998c0,0.945-0.136,1.782-0.433,2.511
				c-0.296,0.729-0.702,1.27-1.242,1.647c-0.54,0.378-1.188,0.567-1.944,0.567c-1.242,0-2.213-0.378-2.889-1.161
				c-0.676-0.756-1-1.863-1-3.241v-8.748c0-1.458,0.324-2.592,0.972-3.402c0.649-0.81,1.567-1.215,2.755-1.215
				c1.188,0,2.133,0.378,2.781,1.134c0.648,0.756,0.972,1.809,0.972,3.186v2.43H59.534z"/>
			<path fill="#FFFFFF" d="M64.152,28.368v0.81c0.432-0.378,0.81-0.648,1.134-0.783c0.296-0.135,0.675-0.216,1.107-0.216
				c0.972,0,1.781,0.54,2.403,1.62c0.648-1.08,1.512-1.62,2.591-1.62c0.946,0,1.674,0.378,2.188,1.134
				c0.512,0.756,0.782,1.863,0.782,3.267v13.284h-2.889V32.742c0-1.323-0.404-1.971-1.188-1.971c-0.351,0-0.621,0.081-0.756,0.243
				c-0.135,0.162-0.216,0.432-0.216,0.837v0.054v0.081v13.931h-2.915V32.472c0-0.567-0.082-0.972-0.27-1.269
				c-0.189-0.297-0.433-0.459-0.757-0.459c-0.216,0-0.432,0.054-0.594,0.135s-0.35,0.243-0.594,0.459v14.58h-2.861V28.395h2.835
				V28.368z"/>
			<path fill="#FFFFFF" d="M75.924,28.368h2.889v13.526c0,0.486,0.108,0.837,0.296,1.107c0.189,0.27,0.459,0.405,0.783,0.405
				c0.674,0,1.026-0.54,1.026-1.593V28.368h2.863v13.148c0,2.943-1.351,4.428-4.024,4.428c-1.214,0-2.16-0.405-2.835-1.188
				c-0.674-0.783-0.998-1.89-0.998-3.321V28.368z"/>
			<path fill="#FFFFFF" d="M93.284,34.956h-2.889v-2.754c0-0.945-0.27-1.431-0.81-1.431c-0.27,0-0.486,0.108-0.675,0.324
				c-0.188,0.216-0.27,0.486-0.27,0.811V42.03c0,0.405,0.082,0.729,0.27,0.999c0.189,0.27,0.378,0.405,0.621,0.405
				c0.27,0,0.486-0.135,0.676-0.432c0.162-0.27,0.27-0.648,0.27-1.107v-2.646h2.861v1.998c0,0.945-0.135,1.782-0.432,2.511
				c-0.297,0.729-0.702,1.27-1.242,1.647s-1.188,0.567-1.943,0.567c-1.243,0-2.215-0.378-2.889-1.161c-0.675-0.756-1-1.863-1-3.241
				v-8.748c0-1.458,0.324-2.592,0.972-3.402c0.648-0.81,1.566-1.215,2.755-1.215c1.188,0,2.132,0.378,2.78,1.134
				c0.649,0.756,0.973,1.809,0.973,3.186v2.43H93.284z"/>
		</g>
	</g>
</g>
<g>
	
		<image overflow="visible" opacity="0.75" width="74" height="33" xlink:href="94CB3F8B.png"  transform="matrix(1 0 0 1 27.4258 51.0557)">
	</image>
	<g>
		<g>
			<path fill="#FFFFFF" d="M32.643,55.934h5.616v1.783l-2.593,15.687h-2.268l2.538-15.362h-3.293V55.934z"/>
			<path fill="#FFFFFF" d="M41.391,70.756c0.378,0,0.703,0.136,0.973,0.405c0.27,0.27,0.404,0.594,0.404,0.972
				s-0.134,0.675-0.404,0.945c-0.27,0.27-0.594,0.404-0.973,0.404c-0.378,0-0.674-0.134-0.944-0.404s-0.405-0.567-0.405-0.945
				s0.135-0.702,0.405-0.972C40.688,70.892,41.013,70.756,41.391,70.756z"/>
			<path fill="#FFFFFF" d="M50.895,55.691h1.566l-3.023,19.683h-1.539L50.895,55.691z"/>
			<path fill="#FFFFFF" d="M63.666,58.606v3.429c0,0.513-0.108,0.891-0.352,1.215c-0.242,0.297-0.622,0.54-1.134,0.756
				c0.594,0.243,1,0.513,1.215,0.864c0.216,0.324,0.35,0.811,0.35,1.431v4.239c0,0.919-0.27,1.647-0.836,2.161
				c-0.567,0.512-1.323,0.782-2.295,0.782c-0.973,0-1.755-0.27-2.295-0.81c-0.54-0.54-0.81-1.268-0.81-2.241v-4.131
				c0-0.648,0.108-1.134,0.324-1.485c0.216-0.35,0.594-0.648,1.134-0.864c-0.486-0.216-0.837-0.458-1.026-0.702
				c-0.189-0.243-0.324-0.594-0.352-1.08v-3.564c0-0.566,0.136-1.08,0.378-1.538c0.244-0.459,0.594-0.811,1.054-1.027
				c0.458-0.242,0.998-0.35,1.593-0.35c0.594,0,1.133,0.108,1.592,0.35c0.459,0.244,0.81,0.567,1.08,1.027
				C63.558,57.527,63.666,58.041,63.666,58.606z M59.777,66.167v4.292c0,0.324,0.081,0.594,0.243,0.782
				c0.163,0.189,0.379,0.297,0.622,0.297c0.243,0,0.459-0.108,0.621-0.297c0.162-0.188,0.216-0.458,0.216-0.782v-4.292
				c0-0.324-0.082-0.594-0.244-0.784c-0.162-0.189-0.378-0.297-0.674-0.297c-0.216,0-0.406,0.108-0.567,0.325
				C59.832,65.573,59.777,65.843,59.777,66.167z M59.858,58.606v3.375c0,0.675,0.244,1.027,0.729,1.027
				c0.27,0,0.459-0.082,0.622-0.27c0.162-0.189,0.216-0.433,0.216-0.729v-3.403c0-0.162-0.028-0.324-0.108-0.458
				c-0.082-0.136-0.162-0.27-0.297-0.352c-0.135-0.081-0.243-0.134-0.404-0.134c-0.216,0-0.406,0.08-0.54,0.27
				C59.912,58.121,59.858,58.337,59.858,58.606z"/>
			<path fill="#FFFFFF" d="M66.501,70.756c0.378,0,0.702,0.136,0.972,0.405c0.27,0.27,0.404,0.594,0.404,0.972
				s-0.134,0.675-0.404,0.945s-0.594,0.404-0.972,0.404s-0.676-0.134-0.945-0.404c-0.27-0.27-0.406-0.567-0.406-0.945
				s0.136-0.702,0.406-0.972C65.825,70.892,66.123,70.756,66.501,70.756z"/>
			<path fill="#FFFFFF" d="M73.521,55.879h1.593l2.132,9.153H77.3l2.323-9.153h1.565l0.784,17.523h-2.403l-0.136-9.854h-0.054
				l-1.782,7.911h-0.594l-1.755-7.777h-0.054l-0.162,9.72h-2.375L73.521,55.879z"/>
			<path fill="#FFFFFF" d="M86.939,60.362v-0.81h2.268v13.851h-2.268v-0.917h-0.054c-0.19,0.324-0.433,0.566-0.729,0.728
				c-0.27,0.162-0.568,0.27-0.864,0.27c-0.432,0-0.837-0.134-1.188-0.378c-0.352-0.242-0.594-0.62-0.783-1.106
				c-0.19-0.486-0.27-1.053-0.27-1.701v-7.235c0-1.107,0.216-1.971,0.622-2.646c0.404-0.674,0.944-1,1.62-1
				c0.378,0,0.674,0.082,0.917,0.217c0.243,0.134,0.459,0.404,0.676,0.728H86.939z M86.939,70.622v-8.613
				c-0.271-0.378-0.541-0.54-0.811-0.54c-0.54,0-0.782,0.432-0.782,1.323v7.748c0,0.297,0.054,0.54,0.188,0.729
				c0.136,0.189,0.297,0.27,0.54,0.27c0.162,0,0.352-0.08,0.54-0.27C86.832,71.026,86.939,70.838,86.939,70.622z"/>
			<path fill="#FFFFFF" d="M92.096,58.714c-0.352,0-0.648-0.134-0.892-0.377c-0.242-0.243-0.378-0.54-0.378-0.864
				c0-0.35,0.108-0.647,0.378-0.89c0.244-0.243,0.54-0.379,0.892-0.379c0.35,0,0.647,0.136,0.891,0.352
				c0.242,0.244,0.351,0.54,0.351,0.891c0,0.351-0.108,0.648-0.351,0.891C92.744,58.58,92.446,58.714,92.096,58.714z M90.935,59.552
				h2.269v13.851h-2.269V59.552z"/>
		</g>
	</g>
</g>
</svg>
